M48
; DRILL file {KiCad (6.0.8)} date Fri Mar 24 20:24:54 2023
; FORMAT={-:-/ absolute / metric / decimal}
; #@! TF.CreationDate,2023-03-24T20:24:54-04:00
; #@! TF.GenerationSoftware,Kicad,Pcbnew,(6.0.8)
; #@! TF.FileFunction,MixedPlating,1,4
FMAT,2
METRIC
; #@! TA.AperFunction,Plated,PTH,ViaDrill
T1C0.300
; #@! TA.AperFunction,Plated,PTH,ComponentDrill
T2C0.305
; #@! TA.AperFunction,Plated,PTH,ComponentDrill
T3C0.500
; #@! TA.AperFunction,Plated,PTH,ComponentDrill
T4C0.600
; #@! TA.AperFunction,Plated,PTH,ComponentDrill
T5C0.850
; #@! TA.AperFunction,Plated,PTH,ComponentDrill
T6C0.900
; #@! TA.AperFunction,Plated,PTH,ComponentDrill
T7C0.920
; #@! TA.AperFunction,Plated,PTH,ComponentDrill
T8C1.000
; #@! TA.AperFunction,Plated,PTH,ComponentDrill
T9C1.020
; #@! TA.AperFunction,Plated,PTH,ComponentDrill
T10C1.500
; #@! TA.AperFunction,Plated,PTH,ComponentDrill
T11C1.630
; #@! TA.AperFunction,Plated,PTH,ComponentDrill
T12C3.200
; #@! TA.AperFunction,NonPlated,NPTH,ComponentDrill
T13C1.152
; #@! TA.AperFunction,NonPlated,NPTH,ComponentDrill
T14C1.500
; #@! TA.AperFunction,NonPlated,NPTH,ComponentDrill
T15C3.250
%
G90
G05
T1
X105.3Y-121.6
X106.8Y-61.4
X108.1Y-77.1
X108.94Y-102.46
X109.24Y-77.26
X109.4Y-66.4
X109.44Y-75.46
X110.6Y-70.8
X110.67Y-126.88
X112.54Y-68.46
X114.3Y-66.7
X114.88Y-72.24
X115.19Y-67.48
X117.04Y-69.75
X117.46Y-66.88
X117.6Y-76.4
X117.62Y-107.32
X117.86Y-119.8
X117.89Y-73.52
X117.94Y-59.56
X118.44Y-74.16
X118.66Y-83.0
X119.26Y-76.26
X119.3Y-109.3
X119.3Y-114.2
X119.4Y-117.2
X119.52Y-75.5
X119.74Y-64.86
X120.14Y-66.03
X120.6Y-61.0
X121.3Y-105.1
X121.3Y-106.9
X121.5Y-64.3
X121.5Y-112.1
X121.8Y-116.7
X122.4Y-59.4
X122.4Y-78.7
X122.73Y-119.46
X123.0Y-64.4
X123.046Y-92.066
X123.3Y-75.9
X123.47Y-65.164
X123.8Y-105.3
X123.94Y-59.16
X124.0Y-51.23
X124.0Y-112.0
X124.08Y-114.46
X124.64Y-77.06
X125.0Y-107.0
X125.04Y-74.86
X125.44Y-73.46
X126.14Y-65.86
X126.34Y-71.38
X126.45Y-94.13
X126.48Y-69.65
X126.77Y-96.43
X126.89Y-72.47
X127.14Y-63.96
X127.3Y-92.7
X127.9Y-75.1
X128.57Y-74.1
X128.64Y-72.56
X130.0Y-87.4
X130.14Y-67.93
X130.9Y-79.7
X130.95Y-70.28
X132.1Y-95.5
X132.92Y-115.66
X133.1Y-76.5
X134.245Y-71.795
X136.3Y-90.3
X136.35Y-79.7
X136.4Y-87.4
X136.5Y-97.9
X136.86Y-94.7
X137.2Y-76.2
X137.2Y-99.5
X137.428Y-86.718
X137.68Y-89.7
X138.06Y-96.21
X138.25Y-58.0
X139.44Y-101.86
X139.47Y-94.85
X139.56Y-53.8
X140.02Y-99.36
X140.15Y-98.13
X140.2Y-96.96
X140.75Y-58.0
X140.853Y-84.684
X141.8Y-80.0
X142.06Y-53.78
X142.1Y-86.5
X142.245Y-88.255
X142.3Y-108.3
X142.904Y-83.833
X143.25Y-58.0
X143.42Y-106.98
X143.8Y-109.74
X143.81Y-112.29
X144.0Y-94.13
X144.01Y-76.05
X144.04Y-106.46
X144.16Y-71.1
X144.2Y-53.79
X144.45Y-115.39
X144.5Y-111.87
X144.51Y-110.24
X145.0Y-77.09
X145.13Y-87.13
X145.25Y-109.71
X145.25Y-111.39
X145.3Y-69.48
X145.75Y-58.0
X145.85Y-121.35
X145.9Y-109.0
X146.04Y-106.24
X146.06Y-76.94
X146.65Y-53.96
X146.67Y-73.64
X146.77Y-82.77
X147.1Y-106.0
X147.17Y-84.46
X147.24Y-76.33
X147.48Y-78.92
X147.5Y-82.3
X147.8Y-108.6
X147.96Y-75.24
X147.99Y-86.86
X148.05Y-105.88
X148.25Y-58.0
X148.3Y-84.4
X148.51Y-79.14
X148.51Y-83.54
X148.608Y-80.008
X148.8Y-120.6
X148.87Y-76.12
X149.26Y-53.9
X149.68Y-79.06
X149.8Y-91.4
X150.2Y-76.55
X150.2Y-84.3
X150.4Y-110.6
X150.71Y-78.94
X150.75Y-58.0
X150.8Y-102.7
X150.9Y-85.5
X151.18Y-133.67
X151.2Y-112.0
X151.24Y-87.16
X151.39Y-76.55
X151.668Y-111.267
X151.8Y-126.8
X151.86Y-53.91
X151.895Y-129.935
X151.91Y-133.057
X152.1Y-79.0
X152.25Y-76.42
X152.38Y-71.71
X152.4Y-130.6
X152.43Y-74.12
X152.44Y-72.89
X152.48Y-75.29
X152.5Y-81.01
X152.5Y-134.3
X152.6Y-126.2
X152.6Y-127.4
X152.62Y-132.4
X152.87Y-90.45
X153.09Y-84.38
X153.25Y-58.0
X153.5Y-110.7
X154.44Y-53.89
X154.44Y-86.76
X154.5Y-93.3
X154.54Y-109.36
X154.77Y-78.24
X154.8Y-97.2
X154.85Y-71.02
X154.9Y-73.63
X154.92Y-72.74
X154.93Y-76.09
X154.96Y-75.16
X155.44Y-106.87
X155.5Y-85.9
X155.72Y-105.81
X155.75Y-58.0
X156.154Y-68.25
X156.23Y-69.15
X156.89Y-74.3
X156.9Y-108.8
X156.91Y-53.78
X158.2Y-106.9
X158.4Y-73.8
X158.5Y-58.0
X158.9Y-100.21
X158.97Y-94.96
X159.32Y-53.79
X159.76Y-100.08
X159.8Y-113.0
X160.11Y-71.74
X160.65Y-105.36
X161.0Y-58.0
X161.04Y-99.46
X161.5Y-111.8
X161.7Y-95.4
X162.04Y-91.76
X162.04Y-99.36
X162.18Y-53.77
X162.23Y-119.55
X162.3Y-75.6
X162.52Y-113.03
X163.17Y-115.71
X163.23Y-116.54
X163.23Y-117.38
X163.5Y-58.0
X163.6Y-91.4
X163.9Y-93.9
X164.05Y-53.78
X165.0Y-109.0
X165.31Y-113.53
X165.943Y-114.147
X166.0Y-58.0
X166.4Y-63.2
X166.45Y-64.73
X166.5Y-108.9
X166.5Y-112.4
X166.6Y-110.1
X166.66Y-114.75
X168.95Y-113.06
X170.1Y-84.2
X170.37Y-111.72
X170.4Y-128.1
X170.6Y-82.2
X170.937Y-112.959
X171.14Y-77.07
X171.19Y-114.06
X171.2Y-119.2
X171.34Y-105.51
X171.34Y-111.64
X171.58Y-121.82
X171.7Y-78.4
X172.44Y-112.86
X172.44Y-113.76
X172.46Y-104.42
X173.8Y-137.3
X174.4Y-83.5
X174.62Y-113.06
X174.88Y-115.2
X174.95Y-76.03
X174.99Y-114.05
X175.1Y-101.7
X175.5Y-72.4
X175.768Y-70.358
X176.2Y-101.7
X177.038Y-56.642
X177.292Y-51.562
X178.93Y-115.41
X180.4Y-82.4
X181.74Y-89.56
X181.742Y-75.01
X181.99Y-98.92
X182.94Y-79.26
X183.0Y-105.5
X183.15Y-99.39
X183.24Y-87.685
X183.34Y-89.96
X183.74Y-94.76
X183.84Y-91.06
X184.34Y-99.76
X184.94Y-95.26
X185.14Y-91.46
X185.34Y-100.06
X185.52Y-99.04
X185.7Y-125.5
X185.78Y-71.44
X185.84Y-95.56
X186.14Y-91.86
X186.19Y-98.55
X186.59Y-68.93
X186.69Y-91.07
X186.7Y-95.183
X186.74Y-96.06
X186.74Y-103.26
X186.91Y-97.98
X186.98Y-100.35
X187.04Y-92.16
X187.44Y-94.76
X187.546Y-96.285
X187.62Y-97.56
X187.64Y-102.76
X187.9Y-110.0
X188.0Y-104.1
X188.13Y-94.31
X188.34Y-92.36
X188.34Y-102.16
X188.74Y-77.385
X188.74Y-93.76
X189.14Y-101.76
X189.155Y-104.86
X189.2Y-96.0
X189.4Y-88.0
X189.44Y-97.26
X189.533Y-93.285
X189.64Y-90.76
X189.64Y-91.86
X189.861Y-101.264
X190.61Y-75.84
X191.8Y-121.1
X191.89Y-74.38
X191.91Y-125.65
X192.4Y-95.8
X192.4Y-105.3
X192.6Y-99.8
X193.0Y-127.8
X193.2Y-92.3
X194.07Y-124.28
T2
X120.74Y-69.19
X120.74Y-70.39
X120.74Y-71.59
X121.94Y-69.19
X121.94Y-70.39
X121.94Y-71.59
X123.14Y-69.19
X123.14Y-70.39
X123.14Y-71.59
X148.44Y-95.66
X148.44Y-96.66
X148.44Y-97.66
X149.44Y-95.66
X149.44Y-96.66
X149.44Y-97.66
X150.44Y-95.66
X150.44Y-96.66
X150.44Y-97.66
T3
X111.79Y-74.21
X111.79Y-75.46
X111.79Y-76.71
T5
X103.602Y-61.56
X103.602Y-66.56
X195.278Y-62.76
X195.278Y-67.76
T6
X102.627Y-84.02
X102.627Y-86.56
X102.627Y-89.1
X102.627Y-91.64
X105.167Y-85.28
X105.167Y-87.82
X105.167Y-90.36
X105.167Y-92.9
T7
X113.03Y-126.86
X115.03Y-126.86
X117.03Y-126.86
X119.03Y-126.86
T8
X181.859Y-52.827
X181.859Y-55.367
X183.3Y-129.65
X183.3Y-132.19
X183.3Y-134.73
X183.3Y-137.27
X183.3Y-139.81
X183.3Y-142.35
X184.399Y-52.827
X184.399Y-55.367
T9
X116.427Y-81.835
X116.427Y-84.375
X116.427Y-92.545
X116.427Y-95.085
T10
X112.3Y-124.14
X112.3Y-129.58
X119.3Y-124.14
X119.3Y-129.58
T11
X108.477Y-80.715
X108.477Y-96.205
T12
X104.44Y-51.66
X104.44Y-141.66
X194.44Y-51.66
X194.44Y-141.66
T13
X102.86Y-133.4
X109.4Y-57.1
X192.79Y-133.24
T14
X174.0Y-133.415
X174.0Y-140.415
T15
X111.527Y-82.745
X111.527Y-94.175
T4
G00X100.552Y-60.56
M15
G01X101.252Y-60.56
M16
G05
G00X101.252Y-67.56
M15
G01X100.552Y-67.56
M16
G05
G00X197.627Y-61.76
M15
G01X198.327Y-61.76
M16
G05
G00X198.327Y-68.76
M15
G01X197.627Y-68.76
M16
G05
T0
M30
