%TF.GenerationSoftware,KiCad,Pcbnew,(6.0.8)*%
%TF.CreationDate,2023-03-24T20:25:01-04:00*%
%TF.ProjectId,lb_mp1,6c625f6d-7031-42e6-9b69-6361645f7063,rev?*%
%TF.SameCoordinates,Original*%
%TF.FileFunction,Paste,Top*%
%TF.FilePolarity,Positive*%
%FSLAX46Y46*%
G04 Gerber Fmt 4.6, Leading zero omitted, Abs format (unit mm)*
G04 Created by KiCad (PCBNEW (6.0.8)) date 2023-03-24 20:25:01*
%MOMM*%
%LPD*%
G01*
G04 APERTURE LIST*
G04 Aperture macros list*
%AMRoundRect*
0 Rectangle with rounded corners*
0 $1 Rounding radius*
0 $2 $3 $4 $5 $6 $7 $8 $9 X,Y pos of 4 corners*
0 Add a 4 corners polygon primitive as box body*
4,1,4,$2,$3,$4,$5,$6,$7,$8,$9,$2,$3,0*
0 Add four circle primitives for the rounded corners*
1,1,$1+$1,$2,$3*
1,1,$1+$1,$4,$5*
1,1,$1+$1,$6,$7*
1,1,$1+$1,$8,$9*
0 Add four rect primitives between the rounded corners*
20,1,$1+$1,$2,$3,$4,$5,0*
20,1,$1+$1,$4,$5,$6,$7,0*
20,1,$1+$1,$6,$7,$8,$9,0*
20,1,$1+$1,$8,$9,$2,$3,0*%
G04 Aperture macros list end*
%ADD10RoundRect,0.135000X0.135000X0.185000X-0.135000X0.185000X-0.135000X-0.185000X0.135000X-0.185000X0*%
%ADD11RoundRect,0.150000X-0.150000X0.825000X-0.150000X-0.825000X0.150000X-0.825000X0.150000X0.825000X0*%
%ADD12RoundRect,0.135000X-0.185000X0.135000X-0.185000X-0.135000X0.185000X-0.135000X0.185000X0.135000X0*%
%ADD13RoundRect,0.200000X-0.275000X0.200000X-0.275000X-0.200000X0.275000X-0.200000X0.275000X0.200000X0*%
%ADD14RoundRect,0.135000X-0.135000X-0.185000X0.135000X-0.185000X0.135000X0.185000X-0.135000X0.185000X0*%
%ADD15RoundRect,0.140000X0.140000X0.170000X-0.140000X0.170000X-0.140000X-0.170000X0.140000X-0.170000X0*%
%ADD16R,1.700000X1.000000*%
%ADD17RoundRect,0.140000X0.170000X-0.140000X0.170000X0.140000X-0.170000X0.140000X-0.170000X-0.140000X0*%
%ADD18RoundRect,0.200000X0.275000X-0.200000X0.275000X0.200000X-0.275000X0.200000X-0.275000X-0.200000X0*%
%ADD19RoundRect,0.140000X-0.140000X-0.170000X0.140000X-0.170000X0.140000X0.170000X-0.140000X0.170000X0*%
%ADD20O,0.360000X0.150000*%
%ADD21O,0.150000X0.360000*%
%ADD22C,0.240000*%
%ADD23RoundRect,0.135000X0.185000X-0.135000X0.185000X0.135000X-0.185000X0.135000X-0.185000X-0.135000X0*%
%ADD24R,2.000000X1.500000*%
%ADD25RoundRect,0.250000X0.925000X-0.412500X0.925000X0.412500X-0.925000X0.412500X-0.925000X-0.412500X0*%
%ADD26RoundRect,0.140000X-0.170000X0.140000X-0.170000X-0.140000X0.170000X-0.140000X0.170000X0.140000X0*%
%ADD27RoundRect,0.100000X0.100000X-0.150000X0.100000X0.150000X-0.100000X0.150000X-0.100000X-0.150000X0*%
%ADD28RoundRect,0.100000X0.100000X-0.208500X0.100000X0.208500X-0.100000X0.208500X-0.100000X-0.208500X0*%
%ADD29R,1.300000X0.300000*%
%ADD30R,2.200000X1.800000*%
%ADD31R,3.600000X1.500000*%
%ADD32R,1.000000X3.150000*%
%ADD33R,1.350000X0.400000*%
%ADD34R,1.900000X1.500000*%
%ADD35R,1.800000X1.750000*%
%ADD36RoundRect,0.218750X-0.218750X-0.256250X0.218750X-0.256250X0.218750X0.256250X-0.218750X0.256250X0*%
%ADD37R,0.900000X1.200000*%
%ADD38R,1.500000X0.800000*%
%ADD39R,1.400000X1.300000*%
%ADD40R,1.900000X1.400000*%
%ADD41R,1.000000X0.950000*%
%ADD42R,2.000000X3.800000*%
%ADD43R,1.000000X0.200000*%
%ADD44R,0.200000X1.000000*%
%ADD45RoundRect,0.250000X-0.625000X0.312500X-0.625000X-0.312500X0.625000X-0.312500X0.625000X0.312500X0*%
%ADD46R,1.500000X3.600000*%
%ADD47RoundRect,0.150000X0.512500X0.150000X-0.512500X0.150000X-0.512500X-0.150000X0.512500X-0.150000X0*%
%ADD48RoundRect,0.150000X-0.650000X-0.150000X0.650000X-0.150000X0.650000X0.150000X-0.650000X0.150000X0*%
%ADD49R,1.200000X1.400000*%
%ADD50RoundRect,0.200000X-0.200000X-0.275000X0.200000X-0.275000X0.200000X0.275000X-0.200000X0.275000X0*%
%ADD51R,1.500000X2.000000*%
%ADD52R,3.800000X2.000000*%
%ADD53RoundRect,0.200000X0.200000X0.275000X-0.200000X0.275000X-0.200000X-0.275000X0.200000X-0.275000X0*%
%ADD54RoundRect,0.225000X0.250000X-0.225000X0.250000X0.225000X-0.250000X0.225000X-0.250000X-0.225000X0*%
%ADD55RoundRect,0.100000X0.150000X0.100000X-0.150000X0.100000X-0.150000X-0.100000X0.150000X-0.100000X0*%
%ADD56RoundRect,0.100000X0.208500X0.100000X-0.208500X0.100000X-0.208500X-0.100000X0.208500X-0.100000X0*%
%ADD57RoundRect,0.075000X-0.662500X-0.075000X0.662500X-0.075000X0.662500X0.075000X-0.662500X0.075000X0*%
%ADD58RoundRect,0.075000X-0.075000X-0.662500X0.075000X-0.662500X0.075000X0.662500X-0.075000X0.662500X0*%
%ADD59RoundRect,0.225000X0.225000X0.250000X-0.225000X0.250000X-0.225000X-0.250000X0.225000X-0.250000X0*%
%ADD60RoundRect,0.250000X0.275000X0.700000X-0.275000X0.700000X-0.275000X-0.700000X0.275000X-0.700000X0*%
%ADD61RoundRect,0.218750X0.256250X-0.218750X0.256250X0.218750X-0.256250X0.218750X-0.256250X-0.218750X0*%
%ADD62RoundRect,0.150000X-0.150000X0.512500X-0.150000X-0.512500X0.150000X-0.512500X0.150000X0.512500X0*%
%ADD63RoundRect,0.250000X-0.450000X0.262500X-0.450000X-0.262500X0.450000X-0.262500X0.450000X0.262500X0*%
%ADD64RoundRect,0.250000X0.262500X0.450000X-0.262500X0.450000X-0.262500X-0.450000X0.262500X-0.450000X0*%
%ADD65RoundRect,0.150000X-0.512500X-0.150000X0.512500X-0.150000X0.512500X0.150000X-0.512500X0.150000X0*%
%ADD66R,0.450000X0.600000*%
%ADD67R,0.500000X0.320000*%
%ADD68RoundRect,0.250000X0.375000X0.625000X-0.375000X0.625000X-0.375000X-0.625000X0.375000X-0.625000X0*%
%ADD69R,1.000000X1.150000*%
%ADD70RoundRect,0.225000X-0.225000X-0.250000X0.225000X-0.250000X0.225000X0.250000X-0.225000X0.250000X0*%
%ADD71R,1.200000X0.900000*%
%ADD72RoundRect,0.250000X0.625000X-0.375000X0.625000X0.375000X-0.625000X0.375000X-0.625000X-0.375000X0*%
%ADD73R,1.600000X0.247500*%
%ADD74R,0.247500X1.600000*%
G04 APERTURE END LIST*
%TO.C,U2*%
G36*
X123640000Y-72090000D02*
G01*
X120240000Y-72090000D01*
X120240000Y-68690000D01*
X123640000Y-68690000D01*
X123640000Y-72090000D01*
G37*
%TO.C,U8*%
G36*
X150940000Y-98160000D02*
G01*
X147940000Y-98160000D01*
X147940000Y-95160000D01*
X150940000Y-95160000D01*
X150940000Y-98160000D01*
G37*
%TD*%
D10*
%TO.C,R64*%
X158000000Y-142800000D03*
X156980000Y-142800000D03*
%TD*%
D11*
%TO.C,U4*%
X186445000Y-61585000D03*
X185175000Y-61585000D03*
X183905000Y-61585000D03*
X182635000Y-61585000D03*
X182635000Y-66535000D03*
X183905000Y-66535000D03*
X185175000Y-66535000D03*
X186445000Y-66535000D03*
%TD*%
D12*
%TO.C,R65*%
X150800000Y-119490000D03*
X150800000Y-120510000D03*
%TD*%
D13*
%TO.C,R58*%
X158300000Y-112375000D03*
X158300000Y-114025000D03*
%TD*%
D12*
%TO.C,R5*%
X105490000Y-65400000D03*
X105490000Y-66420000D03*
%TD*%
D14*
%TO.C,R31*%
X192730000Y-73180000D03*
X193750000Y-73180000D03*
%TD*%
D15*
%TO.C,C3*%
X120600000Y-62110000D03*
X119640000Y-62110000D03*
%TD*%
D16*
%TO.C,SW2*%
X114060000Y-54700000D03*
X120360000Y-54700000D03*
X114060000Y-50900000D03*
X120360000Y-50900000D03*
%TD*%
D17*
%TO.C,C41*%
X144020000Y-86310000D03*
X144020000Y-85350000D03*
%TD*%
D18*
%TO.C,R52*%
X156340000Y-112685000D03*
X156340000Y-111035000D03*
%TD*%
D15*
%TO.C,C76*%
X138510000Y-94950000D03*
X137550000Y-94950000D03*
%TD*%
D19*
%TO.C,C18*%
X116130000Y-65590000D03*
X117090000Y-65590000D03*
%TD*%
D20*
%TO.C,U9*%
X167380000Y-115560000D03*
X167380000Y-115060000D03*
X167380000Y-114560000D03*
X167380000Y-114060000D03*
X167380000Y-113560000D03*
X167380000Y-113060000D03*
X167380000Y-112560000D03*
X167380000Y-112060000D03*
X167380000Y-111560000D03*
X167380000Y-111060000D03*
X167380000Y-110560000D03*
X167380000Y-110060000D03*
X167380000Y-109560000D03*
X167380000Y-109060000D03*
D21*
X167940000Y-115620000D03*
D22*
X167940000Y-115060000D03*
X167940000Y-114560000D03*
X167940000Y-114060000D03*
X167940000Y-113560000D03*
X167940000Y-113060000D03*
X167940000Y-112560000D03*
X167940000Y-112060000D03*
X167940000Y-111560000D03*
X167940000Y-111060000D03*
X167940000Y-110560000D03*
X167940000Y-110060000D03*
X167940000Y-109560000D03*
D21*
X167940000Y-109000000D03*
X168440000Y-115620000D03*
D22*
X168440000Y-115060000D03*
X168440000Y-114560000D03*
X168440000Y-114060000D03*
X168440000Y-113560000D03*
X168440000Y-113060000D03*
X168440000Y-112560000D03*
X168440000Y-112060000D03*
X168440000Y-111560000D03*
X168440000Y-111060000D03*
X168440000Y-110560000D03*
X168440000Y-110060000D03*
X168440000Y-109560000D03*
D21*
X168440000Y-109000000D03*
X168940000Y-115620000D03*
D22*
X168940000Y-115060000D03*
X168940000Y-114560000D03*
X168940000Y-114060000D03*
X168940000Y-110060000D03*
X168940000Y-109560000D03*
D21*
X168940000Y-109000000D03*
X169440000Y-115620000D03*
D22*
X169440000Y-115060000D03*
D21*
X169440000Y-114500000D03*
D22*
X169440000Y-113560000D03*
X169440000Y-113060000D03*
X169440000Y-112560000D03*
X169440000Y-112060000D03*
X169440000Y-111560000D03*
X169440000Y-111060000D03*
X169440000Y-110060000D03*
X169440000Y-109560000D03*
D21*
X169440000Y-109000000D03*
X169940000Y-115620000D03*
D22*
X169940000Y-115060000D03*
D21*
X169940000Y-114500000D03*
D22*
X169940000Y-113560000D03*
X169940000Y-111060000D03*
X169940000Y-110060000D03*
X169940000Y-109560000D03*
D21*
X169940000Y-109000000D03*
X170440000Y-115620000D03*
D22*
X170440000Y-115060000D03*
X170440000Y-114560000D03*
X170440000Y-113560000D03*
X170440000Y-111060000D03*
X170440000Y-110060000D03*
X170440000Y-109560000D03*
D21*
X170440000Y-109000000D03*
X170940000Y-115620000D03*
D22*
X170940000Y-115060000D03*
X170940000Y-114560000D03*
X170940000Y-113560000D03*
X170940000Y-111060000D03*
X170940000Y-110060000D03*
X170940000Y-109560000D03*
D21*
X170940000Y-109000000D03*
X171440000Y-115620000D03*
D22*
X171440000Y-115060000D03*
X171440000Y-114560000D03*
X171440000Y-113560000D03*
X171440000Y-111060000D03*
D21*
X171440000Y-110120000D03*
D22*
X171440000Y-109560000D03*
D21*
X171440000Y-109000000D03*
X171940000Y-115620000D03*
D22*
X171940000Y-115060000D03*
D21*
X171940000Y-114500000D03*
D22*
X171940000Y-113560000D03*
X171940000Y-113060000D03*
X171940000Y-112560000D03*
X171940000Y-112060000D03*
X171940000Y-111560000D03*
X171940000Y-111060000D03*
D21*
X171940000Y-110120000D03*
D22*
X171940000Y-109560000D03*
D21*
X171940000Y-109000000D03*
X172440000Y-115620000D03*
D22*
X172440000Y-115060000D03*
X172440000Y-114560000D03*
X172440000Y-110060000D03*
X172440000Y-109560000D03*
D21*
X172440000Y-109000000D03*
X172940000Y-115620000D03*
D22*
X172940000Y-115060000D03*
X172940000Y-114560000D03*
X172940000Y-114060000D03*
X172940000Y-113560000D03*
X172940000Y-113060000D03*
X172940000Y-112560000D03*
X172940000Y-112060000D03*
X172940000Y-111560000D03*
X172940000Y-111060000D03*
X172940000Y-110560000D03*
X172940000Y-110060000D03*
X172940000Y-109560000D03*
D21*
X172940000Y-109000000D03*
X173440000Y-115620000D03*
D22*
X173440000Y-115060000D03*
X173440000Y-114560000D03*
X173440000Y-114060000D03*
X173440000Y-113560000D03*
X173440000Y-113060000D03*
X173440000Y-112560000D03*
X173440000Y-112060000D03*
X173440000Y-111560000D03*
X173440000Y-111060000D03*
X173440000Y-110560000D03*
X173440000Y-110060000D03*
X173440000Y-109560000D03*
D21*
X173440000Y-109000000D03*
D20*
X174000000Y-115570000D03*
X174000000Y-115070000D03*
X174000000Y-114570000D03*
X174000000Y-114070000D03*
X174000000Y-113570000D03*
X174000000Y-113070000D03*
X174000000Y-112570000D03*
X174000000Y-112070000D03*
X174000000Y-111570000D03*
X174000000Y-111070000D03*
X174000000Y-110570000D03*
X174000000Y-110070000D03*
X174000000Y-109570000D03*
X174000000Y-109070000D03*
%TD*%
D15*
%TO.C,C63*%
X139820000Y-91460000D03*
X138860000Y-91460000D03*
%TD*%
D23*
%TO.C,R50*%
X153390000Y-107660000D03*
X153390000Y-106640000D03*
%TD*%
D19*
%TO.C,C104*%
X156270000Y-130830000D03*
X157230000Y-130830000D03*
%TD*%
D14*
%TO.C,R9*%
X132950000Y-83830000D03*
X133970000Y-83830000D03*
%TD*%
D19*
%TO.C,C45*%
X140590000Y-78150000D03*
X141550000Y-78150000D03*
%TD*%
D14*
%TO.C,R19*%
X142550000Y-73460000D03*
X143570000Y-73460000D03*
%TD*%
D24*
%TO.C,J9*%
X177500000Y-140815000D03*
X170500000Y-140815000D03*
X177500000Y-137415000D03*
X170500000Y-133615000D03*
X170500000Y-131415000D03*
X177500000Y-131915000D03*
%TD*%
D15*
%TO.C,C2*%
X120600000Y-63240000D03*
X119640000Y-63240000D03*
%TD*%
D18*
%TO.C,R10*%
X116140000Y-71985000D03*
X116140000Y-70335000D03*
%TD*%
D15*
%TO.C,C64*%
X139330000Y-98190000D03*
X138370000Y-98190000D03*
%TD*%
D13*
%TO.C,R34*%
X131180000Y-92275000D03*
X131180000Y-93925000D03*
%TD*%
D19*
%TO.C,C12*%
X135940000Y-80760000D03*
X136900000Y-80760000D03*
%TD*%
D25*
%TO.C,C6*%
X112140000Y-66697500D03*
X112140000Y-63622500D03*
%TD*%
D14*
%TO.C,R20*%
X140760000Y-81000000D03*
X141780000Y-81000000D03*
%TD*%
D10*
%TO.C,R21*%
X143520000Y-82370000D03*
X142500000Y-82370000D03*
%TD*%
D13*
%TO.C,R35*%
X125870000Y-89135000D03*
X125870000Y-90785000D03*
%TD*%
D23*
%TO.C,R49*%
X146860000Y-110800000D03*
X146860000Y-109780000D03*
%TD*%
D13*
%TO.C,R36*%
X129520000Y-90725000D03*
X129520000Y-92375000D03*
%TD*%
D17*
%TO.C,C13*%
X135470000Y-86030000D03*
X135470000Y-85070000D03*
%TD*%
D26*
%TO.C,C81*%
X143500000Y-107780000D03*
X143500000Y-108740000D03*
%TD*%
D27*
%TO.C,D17*%
X154440000Y-107640000D03*
D28*
X154440000Y-108388500D03*
%TD*%
D26*
%TO.C,C78*%
X145940000Y-106990000D03*
X145940000Y-107950000D03*
%TD*%
D17*
%TO.C,C51*%
X145960000Y-83460000D03*
X145960000Y-82500000D03*
%TD*%
D15*
%TO.C,C16*%
X118720000Y-75260000D03*
X117760000Y-75260000D03*
%TD*%
D26*
%TO.C,C4*%
X122340000Y-53730000D03*
X122340000Y-54690000D03*
%TD*%
D15*
%TO.C,C65*%
X139720000Y-92860000D03*
X138760000Y-92860000D03*
%TD*%
D29*
%TO.C,U10*%
X191140000Y-106310000D03*
X191140000Y-105810000D03*
X191140000Y-105310000D03*
X191140000Y-104810000D03*
X191140000Y-104310000D03*
X191140000Y-103810000D03*
X191140000Y-103310000D03*
X191140000Y-102810000D03*
X191140000Y-102310000D03*
X191140000Y-101810000D03*
X191140000Y-101310000D03*
X191140000Y-100810000D03*
X191140000Y-100310000D03*
X191140000Y-99810000D03*
X191140000Y-99310000D03*
X191140000Y-98810000D03*
X191140000Y-98310000D03*
X191140000Y-97810000D03*
X191140000Y-97310000D03*
X191140000Y-96810000D03*
X191140000Y-96310000D03*
X191140000Y-95810000D03*
X191140000Y-95310000D03*
X191140000Y-94810000D03*
X191140000Y-94310000D03*
X191140000Y-93810000D03*
X191140000Y-93310000D03*
X191140000Y-92810000D03*
X191140000Y-92310000D03*
X191140000Y-91810000D03*
X191140000Y-91310000D03*
X191140000Y-90810000D03*
X191140000Y-90310000D03*
X191140000Y-89810000D03*
X191140000Y-89310000D03*
X191140000Y-88810000D03*
X191140000Y-88310000D03*
X191140000Y-87810000D03*
X191140000Y-87310000D03*
X191140000Y-86810000D03*
D30*
X194390000Y-84910000D03*
X194390000Y-108210000D03*
%TD*%
D12*
%TO.C,R1*%
X123640000Y-53700000D03*
X123640000Y-54720000D03*
%TD*%
D19*
%TO.C,C20*%
X127130000Y-69000000D03*
X128090000Y-69000000D03*
%TD*%
D16*
%TO.C,SW8*%
X166150000Y-142700000D03*
X159850000Y-142700000D03*
X166150000Y-138900000D03*
X159850000Y-138900000D03*
%TD*%
D10*
%TO.C,R15*%
X139400000Y-87990000D03*
X138380000Y-87990000D03*
%TD*%
D31*
%TO.C,L3*%
X128320000Y-77245000D03*
X128320000Y-80295000D03*
%TD*%
D32*
%TO.C,J1*%
X136906000Y-56627000D03*
X136906000Y-51577000D03*
X139446000Y-56627000D03*
X139446000Y-51577000D03*
X141986000Y-56627000D03*
X141986000Y-51577000D03*
X144526000Y-56627000D03*
X144526000Y-51577000D03*
X147066000Y-56627000D03*
X147066000Y-51577000D03*
X149606000Y-56627000D03*
X149606000Y-51577000D03*
X152146000Y-56627000D03*
X152146000Y-51577000D03*
X154686000Y-56627000D03*
X154686000Y-51577000D03*
X157226000Y-56627000D03*
X157226000Y-51577000D03*
X159766000Y-56627000D03*
X159766000Y-51577000D03*
X162306000Y-56627000D03*
X162306000Y-51577000D03*
X164846000Y-56627000D03*
X164846000Y-51577000D03*
X167386000Y-56627000D03*
X167386000Y-51577000D03*
X169926000Y-56627000D03*
X169926000Y-51577000D03*
X172466000Y-56627000D03*
X172466000Y-51577000D03*
X175006000Y-56627000D03*
X175006000Y-51577000D03*
%TD*%
D17*
%TO.C,C52*%
X150040000Y-86140000D03*
X150040000Y-85180000D03*
%TD*%
%TO.C,C28*%
X120640000Y-65240000D03*
X120640000Y-64280000D03*
%TD*%
D12*
%TO.C,R22*%
X150440000Y-79870000D03*
X150440000Y-80890000D03*
%TD*%
D33*
%TO.C,J4*%
X103602500Y-62760000D03*
X103602500Y-63410000D03*
X103602500Y-64060000D03*
X103602500Y-64710000D03*
X103602500Y-65360000D03*
D34*
X100902500Y-65060000D03*
X100902500Y-63060000D03*
%TD*%
D35*
%TO.C,Y2*%
X142310000Y-70855000D03*
X142310000Y-67605000D03*
%TD*%
D12*
%TO.C,R23*%
X151520000Y-79880000D03*
X151520000Y-80900000D03*
%TD*%
D19*
%TO.C,C5*%
X106770000Y-63580000D03*
X107730000Y-63580000D03*
%TD*%
D26*
%TO.C,C103*%
X157700000Y-132520000D03*
X157700000Y-133480000D03*
%TD*%
D31*
%TO.C,L2*%
X131550000Y-71795000D03*
X131550000Y-74845000D03*
%TD*%
D15*
%TO.C,C30*%
X130500000Y-67000000D03*
X129540000Y-67000000D03*
%TD*%
D36*
%TO.C,D11*%
X195232500Y-75190000D03*
X196807500Y-75190000D03*
%TD*%
D37*
%TO.C,D9*%
X187490000Y-77960000D03*
X184190000Y-77960000D03*
%TD*%
D17*
%TO.C,C21*%
X136650000Y-86020000D03*
X136650000Y-85060000D03*
%TD*%
D38*
%TO.C,J6*%
X104880000Y-114300000D03*
X105280000Y-113200000D03*
X104880000Y-112100000D03*
X104680000Y-111000000D03*
X104880000Y-109900000D03*
X104680000Y-108800000D03*
X104880000Y-107700000D03*
X104880000Y-106600000D03*
D39*
X115740000Y-107410000D03*
X115740000Y-113110000D03*
D40*
X102590000Y-105810000D03*
X101590000Y-118960000D03*
D41*
X115940000Y-108800000D03*
%TD*%
D33*
%TO.C,J5*%
X195277500Y-66560000D03*
X195277500Y-65910000D03*
X195277500Y-65260000D03*
X195277500Y-64610000D03*
X195277500Y-63960000D03*
D34*
X197977500Y-64260000D03*
X197977500Y-66260000D03*
%TD*%
D17*
%TO.C,C90*%
X142510000Y-107080000D03*
X142510000Y-106120000D03*
%TD*%
D15*
%TO.C,C66*%
X138570000Y-102000000D03*
X137610000Y-102000000D03*
%TD*%
D27*
%TO.C,D19*%
X153310000Y-108850000D03*
D28*
X153310000Y-109598500D03*
%TD*%
D27*
%TO.C,D18*%
X152340000Y-110940000D03*
D28*
X152340000Y-111688500D03*
%TD*%
D26*
%TO.C,C9*%
X121080000Y-77870000D03*
X121080000Y-78830000D03*
%TD*%
D19*
%TO.C,C53*%
X140560000Y-79130000D03*
X141520000Y-79130000D03*
%TD*%
D26*
%TO.C,C101*%
X134300000Y-115620000D03*
X134300000Y-116580000D03*
%TD*%
D24*
%TO.C,U7*%
X178680000Y-70520000D03*
D42*
X172380000Y-68220000D03*
D24*
X178680000Y-68220000D03*
X178680000Y-65920000D03*
%TD*%
D43*
%TO.C,U2*%
X124940000Y-72590000D03*
X124940000Y-72190000D03*
X124940000Y-71790000D03*
X124940000Y-71390000D03*
X124940000Y-70990000D03*
X124940000Y-70590000D03*
X124940000Y-70190000D03*
X124940000Y-69790000D03*
X124940000Y-69390000D03*
X124940000Y-68990000D03*
X124940000Y-68590000D03*
X124940000Y-68190000D03*
D44*
X124140000Y-67390000D03*
X123740000Y-67390000D03*
X123340000Y-67390000D03*
X122940000Y-67390000D03*
X122540000Y-67390000D03*
X122140000Y-67390000D03*
X121740000Y-67390000D03*
X121340000Y-67390000D03*
X120940000Y-67390000D03*
X120540000Y-67390000D03*
X120140000Y-67390000D03*
X119740000Y-67390000D03*
D43*
X118940000Y-68190000D03*
X118940000Y-68590000D03*
X118940000Y-68990000D03*
X118940000Y-69390000D03*
X118940000Y-69790000D03*
X118940000Y-70190000D03*
X118940000Y-70590000D03*
X118940000Y-70990000D03*
X118940000Y-71390000D03*
X118940000Y-71790000D03*
X118940000Y-72190000D03*
X118940000Y-72590000D03*
D44*
X119740000Y-73390000D03*
X120140000Y-73390000D03*
X120540000Y-73390000D03*
X120940000Y-73390000D03*
X121340000Y-73390000D03*
X121740000Y-73390000D03*
X122140000Y-73390000D03*
X122540000Y-73390000D03*
X122940000Y-73390000D03*
X123340000Y-73390000D03*
X123740000Y-73390000D03*
X124140000Y-73390000D03*
%TD*%
D26*
%TO.C,C87*%
X150520000Y-108770000D03*
X150520000Y-109730000D03*
%TD*%
D19*
%TO.C,C67*%
X134190000Y-92570000D03*
X135150000Y-92570000D03*
%TD*%
D26*
%TO.C,C15*%
X137230000Y-73990000D03*
X137230000Y-74950000D03*
%TD*%
%TO.C,C68*%
X137200000Y-96350000D03*
X137200000Y-97310000D03*
%TD*%
D45*
%TO.C,R13*%
X124330000Y-79307500D03*
X124330000Y-82232500D03*
%TD*%
D36*
%TO.C,D2*%
X105352500Y-72150000D03*
X106927500Y-72150000D03*
%TD*%
D15*
%TO.C,C11*%
X126720000Y-74860000D03*
X125760000Y-74860000D03*
%TD*%
D12*
%TO.C,R59*%
X168000000Y-141690000D03*
X168000000Y-142710000D03*
%TD*%
%TO.C,R3*%
X117840000Y-57250000D03*
X117840000Y-58270000D03*
%TD*%
D46*
%TO.C,L4*%
X126885000Y-84760000D03*
X129935000Y-84760000D03*
%TD*%
D17*
%TO.C,C37*%
X147240000Y-86540000D03*
X147240000Y-85580000D03*
%TD*%
D27*
%TO.C,D12*%
X120340000Y-104040000D03*
D28*
X120340000Y-104788500D03*
%TD*%
D36*
%TO.C,D3*%
X105322500Y-70030000D03*
X106897500Y-70030000D03*
%TD*%
D19*
%TO.C,C86*%
X159840000Y-92580000D03*
X160800000Y-92580000D03*
%TD*%
D23*
%TO.C,R11*%
X132890000Y-86070000D03*
X132890000Y-85050000D03*
%TD*%
D10*
%TO.C,R56*%
X191040000Y-111930000D03*
X190020000Y-111930000D03*
%TD*%
D23*
%TO.C,R51*%
X159990000Y-104620000D03*
X159990000Y-103600000D03*
%TD*%
%TO.C,R18*%
X156590000Y-71320000D03*
X156590000Y-70300000D03*
%TD*%
D31*
%TO.C,L5*%
X185940000Y-83710000D03*
X185940000Y-80660000D03*
%TD*%
D19*
%TO.C,C8*%
X127130000Y-67980000D03*
X128090000Y-67980000D03*
%TD*%
D23*
%TO.C,R4*%
X192840000Y-63470000D03*
X192840000Y-62450000D03*
%TD*%
D17*
%TO.C,C39*%
X141140000Y-87150000D03*
X141140000Y-86190000D03*
%TD*%
D19*
%TO.C,C83*%
X155960000Y-107460000D03*
X156920000Y-107460000D03*
%TD*%
D26*
%TO.C,C17*%
X114490000Y-70190000D03*
X114490000Y-71150000D03*
%TD*%
%TO.C,C40*%
X139940000Y-85950000D03*
X139940000Y-86910000D03*
%TD*%
D47*
%TO.C,U11*%
X121437500Y-120750000D03*
X121437500Y-119800000D03*
X121437500Y-118850000D03*
X119162500Y-118850000D03*
X119162500Y-119800000D03*
X119162500Y-120750000D03*
%TD*%
D23*
%TO.C,R57*%
X122720000Y-117090000D03*
X122720000Y-116070000D03*
%TD*%
D10*
%TO.C,R27*%
X177450000Y-83485000D03*
X176430000Y-83485000D03*
%TD*%
D26*
%TO.C,C79*%
X148330000Y-106720000D03*
X148330000Y-107680000D03*
%TD*%
D48*
%TO.C,U5*%
X169680000Y-74645000D03*
X169680000Y-75915000D03*
X169680000Y-77185000D03*
X169680000Y-78455000D03*
X176880000Y-78455000D03*
X176880000Y-77185000D03*
X176880000Y-75915000D03*
X176880000Y-74645000D03*
%TD*%
D49*
%TO.C,Y1*%
X138730000Y-73390000D03*
X138730000Y-75590000D03*
X140430000Y-75590000D03*
X140430000Y-73390000D03*
%TD*%
D16*
%TO.C,SW3*%
X158350000Y-71800000D03*
X164650000Y-71800000D03*
X164650000Y-75600000D03*
X158350000Y-75600000D03*
%TD*%
%TO.C,SW5*%
X125500000Y-142700000D03*
X131800000Y-142700000D03*
X125500000Y-138900000D03*
X131800000Y-138900000D03*
%TD*%
D50*
%TO.C,R37*%
X127805000Y-94710000D03*
X129455000Y-94710000D03*
%TD*%
D27*
%TO.C,D13*%
X120335000Y-113335000D03*
D28*
X120335000Y-114083500D03*
%TD*%
D19*
%TO.C,C82*%
X161760000Y-90860000D03*
X162720000Y-90860000D03*
%TD*%
D10*
%TO.C,R28*%
X170790000Y-72900000D03*
X169770000Y-72900000D03*
%TD*%
D51*
%TO.C,U13*%
X141820000Y-115040000D03*
X139520000Y-115040000D03*
D52*
X139520000Y-121340000D03*
D51*
X137220000Y-115040000D03*
%TD*%
D12*
%TO.C,R48*%
X150360000Y-111930000D03*
X150360000Y-112950000D03*
%TD*%
D16*
%TO.C,SW7*%
X148850000Y-142700000D03*
X155150000Y-142700000D03*
X148850000Y-138900000D03*
X155150000Y-138900000D03*
%TD*%
D18*
%TO.C,R32*%
X102640000Y-99485000D03*
X102640000Y-97835000D03*
%TD*%
D15*
%TO.C,C36*%
X140410000Y-67595000D03*
X139450000Y-67595000D03*
%TD*%
D14*
%TO.C,R61*%
X191973750Y-126530000D03*
X192993750Y-126530000D03*
%TD*%
D53*
%TO.C,R66*%
X157225000Y-127400000D03*
X155575000Y-127400000D03*
%TD*%
D15*
%TO.C,C38*%
X140440000Y-70845000D03*
X139480000Y-70845000D03*
%TD*%
D54*
%TO.C,C99*%
X192300000Y-124275000D03*
X192300000Y-122725000D03*
%TD*%
D23*
%TO.C,R39*%
X122740000Y-107070000D03*
X122740000Y-106050000D03*
%TD*%
D27*
%TO.C,D14*%
X120355000Y-106065000D03*
D28*
X120355000Y-106813500D03*
%TD*%
D19*
%TO.C,C80*%
X159860000Y-95460000D03*
X160820000Y-95460000D03*
%TD*%
D26*
%TO.C,C47*%
X145570000Y-67630000D03*
X145570000Y-68590000D03*
%TD*%
D19*
%TO.C,C89*%
X156550000Y-106220000D03*
X157510000Y-106220000D03*
%TD*%
D55*
%TO.C,D20*%
X106535000Y-120615000D03*
D56*
X107283500Y-120615000D03*
%TD*%
D57*
%TO.C,U3*%
X145297500Y-70780000D03*
X145297500Y-71280000D03*
X145297500Y-71780000D03*
X145297500Y-72280000D03*
X145297500Y-72780000D03*
X145297500Y-73280000D03*
X145297500Y-73780000D03*
X145297500Y-74280000D03*
X145297500Y-74780000D03*
X145297500Y-75280000D03*
X145297500Y-75780000D03*
X145297500Y-76280000D03*
D58*
X146710000Y-77692500D03*
X147210000Y-77692500D03*
X147710000Y-77692500D03*
X148210000Y-77692500D03*
X148710000Y-77692500D03*
X149210000Y-77692500D03*
X149710000Y-77692500D03*
X150210000Y-77692500D03*
X150710000Y-77692500D03*
X151210000Y-77692500D03*
X151710000Y-77692500D03*
X152210000Y-77692500D03*
D57*
X153622500Y-76280000D03*
X153622500Y-75780000D03*
X153622500Y-75280000D03*
X153622500Y-74780000D03*
X153622500Y-74280000D03*
X153622500Y-73780000D03*
X153622500Y-73280000D03*
X153622500Y-72780000D03*
X153622500Y-72280000D03*
X153622500Y-71780000D03*
X153622500Y-71280000D03*
X153622500Y-70780000D03*
D58*
X152210000Y-69367500D03*
X151710000Y-69367500D03*
X151210000Y-69367500D03*
X150710000Y-69367500D03*
X150210000Y-69367500D03*
X149710000Y-69367500D03*
X149210000Y-69367500D03*
X148710000Y-69367500D03*
X148210000Y-69367500D03*
X147710000Y-69367500D03*
X147210000Y-69367500D03*
X146710000Y-69367500D03*
%TD*%
D59*
%TO.C,C102*%
X157475000Y-124700000D03*
X155925000Y-124700000D03*
%TD*%
D14*
%TO.C,R30*%
X192760000Y-75940000D03*
X193780000Y-75940000D03*
%TD*%
D26*
%TO.C,C77*%
X151630000Y-108790000D03*
X151630000Y-109750000D03*
%TD*%
D17*
%TO.C,C108*%
X155900000Y-123180000D03*
X155900000Y-122220000D03*
%TD*%
D23*
%TO.C,R40*%
X122740000Y-105070000D03*
X122740000Y-104050000D03*
%TD*%
D36*
%TO.C,D4*%
X105352500Y-76160000D03*
X106927500Y-76160000D03*
%TD*%
D10*
%TO.C,R55*%
X188940000Y-111330000D03*
X187920000Y-111330000D03*
%TD*%
D54*
%TO.C,C58*%
X179042500Y-74525000D03*
X179042500Y-72975000D03*
%TD*%
D10*
%TO.C,R63*%
X147010000Y-142700000D03*
X145990000Y-142700000D03*
%TD*%
D23*
%TO.C,R41*%
X122730000Y-114350000D03*
X122730000Y-113330000D03*
%TD*%
D26*
%TO.C,C70*%
X125870000Y-92180000D03*
X125870000Y-93140000D03*
%TD*%
D60*
%TO.C,L6*%
X107315000Y-102460000D03*
X104165000Y-102460000D03*
%TD*%
D26*
%TO.C,C24*%
X121640000Y-65080000D03*
X121640000Y-66040000D03*
%TD*%
D15*
%TO.C,C29*%
X116320000Y-66660000D03*
X115360000Y-66660000D03*
%TD*%
D13*
%TO.C,R6*%
X108910000Y-71835000D03*
X108910000Y-73485000D03*
%TD*%
D61*
%TO.C,D7*%
X144830000Y-81257500D03*
X144830000Y-79682500D03*
%TD*%
D62*
%TO.C,U6*%
X181790000Y-81247500D03*
X180840000Y-81247500D03*
X179890000Y-81247500D03*
X179890000Y-83522500D03*
X180840000Y-83522500D03*
X181790000Y-83522500D03*
%TD*%
D19*
%TO.C,C22*%
X115960000Y-68860000D03*
X116920000Y-68860000D03*
%TD*%
%TO.C,C94*%
X178590000Y-113070000D03*
X179550000Y-113070000D03*
%TD*%
D17*
%TO.C,C14*%
X114540000Y-69040000D03*
X114540000Y-68080000D03*
%TD*%
D27*
%TO.C,D15*%
X120330000Y-110880000D03*
D28*
X120330000Y-111628500D03*
%TD*%
D53*
%TO.C,R29*%
X176165000Y-81585000D03*
X174515000Y-81585000D03*
%TD*%
D19*
%TO.C,C7*%
X106760000Y-64660000D03*
X107720000Y-64660000D03*
%TD*%
D46*
%TO.C,L7*%
X189608750Y-119830000D03*
X186558750Y-119830000D03*
%TD*%
D14*
%TO.C,R17*%
X148200000Y-81260000D03*
X149220000Y-81260000D03*
%TD*%
D63*
%TO.C,FB1*%
X143020000Y-77537500D03*
X143020000Y-79362500D03*
%TD*%
D23*
%TO.C,R60*%
X171210000Y-120910000D03*
X171210000Y-119890000D03*
%TD*%
D64*
%TO.C,FB2*%
X192752500Y-67060000D03*
X190927500Y-67060000D03*
%TD*%
D15*
%TO.C,C34*%
X116620000Y-74760000D03*
X115660000Y-74760000D03*
%TD*%
D17*
%TO.C,C33*%
X131680000Y-86060000D03*
X131680000Y-85100000D03*
%TD*%
D65*
%TO.C,U12*%
X186946250Y-124580000D03*
X186946250Y-125530000D03*
X186946250Y-126480000D03*
X189221250Y-126480000D03*
X189221250Y-125530000D03*
X189221250Y-124580000D03*
%TD*%
D66*
%TO.C,D32*%
X152800000Y-118250000D03*
X152800000Y-120350000D03*
%TD*%
D19*
%TO.C,C55*%
X182060000Y-85085000D03*
X183020000Y-85085000D03*
%TD*%
D67*
%TO.C,RN1*%
X162130000Y-118100000D03*
X162130000Y-117600000D03*
X162130000Y-117100000D03*
X162130000Y-116600000D03*
X161130000Y-116600000D03*
X161130000Y-117100000D03*
X161130000Y-117600000D03*
X161130000Y-118100000D03*
%TD*%
D19*
%TO.C,C105*%
X157020000Y-129600000D03*
X157980000Y-129600000D03*
%TD*%
D26*
%TO.C,C56*%
X181200000Y-68970000D03*
X181200000Y-69930000D03*
%TD*%
D12*
%TO.C,R14*%
X131890000Y-76500000D03*
X131890000Y-77520000D03*
%TD*%
D27*
%TO.C,D22*%
X150345000Y-114115000D03*
D28*
X150345000Y-114863500D03*
%TD*%
D17*
%TO.C,C19*%
X119880000Y-78830000D03*
X119880000Y-77870000D03*
%TD*%
D10*
%TO.C,R12*%
X116950000Y-67760000D03*
X115930000Y-67760000D03*
%TD*%
D65*
%TO.C,U1*%
X132102500Y-78850000D03*
X132102500Y-79800000D03*
X132102500Y-80750000D03*
X134377500Y-80750000D03*
X134377500Y-78850000D03*
%TD*%
D12*
%TO.C,R26*%
X185140000Y-68750000D03*
X185140000Y-69770000D03*
%TD*%
D26*
%TO.C,C59*%
X190940000Y-70080000D03*
X190940000Y-71040000D03*
%TD*%
D61*
%TO.C,D8*%
X146790000Y-81257500D03*
X146790000Y-79682500D03*
%TD*%
D19*
%TO.C,C106*%
X148220000Y-122100000D03*
X149180000Y-122100000D03*
%TD*%
D17*
%TO.C,C96*%
X156300000Y-114980000D03*
X156300000Y-114020000D03*
%TD*%
D23*
%TO.C,R42*%
X135840000Y-106970000D03*
X135840000Y-105950000D03*
%TD*%
D15*
%TO.C,C95*%
X104670000Y-120630000D03*
X103710000Y-120630000D03*
%TD*%
D53*
%TO.C,R62*%
X135625000Y-142700000D03*
X133975000Y-142700000D03*
%TD*%
D63*
%TO.C,R2*%
X116540000Y-61947500D03*
X116540000Y-63772500D03*
%TD*%
D15*
%TO.C,C73*%
X138930000Y-99270000D03*
X137970000Y-99270000D03*
%TD*%
%TO.C,C74*%
X139470000Y-96900000D03*
X138510000Y-96900000D03*
%TD*%
D19*
%TO.C,C10*%
X128510000Y-70070000D03*
X129470000Y-70070000D03*
%TD*%
D15*
%TO.C,C75*%
X139390000Y-89030000D03*
X138430000Y-89030000D03*
%TD*%
D35*
%TO.C,Y4*%
X137840000Y-104835000D03*
X137840000Y-108085000D03*
%TD*%
D10*
%TO.C,R54*%
X188940000Y-112630000D03*
X187920000Y-112630000D03*
%TD*%
D19*
%TO.C,C84*%
X160360000Y-98560000D03*
X161320000Y-98560000D03*
%TD*%
%TO.C,C61*%
X106420000Y-99460000D03*
X107380000Y-99460000D03*
%TD*%
D17*
%TO.C,C43*%
X153640000Y-87040000D03*
X153640000Y-86080000D03*
%TD*%
D36*
%TO.C,D1*%
X105352500Y-78160000D03*
X106927500Y-78160000D03*
%TD*%
D15*
%TO.C,C85*%
X161710000Y-113050000D03*
X160750000Y-113050000D03*
%TD*%
D26*
%TO.C,C110*%
X144500000Y-120320000D03*
X144500000Y-121280000D03*
%TD*%
D23*
%TO.C,R44*%
X122740000Y-111890000D03*
X122740000Y-110870000D03*
%TD*%
D26*
%TO.C,C42*%
X144400000Y-68790000D03*
X144400000Y-69750000D03*
%TD*%
D16*
%TO.C,SW1*%
X131990000Y-54710000D03*
X125690000Y-54710000D03*
X131990000Y-50910000D03*
X125690000Y-50910000D03*
%TD*%
D17*
%TO.C,C44*%
X148480000Y-86100000D03*
X148480000Y-85140000D03*
%TD*%
D13*
%TO.C,R46*%
X124190000Y-89135000D03*
X124190000Y-90785000D03*
%TD*%
D15*
%TO.C,C62*%
X136120000Y-108060000D03*
X135160000Y-108060000D03*
%TD*%
D17*
%TO.C,C57*%
X180702500Y-74540000D03*
X180702500Y-73580000D03*
%TD*%
D19*
%TO.C,C25*%
X127160000Y-64760000D03*
X128120000Y-64760000D03*
%TD*%
D27*
%TO.C,D21*%
X120350000Y-116060000D03*
D28*
X120350000Y-116808500D03*
%TD*%
D19*
%TO.C,C26*%
X127160000Y-65860000D03*
X128120000Y-65860000D03*
%TD*%
D15*
%TO.C,C46*%
X140420000Y-77220000D03*
X139460000Y-77220000D03*
%TD*%
D59*
%TO.C,C27*%
X117015000Y-73460000D03*
X115465000Y-73460000D03*
%TD*%
D46*
%TO.C,L1*%
X122415000Y-62060000D03*
X125465000Y-62060000D03*
%TD*%
D19*
%TO.C,C97*%
X178650000Y-114560000D03*
X179610000Y-114560000D03*
%TD*%
D12*
%TO.C,R16*%
X138900000Y-85870000D03*
X138900000Y-86890000D03*
%TD*%
D68*
%TO.C,C93*%
X187570000Y-106100000D03*
X184770000Y-106100000D03*
%TD*%
D17*
%TO.C,C48*%
X142900000Y-87100000D03*
X142900000Y-86140000D03*
%TD*%
D16*
%TO.C,SW4*%
X164650000Y-68900000D03*
X158350000Y-68900000D03*
X164650000Y-65100000D03*
X158350000Y-65100000D03*
%TD*%
D14*
%TO.C,R53*%
X187610000Y-90950000D03*
X188630000Y-90950000D03*
%TD*%
D37*
%TO.C,D6*%
X118540000Y-78140000D03*
X115240000Y-78140000D03*
%TD*%
D26*
%TO.C,C23*%
X127840000Y-71980000D03*
X127840000Y-72940000D03*
%TD*%
D19*
%TO.C,C107*%
X148520000Y-135590000D03*
X149480000Y-135590000D03*
%TD*%
D15*
%TO.C,C69*%
X138830000Y-90430000D03*
X137870000Y-90430000D03*
%TD*%
D50*
%TO.C,R38*%
X135015000Y-91260000D03*
X136665000Y-91260000D03*
%TD*%
D69*
%TO.C,Y3*%
X135370000Y-95645000D03*
X135370000Y-93895000D03*
X133970000Y-93895000D03*
X133970000Y-95645000D03*
%TD*%
D17*
%TO.C,C50*%
X145110000Y-86260000D03*
X145110000Y-85300000D03*
%TD*%
D10*
%TO.C,R7*%
X109250000Y-78160000D03*
X108230000Y-78160000D03*
%TD*%
D26*
%TO.C,C98*%
X168670000Y-119260000D03*
X168670000Y-120220000D03*
%TD*%
D19*
%TO.C,C1*%
X106760000Y-62490000D03*
X107720000Y-62490000D03*
%TD*%
D12*
%TO.C,R24*%
X179360000Y-76680000D03*
X179360000Y-77700000D03*
%TD*%
D17*
%TO.C,C100*%
X190900000Y-124480000D03*
X190900000Y-123520000D03*
%TD*%
D26*
%TO.C,C88*%
X147300000Y-106730000D03*
X147300000Y-107690000D03*
%TD*%
%TO.C,C31*%
X123940000Y-75380000D03*
X123940000Y-76340000D03*
%TD*%
D15*
%TO.C,C71*%
X136120000Y-104760000D03*
X135160000Y-104760000D03*
%TD*%
D17*
%TO.C,C32*%
X121330000Y-76240000D03*
X121330000Y-75280000D03*
%TD*%
D70*
%TO.C,C54*%
X182265000Y-86485000D03*
X183815000Y-86485000D03*
%TD*%
D10*
%TO.C,R43*%
X138350000Y-103060000D03*
X137330000Y-103060000D03*
%TD*%
D26*
%TO.C,C109*%
X157100000Y-122220000D03*
X157100000Y-123180000D03*
%TD*%
D15*
%TO.C,C72*%
X135150000Y-97070000D03*
X134190000Y-97070000D03*
%TD*%
D27*
%TO.C,D16*%
X120340000Y-108540000D03*
D28*
X120340000Y-109288500D03*
%TD*%
D71*
%TO.C,D23*%
X182900000Y-115960000D03*
X182900000Y-119260000D03*
%TD*%
D23*
%TO.C,R25*%
X183940000Y-69770000D03*
X183940000Y-68750000D03*
%TD*%
D19*
%TO.C,C91*%
X159890000Y-94440000D03*
X160850000Y-94440000D03*
%TD*%
D10*
%TO.C,R8*%
X109540000Y-69540000D03*
X108520000Y-69540000D03*
%TD*%
D36*
%TO.C,D10*%
X195212500Y-72440000D03*
X196787500Y-72440000D03*
%TD*%
%TO.C,D5*%
X105352500Y-74160000D03*
X106927500Y-74160000D03*
%TD*%
D72*
%TO.C,C60*%
X190940000Y-80185000D03*
X190940000Y-77385000D03*
%TD*%
D18*
%TO.C,R33*%
X105140000Y-99485000D03*
X105140000Y-97835000D03*
%TD*%
D17*
%TO.C,C92*%
X171340000Y-104700000D03*
X171340000Y-103740000D03*
%TD*%
D23*
%TO.C,R47*%
X152370000Y-107700000D03*
X152370000Y-106680000D03*
%TD*%
D26*
%TO.C,C35*%
X120300000Y-75280000D03*
X120300000Y-76240000D03*
%TD*%
D50*
%TO.C,R45*%
X128845000Y-96430000D03*
X130495000Y-96430000D03*
%TD*%
D16*
%TO.C,SW6*%
X137800000Y-142700000D03*
X144100000Y-142700000D03*
X137800000Y-138900000D03*
X144100000Y-138900000D03*
%TD*%
D17*
%TO.C,C49*%
X153480000Y-79280000D03*
X153480000Y-78320000D03*
%TD*%
D73*
%TO.C,U8*%
X157240000Y-102860000D03*
X157240000Y-102460000D03*
X157240000Y-102060000D03*
X157240000Y-101660000D03*
X157240000Y-101260000D03*
X157240000Y-100860000D03*
X157240000Y-100460000D03*
X157240000Y-100060000D03*
X157240000Y-99660000D03*
X157240000Y-99260000D03*
X157240000Y-98860000D03*
X157240000Y-98460000D03*
X157240000Y-98060000D03*
X157240000Y-97660000D03*
X157240000Y-97260000D03*
X157240000Y-96860000D03*
X157240000Y-96460000D03*
X157240000Y-96060000D03*
X157240000Y-95660000D03*
X157240000Y-95260000D03*
X157240000Y-94860000D03*
X157240000Y-94460000D03*
X157240000Y-94060000D03*
X157240000Y-93660000D03*
X157240000Y-93260000D03*
X157240000Y-92860000D03*
X157240000Y-92460000D03*
X157240000Y-92060000D03*
X157240000Y-91660000D03*
X157240000Y-91260000D03*
X157240000Y-90860000D03*
X157240000Y-90460000D03*
D74*
X155640000Y-88860000D03*
X155240000Y-88860000D03*
X154840000Y-88860000D03*
X154440000Y-88860000D03*
X154040000Y-88860000D03*
X153640000Y-88860000D03*
X153240000Y-88860000D03*
X152840000Y-88860000D03*
X152440000Y-88860000D03*
X152040000Y-88860000D03*
X151640000Y-88860000D03*
X151240000Y-88860000D03*
X150840000Y-88860000D03*
X150440000Y-88860000D03*
X150040000Y-88860000D03*
X149640000Y-88860000D03*
X149240000Y-88860000D03*
X148840000Y-88860000D03*
X148440000Y-88860000D03*
X148040000Y-88860000D03*
X147640000Y-88860000D03*
X147240000Y-88860000D03*
X146840000Y-88860000D03*
X146440000Y-88860000D03*
X146040000Y-88860000D03*
X145640000Y-88860000D03*
X145240000Y-88860000D03*
X144840000Y-88860000D03*
X144440000Y-88860000D03*
X144040000Y-88860000D03*
X143640000Y-88860000D03*
X143240000Y-88860000D03*
D73*
X141640000Y-90460000D03*
X141640000Y-90860000D03*
X141640000Y-91260000D03*
X141640000Y-91660000D03*
X141640000Y-92060000D03*
X141640000Y-92460000D03*
X141640000Y-92860000D03*
X141640000Y-93260000D03*
X141640000Y-93660000D03*
X141640000Y-94060000D03*
X141640000Y-94460000D03*
X141640000Y-94860000D03*
X141640000Y-95260000D03*
X141640000Y-95660000D03*
X141640000Y-96060000D03*
X141640000Y-96460000D03*
X141640000Y-96860000D03*
X141640000Y-97260000D03*
X141640000Y-97660000D03*
X141640000Y-98060000D03*
X141640000Y-98460000D03*
X141640000Y-98860000D03*
X141640000Y-99260000D03*
X141640000Y-99660000D03*
X141640000Y-100060000D03*
X141640000Y-100460000D03*
X141640000Y-100860000D03*
X141640000Y-101260000D03*
X141640000Y-101660000D03*
X141640000Y-102060000D03*
X141640000Y-102460000D03*
X141640000Y-102860000D03*
D74*
X143240000Y-104460000D03*
X143640000Y-104460000D03*
X144040000Y-104460000D03*
X144440000Y-104460000D03*
X144840000Y-104460000D03*
X145240000Y-104460000D03*
X145640000Y-104460000D03*
X146040000Y-104460000D03*
X146440000Y-104460000D03*
X146840000Y-104460000D03*
X147240000Y-104460000D03*
X147640000Y-104460000D03*
X148040000Y-104460000D03*
X148440000Y-104460000D03*
X148840000Y-104460000D03*
X149240000Y-104460000D03*
X149640000Y-104460000D03*
X150040000Y-104460000D03*
X150440000Y-104460000D03*
X150840000Y-104460000D03*
X151240000Y-104460000D03*
X151640000Y-104460000D03*
X152040000Y-104460000D03*
X152440000Y-104460000D03*
X152840000Y-104460000D03*
X153240000Y-104460000D03*
X153640000Y-104460000D03*
X154040000Y-104460000D03*
X154440000Y-104460000D03*
X154840000Y-104460000D03*
X155240000Y-104460000D03*
X155640000Y-104460000D03*
%TD*%
M02*
