%TF.GenerationSoftware,KiCad,Pcbnew,(6.0.8)*%
%TF.CreationDate,2023-03-24T20:25:16-04:00*%
%TF.ProjectId,lb_mp1,6c625f6d-7031-42e6-9b69-6361645f7063,rev?*%
%TF.SameCoordinates,Original*%
%TF.FileFunction,Legend,Bot*%
%TF.FilePolarity,Positive*%
%FSLAX46Y46*%
G04 Gerber Fmt 4.6, Leading zero omitted, Abs format (unit mm)*
G04 Created by KiCad (PCBNEW (6.0.8)) date 2023-03-24 20:25:16*
%MOMM*%
%LPD*%
G01*
G04 APERTURE LIST*
%ADD10C,0.125000*%
%ADD11C,0.120000*%
G04 APERTURE END LIST*
D10*
%TO.C,D27*%
X115116190Y-80702857D02*
X114616190Y-80702857D01*
X114616190Y-80821904D01*
X114640000Y-80893333D01*
X114687619Y-80940952D01*
X114735238Y-80964761D01*
X114830476Y-80988571D01*
X114901904Y-80988571D01*
X114997142Y-80964761D01*
X115044761Y-80940952D01*
X115092380Y-80893333D01*
X115116190Y-80821904D01*
X115116190Y-80702857D01*
X114663809Y-81179047D02*
X114640000Y-81202857D01*
X114616190Y-81250476D01*
X114616190Y-81369523D01*
X114640000Y-81417142D01*
X114663809Y-81440952D01*
X114711428Y-81464761D01*
X114759047Y-81464761D01*
X114830476Y-81440952D01*
X115116190Y-81155238D01*
X115116190Y-81464761D01*
X114616190Y-81631428D02*
X114616190Y-81964761D01*
X115116190Y-81750476D01*
%TO.C,D30*%
X165047142Y-130456190D02*
X165047142Y-129956190D01*
X164928095Y-129956190D01*
X164856666Y-129980000D01*
X164809047Y-130027619D01*
X164785238Y-130075238D01*
X164761428Y-130170476D01*
X164761428Y-130241904D01*
X164785238Y-130337142D01*
X164809047Y-130384761D01*
X164856666Y-130432380D01*
X164928095Y-130456190D01*
X165047142Y-130456190D01*
X164594761Y-129956190D02*
X164285238Y-129956190D01*
X164451904Y-130146666D01*
X164380476Y-130146666D01*
X164332857Y-130170476D01*
X164309047Y-130194285D01*
X164285238Y-130241904D01*
X164285238Y-130360952D01*
X164309047Y-130408571D01*
X164332857Y-130432380D01*
X164380476Y-130456190D01*
X164523333Y-130456190D01*
X164570952Y-130432380D01*
X164594761Y-130408571D01*
X163975714Y-129956190D02*
X163928095Y-129956190D01*
X163880476Y-129980000D01*
X163856666Y-130003809D01*
X163832857Y-130051428D01*
X163809047Y-130146666D01*
X163809047Y-130265714D01*
X163832857Y-130360952D01*
X163856666Y-130408571D01*
X163880476Y-130432380D01*
X163928095Y-130456190D01*
X163975714Y-130456190D01*
X164023333Y-130432380D01*
X164047142Y-130408571D01*
X164070952Y-130360952D01*
X164094761Y-130265714D01*
X164094761Y-130146666D01*
X164070952Y-130051428D01*
X164047142Y-130003809D01*
X164023333Y-129980000D01*
X163975714Y-129956190D01*
%TO.C,D25*%
X135047142Y-63316190D02*
X135047142Y-62816190D01*
X134928095Y-62816190D01*
X134856666Y-62840000D01*
X134809047Y-62887619D01*
X134785238Y-62935238D01*
X134761428Y-63030476D01*
X134761428Y-63101904D01*
X134785238Y-63197142D01*
X134809047Y-63244761D01*
X134856666Y-63292380D01*
X134928095Y-63316190D01*
X135047142Y-63316190D01*
X134570952Y-62863809D02*
X134547142Y-62840000D01*
X134499523Y-62816190D01*
X134380476Y-62816190D01*
X134332857Y-62840000D01*
X134309047Y-62863809D01*
X134285238Y-62911428D01*
X134285238Y-62959047D01*
X134309047Y-63030476D01*
X134594761Y-63316190D01*
X134285238Y-63316190D01*
X133832857Y-62816190D02*
X134070952Y-62816190D01*
X134094761Y-63054285D01*
X134070952Y-63030476D01*
X134023333Y-63006666D01*
X133904285Y-63006666D01*
X133856666Y-63030476D01*
X133832857Y-63054285D01*
X133809047Y-63101904D01*
X133809047Y-63220952D01*
X133832857Y-63268571D01*
X133856666Y-63292380D01*
X133904285Y-63316190D01*
X134023333Y-63316190D01*
X134070952Y-63292380D01*
X134094761Y-63268571D01*
%TO.C,D24*%
X164834642Y-63316190D02*
X164834642Y-62816190D01*
X164715595Y-62816190D01*
X164644166Y-62840000D01*
X164596547Y-62887619D01*
X164572738Y-62935238D01*
X164548928Y-63030476D01*
X164548928Y-63101904D01*
X164572738Y-63197142D01*
X164596547Y-63244761D01*
X164644166Y-63292380D01*
X164715595Y-63316190D01*
X164834642Y-63316190D01*
X164358452Y-62863809D02*
X164334642Y-62840000D01*
X164287023Y-62816190D01*
X164167976Y-62816190D01*
X164120357Y-62840000D01*
X164096547Y-62863809D01*
X164072738Y-62911428D01*
X164072738Y-62959047D01*
X164096547Y-63030476D01*
X164382261Y-63316190D01*
X164072738Y-63316190D01*
X163644166Y-62982857D02*
X163644166Y-63316190D01*
X163763214Y-62792380D02*
X163882261Y-63149523D01*
X163572738Y-63149523D01*
%TO.C,D26*%
X183236190Y-81052857D02*
X182736190Y-81052857D01*
X182736190Y-81171904D01*
X182760000Y-81243333D01*
X182807619Y-81290952D01*
X182855238Y-81314761D01*
X182950476Y-81338571D01*
X183021904Y-81338571D01*
X183117142Y-81314761D01*
X183164761Y-81290952D01*
X183212380Y-81243333D01*
X183236190Y-81171904D01*
X183236190Y-81052857D01*
X182783809Y-81529047D02*
X182760000Y-81552857D01*
X182736190Y-81600476D01*
X182736190Y-81719523D01*
X182760000Y-81767142D01*
X182783809Y-81790952D01*
X182831428Y-81814761D01*
X182879047Y-81814761D01*
X182950476Y-81790952D01*
X183236190Y-81505238D01*
X183236190Y-81814761D01*
X182736190Y-82243333D02*
X182736190Y-82148095D01*
X182760000Y-82100476D01*
X182783809Y-82076666D01*
X182855238Y-82029047D01*
X182950476Y-82005238D01*
X183140952Y-82005238D01*
X183188571Y-82029047D01*
X183212380Y-82052857D01*
X183236190Y-82100476D01*
X183236190Y-82195714D01*
X183212380Y-82243333D01*
X183188571Y-82267142D01*
X183140952Y-82290952D01*
X183021904Y-82290952D01*
X182974285Y-82267142D01*
X182950476Y-82243333D01*
X182926666Y-82195714D01*
X182926666Y-82100476D01*
X182950476Y-82052857D01*
X182974285Y-82029047D01*
X183021904Y-82005238D01*
%TO.C,D28*%
X183236190Y-111052857D02*
X182736190Y-111052857D01*
X182736190Y-111171904D01*
X182760000Y-111243333D01*
X182807619Y-111290952D01*
X182855238Y-111314761D01*
X182950476Y-111338571D01*
X183021904Y-111338571D01*
X183117142Y-111314761D01*
X183164761Y-111290952D01*
X183212380Y-111243333D01*
X183236190Y-111171904D01*
X183236190Y-111052857D01*
X182783809Y-111529047D02*
X182760000Y-111552857D01*
X182736190Y-111600476D01*
X182736190Y-111719523D01*
X182760000Y-111767142D01*
X182783809Y-111790952D01*
X182831428Y-111814761D01*
X182879047Y-111814761D01*
X182950476Y-111790952D01*
X183236190Y-111505238D01*
X183236190Y-111814761D01*
X182950476Y-112100476D02*
X182926666Y-112052857D01*
X182902857Y-112029047D01*
X182855238Y-112005238D01*
X182831428Y-112005238D01*
X182783809Y-112029047D01*
X182760000Y-112052857D01*
X182736190Y-112100476D01*
X182736190Y-112195714D01*
X182760000Y-112243333D01*
X182783809Y-112267142D01*
X182831428Y-112290952D01*
X182855238Y-112290952D01*
X182902857Y-112267142D01*
X182926666Y-112243333D01*
X182950476Y-112195714D01*
X182950476Y-112100476D01*
X182974285Y-112052857D01*
X182998095Y-112029047D01*
X183045714Y-112005238D01*
X183140952Y-112005238D01*
X183188571Y-112029047D01*
X183212380Y-112052857D01*
X183236190Y-112100476D01*
X183236190Y-112195714D01*
X183212380Y-112243333D01*
X183188571Y-112267142D01*
X183140952Y-112290952D01*
X183045714Y-112290952D01*
X182998095Y-112267142D01*
X182974285Y-112243333D01*
X182950476Y-112195714D01*
%TO.C,D31*%
X134707142Y-130626190D02*
X134707142Y-130126190D01*
X134588095Y-130126190D01*
X134516666Y-130150000D01*
X134469047Y-130197619D01*
X134445238Y-130245238D01*
X134421428Y-130340476D01*
X134421428Y-130411904D01*
X134445238Y-130507142D01*
X134469047Y-130554761D01*
X134516666Y-130602380D01*
X134588095Y-130626190D01*
X134707142Y-130626190D01*
X134254761Y-130126190D02*
X133945238Y-130126190D01*
X134111904Y-130316666D01*
X134040476Y-130316666D01*
X133992857Y-130340476D01*
X133969047Y-130364285D01*
X133945238Y-130411904D01*
X133945238Y-130530952D01*
X133969047Y-130578571D01*
X133992857Y-130602380D01*
X134040476Y-130626190D01*
X134183333Y-130626190D01*
X134230952Y-130602380D01*
X134254761Y-130578571D01*
X133469047Y-130626190D02*
X133754761Y-130626190D01*
X133611904Y-130626190D02*
X133611904Y-130126190D01*
X133659523Y-130197619D01*
X133707142Y-130245238D01*
X133754761Y-130269047D01*
%TO.C,D29*%
X116096190Y-111052857D02*
X115596190Y-111052857D01*
X115596190Y-111171904D01*
X115620000Y-111243333D01*
X115667619Y-111290952D01*
X115715238Y-111314761D01*
X115810476Y-111338571D01*
X115881904Y-111338571D01*
X115977142Y-111314761D01*
X116024761Y-111290952D01*
X116072380Y-111243333D01*
X116096190Y-111171904D01*
X116096190Y-111052857D01*
X115643809Y-111529047D02*
X115620000Y-111552857D01*
X115596190Y-111600476D01*
X115596190Y-111719523D01*
X115620000Y-111767142D01*
X115643809Y-111790952D01*
X115691428Y-111814761D01*
X115739047Y-111814761D01*
X115810476Y-111790952D01*
X116096190Y-111505238D01*
X116096190Y-111814761D01*
X116096190Y-112052857D02*
X116096190Y-112148095D01*
X116072380Y-112195714D01*
X116048571Y-112219523D01*
X115977142Y-112267142D01*
X115881904Y-112290952D01*
X115691428Y-112290952D01*
X115643809Y-112267142D01*
X115620000Y-112243333D01*
X115596190Y-112195714D01*
X115596190Y-112100476D01*
X115620000Y-112052857D01*
X115643809Y-112029047D01*
X115691428Y-112005238D01*
X115810476Y-112005238D01*
X115858095Y-112029047D01*
X115881904Y-112052857D01*
X115905714Y-112100476D01*
X115905714Y-112195714D01*
X115881904Y-112243333D01*
X115858095Y-112267142D01*
X115810476Y-112290952D01*
D11*
%TO.C,D27*%
X115175000Y-78200000D02*
X115175000Y-80485000D01*
X113705000Y-80485000D02*
X113705000Y-78200000D01*
X115175000Y-80485000D02*
X113705000Y-80485000D01*
%TO.C,D30*%
X165925000Y-130925000D02*
X165925000Y-132395000D01*
X163640000Y-130925000D02*
X165925000Y-130925000D01*
X165925000Y-132395000D02*
X163640000Y-132395000D01*
%TO.C,D25*%
X132955000Y-62395000D02*
X132955000Y-60925000D01*
X132955000Y-60925000D02*
X135240000Y-60925000D01*
X135240000Y-62395000D02*
X132955000Y-62395000D01*
%TO.C,U14*%
X155597500Y-134915000D02*
X154107500Y-134915000D01*
X154177500Y-125685000D02*
X155667500Y-125685000D01*
%TO.C,D24*%
X165027500Y-62395000D02*
X162742500Y-62395000D01*
X162742500Y-60925000D02*
X165027500Y-60925000D01*
X162742500Y-62395000D02*
X162742500Y-60925000D01*
%TO.C,D26*%
X185175000Y-80175000D02*
X185175000Y-82460000D01*
X183705000Y-80175000D02*
X185175000Y-80175000D01*
X183705000Y-82460000D02*
X183705000Y-80175000D01*
%TO.C,D28*%
X185175000Y-110175000D02*
X185175000Y-112460000D01*
X183705000Y-110175000D02*
X185175000Y-110175000D01*
X183705000Y-112460000D02*
X183705000Y-110175000D01*
%TO.C,D31*%
X133852500Y-130925000D02*
X136137500Y-130925000D01*
X136137500Y-132395000D02*
X133852500Y-132395000D01*
X136137500Y-130925000D02*
X136137500Y-132395000D01*
%TO.C,D29*%
X113705000Y-113145000D02*
X113705000Y-110860000D01*
X115175000Y-113145000D02*
X113705000Y-113145000D01*
X115175000Y-110860000D02*
X115175000Y-113145000D01*
%TD*%
M02*
