M48
; DRILL file {KiCad (6.0.8)} date Thu Jan  4 13:58:07 2024
; FORMAT={-:-/ absolute / metric / decimal}
; #@! TF.CreationDate,2024-01-04T13:58:07-05:00
; #@! TF.GenerationSoftware,Kicad,Pcbnew,(6.0.8)
; #@! TF.FileFunction,Plated,1,4,PTH
FMAT,2
METRIC
; #@! TA.AperFunction,Plated,PTH,ViaDrill
T1C0.300
; #@! TA.AperFunction,Plated,PTH,ComponentDrill
T2C0.305
; #@! TA.AperFunction,Plated,PTH,ComponentDrill
T3C0.600
; #@! TA.AperFunction,Plated,PTH,ComponentDrill
T4C0.750
; #@! TA.AperFunction,Plated,PTH,ComponentDrill
T5C0.850
; #@! TA.AperFunction,Plated,PTH,ComponentDrill
T6C0.900
; #@! TA.AperFunction,Plated,PTH,ComponentDrill
T7C0.920
; #@! TA.AperFunction,Plated,PTH,ComponentDrill
T8C1.000
; #@! TA.AperFunction,Plated,PTH,ComponentDrill
T9C1.020
; #@! TA.AperFunction,Plated,PTH,ComponentDrill
T10C1.500
; #@! TA.AperFunction,Plated,PTH,ComponentDrill
T11C1.520
; #@! TA.AperFunction,Plated,PTH,ComponentDrill
T12C1.630
%
G90
G05
T1
X102.8Y-108.8
X102.8Y-109.9
X102.8Y-112.1
X102.9Y-114.3
X102.9Y-115.4
X102.9Y-116.6
X105.03Y-121.87
X105.89Y-87.42
X109.3Y-71.0
X109.65Y-70.05
X110.6Y-86.0
X110.8Y-80.3
X111.1Y-99.0
X111.16Y-81.99
X112.7Y-65.5
X113.75Y-75.45
X113.84Y-66.98
X114.88Y-72.24
X115.0Y-91.1
X115.144Y-67.452
X116.1Y-113.2
X117.04Y-69.75
X117.435Y-112.135
X117.46Y-66.88
X117.59Y-106.41
X117.6Y-108.4
X117.67Y-118.37
X117.89Y-73.52
X117.94Y-59.56
X118.3Y-115.9
X118.44Y-74.16
X118.84Y-79.82
X119.26Y-76.26
X119.52Y-75.5
X119.74Y-64.86
X120.14Y-66.03
X120.2Y-84.6
X120.6Y-61.0
X121.5Y-64.3
X121.8Y-119.0
X122.4Y-59.4
X122.4Y-78.7
X122.5Y-95.1
X123.0Y-64.4
X123.3Y-75.9
X123.47Y-65.164
X123.8Y-107.6
X123.94Y-59.16
X124.0Y-51.23
X124.0Y-114.3
X124.08Y-116.76
X124.64Y-77.06
X125.0Y-109.3
X125.04Y-74.86
X125.44Y-73.46
X126.14Y-65.86
X126.3Y-100.0
X126.34Y-71.38
X126.46Y-120.1
X126.48Y-69.65
X126.89Y-72.47
X127.14Y-63.96
X127.9Y-75.1
X128.57Y-74.1
X128.64Y-72.56
X130.0Y-87.4
X130.14Y-67.93
X130.9Y-79.7
X130.95Y-70.28
X130.95Y-93.39
X131.33Y-119.76
X132.1Y-95.5
X133.1Y-76.5
X134.245Y-71.795
X136.3Y-90.3
X136.35Y-79.7
X136.4Y-87.4
X136.5Y-97.9
X136.86Y-94.7
X137.2Y-76.2
X137.2Y-99.5
X137.3Y-70.35
X137.428Y-86.718
X137.68Y-89.7
X138.06Y-96.21
X139.05Y-118.69
X139.44Y-101.86
X139.47Y-66.5
X139.47Y-94.85
X140.02Y-99.36
X140.15Y-98.13
X140.2Y-96.96
X140.853Y-84.684
X140.87Y-107.48
X141.8Y-80.0
X142.1Y-86.5
X142.245Y-88.255
X142.87Y-105.86
X142.904Y-83.833
X143.72Y-106.49
X143.8Y-109.74
X143.81Y-112.29
X144.0Y-94.13
X144.01Y-76.05
X144.06Y-107.28
X144.16Y-71.1
X144.5Y-111.87
X144.51Y-110.24
X145.0Y-77.09
X145.13Y-87.13
X145.25Y-109.71
X145.25Y-111.39
X145.3Y-69.48
X145.85Y-121.35
X145.9Y-109.0
X146.04Y-106.24
X146.06Y-76.94
X146.67Y-73.64
X146.77Y-82.77
X146.87Y-116.87
X147.1Y-106.0
X147.17Y-84.46
X147.24Y-76.33
X147.48Y-78.92
X147.5Y-82.3
X147.8Y-108.6
X147.96Y-75.24
X147.99Y-86.86
X148.05Y-105.88
X148.3Y-84.4
X148.51Y-79.14
X148.51Y-83.54
X148.608Y-80.008
X148.87Y-76.12
X149.03Y-122.09
X149.68Y-79.06
X149.8Y-91.4
X150.2Y-76.55
X150.2Y-84.3
X150.2Y-115.92
X150.4Y-110.6
X150.71Y-78.94
X150.8Y-102.7
X150.9Y-85.5
X151.18Y-133.67
X151.2Y-112.0
X151.2Y-117.67
X151.39Y-76.55
X151.668Y-111.267
X151.8Y-126.8
X151.895Y-129.935
X151.91Y-133.057
X152.1Y-79.0
X152.2Y-90.6
X152.22Y-130.7
X152.25Y-76.42
X152.38Y-71.71
X152.43Y-74.12
X152.44Y-72.89
X152.48Y-75.29
X152.5Y-81.01
X152.5Y-134.3
X152.572Y-91.496
X152.6Y-126.2
X152.6Y-127.4
X152.62Y-132.4
X153.24Y-90.88
X153.5Y-110.7
X153.83Y-91.61
X153.88Y-63.82
X154.44Y-86.76
X154.5Y-93.3
X154.54Y-109.36
X154.77Y-78.24
X154.8Y-97.2
X154.85Y-71.02
X154.9Y-73.63
X154.9Y-84.01
X154.92Y-72.74
X154.93Y-76.09
X154.96Y-75.16
X155.44Y-106.87
X155.5Y-85.9
X155.72Y-105.81
X156.154Y-68.25
X156.23Y-69.15
X156.51Y-81.22
X156.73Y-116.78
X156.83Y-84.87
X156.89Y-74.3
X156.9Y-108.8
X157.62Y-116.86
X158.2Y-106.9
X158.4Y-73.8
X158.42Y-116.92
X158.97Y-94.96
X158.974Y-99.386
X159.57Y-100.79
X159.8Y-113.0
X159.85Y-99.9
X159.92Y-86.75
X160.11Y-71.74
X160.19Y-117.62
X160.65Y-105.36
X161.04Y-99.46
X161.5Y-111.8
X161.7Y-95.4
X162.01Y-132.35
X162.04Y-91.76
X162.04Y-99.36
X162.3Y-75.6
X162.52Y-113.03
X163.17Y-115.71
X163.23Y-116.54
X163.23Y-117.38
X163.6Y-91.4
X163.9Y-93.9
X164.71Y-128.22
X164.86Y-126.79
X165.0Y-109.0
X165.31Y-113.53
X165.943Y-114.147
X166.24Y-72.0
X166.26Y-79.04
X166.4Y-63.2
X166.45Y-64.73
X166.5Y-108.9
X166.5Y-112.4
X166.6Y-110.1
X166.66Y-114.75
X166.94Y-79.64
X167.5Y-125.14
X167.6Y-121.19
X167.65Y-69.81
X167.74Y-72.02
X168.62Y-139.775
X168.85Y-87.58
X168.95Y-113.06
X170.37Y-111.72
X170.64Y-80.56
X170.937Y-112.959
X171.05Y-136.105
X171.14Y-77.07
X171.19Y-114.06
X171.2Y-118.94
X171.34Y-105.51
X171.34Y-111.64
X171.7Y-78.4
X172.44Y-112.86
X172.44Y-113.76
X172.46Y-104.42
X174.19Y-118.91
X174.4Y-83.5
X174.62Y-113.06
X174.88Y-115.2
X174.95Y-76.03
X174.99Y-114.05
X175.1Y-72.82
X175.23Y-88.83
X176.06Y-87.02
X177.038Y-56.642
X177.38Y-54.02
X178.4Y-88.2
X178.8Y-84.44
X178.93Y-115.41
X180.3Y-87.7
X180.4Y-82.4
X181.74Y-89.56
X181.742Y-75.01
X181.99Y-98.92
X182.59Y-70.99
X182.94Y-79.26
X183.0Y-105.5
X183.15Y-99.39
X183.34Y-89.96
X183.74Y-94.76
X183.84Y-91.06
X184.34Y-99.76
X184.94Y-95.26
X185.14Y-91.46
X185.34Y-100.06
X185.52Y-99.04
X185.84Y-95.56
X185.9Y-87.8
X186.14Y-91.86
X186.19Y-98.55
X186.69Y-91.07
X186.7Y-95.183
X186.74Y-96.06
X186.74Y-103.26
X186.91Y-97.98
X186.98Y-100.35
X187.04Y-92.16
X187.05Y-110.6
X187.44Y-94.76
X187.546Y-96.285
X187.62Y-97.56
X187.64Y-102.76
X188.0Y-104.1
X188.13Y-94.31
X188.34Y-92.36
X188.34Y-102.16
X188.74Y-77.385
X188.74Y-93.76
X189.14Y-101.76
X189.155Y-104.86
X189.2Y-96.0
X189.44Y-97.26
X189.533Y-93.285
X189.57Y-123.31
X189.64Y-90.76
X189.64Y-91.86
X189.861Y-101.264
X192.4Y-95.8
X192.4Y-105.3
X192.42Y-123.14
X192.6Y-99.8
X192.7Y-82.07
X192.87Y-120.77
X192.9Y-88.8
X193.2Y-92.3
X193.44Y-74.94
T2
X120.74Y-69.19
X120.74Y-70.39
X120.74Y-71.59
X121.94Y-69.19
X121.94Y-70.39
X121.94Y-71.59
X123.14Y-69.19
X123.14Y-70.39
X123.14Y-71.59
X148.44Y-95.66
X148.44Y-96.66
X148.44Y-97.66
X149.44Y-95.66
X149.44Y-96.66
X149.44Y-97.66
X150.44Y-95.66
X150.44Y-96.66
X150.44Y-97.66
T4
X110.85Y-74.3
X110.85Y-76.3
T5
X104.662Y-70.9
X104.662Y-75.9
X194.647Y-66.73
X194.647Y-71.73
T6
X117.172Y-92.36
X117.172Y-94.9
X117.172Y-97.44
X117.172Y-99.98
X119.712Y-93.62
X119.712Y-96.16
X119.712Y-98.7
X119.712Y-101.24
T7
X112.39Y-127.9
X114.39Y-127.9
X116.39Y-127.9
X118.39Y-127.9
T8
X136.96Y-52.805
X136.96Y-55.345
X139.5Y-52.805
X139.5Y-55.345
X142.04Y-52.805
X142.04Y-55.345
X144.58Y-52.805
X144.58Y-55.345
X147.12Y-52.805
X147.12Y-55.345
X149.66Y-52.805
X149.66Y-55.345
X152.2Y-52.805
X152.2Y-55.345
X154.74Y-52.805
X154.74Y-55.345
X157.28Y-52.805
X157.28Y-55.345
X159.82Y-52.805
X159.82Y-55.345
X162.36Y-52.805
X162.36Y-55.345
X164.9Y-52.805
X164.9Y-55.345
X167.44Y-52.805
X167.44Y-55.345
X169.98Y-52.805
X169.98Y-55.345
X172.52Y-52.805
X172.52Y-55.345
X175.06Y-52.805
X175.06Y-55.345
X180.992Y-50.247
X180.992Y-52.787
X182.29Y-59.55
X183.532Y-50.247
X183.532Y-52.787
X184.83Y-59.55
X187.37Y-59.55
X189.91Y-59.55
X192.45Y-59.55
X194.99Y-59.55
T9
X105.912Y-90.175
X105.912Y-92.715
X105.912Y-100.885
X105.912Y-103.425
T10
X111.66Y-125.18
X111.66Y-130.62
X118.66Y-125.18
X118.66Y-130.62
T11
X106.6Y-58.56
X106.6Y-63.64
T12
X113.862Y-89.055
X113.862Y-104.545
T3
X101.612Y-69.9G85X102.312Y-69.9
G05
X102.312Y-76.9G85X101.612Y-76.9
G05
X196.998Y-65.73G85X197.697Y-65.73
G05
X197.697Y-72.73G85X196.998Y-72.73
G05
T0
M30
