%TF.GenerationSoftware,KiCad,Pcbnew,(6.0.8)*%
%TF.CreationDate,2024-01-04T13:58:09-05:00*%
%TF.ProjectId,lb_mp1,6c625f6d-7031-42e6-9b69-6361645f7063,rev?*%
%TF.SameCoordinates,Original*%
%TF.FileFunction,Drillmap*%
%TF.FilePolarity,Positive*%
%FSLAX45Y45*%
G04 Gerber Fmt 4.5, Leading zero omitted, Abs format (unit mm)*
G04 Created by KiCad (PCBNEW (6.0.8)) date 2024-01-04 13:58:09*
%MOMM*%
%LPD*%
G01*
G04 APERTURE LIST*
%ADD10C,0.100000*%
%ADD11C,0.200000*%
%ADD12C,0.115200*%
%ADD13C,0.150000*%
%ADD14C,0.320000*%
%ADD15C,0.325000*%
G04 APERTURE END LIST*
D10*
X9944000Y-14166000D02*
G75*
G03*
X10444000Y-14666000I500000J0D01*
G01*
X15890000Y-12560000D02*
G75*
G03*
X15860000Y-12590000I0J-30000D01*
G01*
X15890000Y-12560000D02*
X15930000Y-12560000D01*
X15860000Y-12590000D02*
X15860000Y-13430000D01*
X19444000Y-4666000D02*
X10444000Y-4666000D01*
X19944000Y-5166000D02*
G75*
G03*
X19444000Y-4666000I-500000J0D01*
G01*
X19444000Y-14666000D02*
G75*
G03*
X19944000Y-14166000I0J500000D01*
G01*
X15930000Y-13460000D02*
G75*
G03*
X15960000Y-13430000I0J30000D01*
G01*
X19944000Y-14166000D02*
X19944000Y-5166000D01*
X15960000Y-12590000D02*
G75*
G03*
X15930000Y-12560000I-30000J0D01*
G01*
X10444000Y-14666000D02*
X19444000Y-14666000D01*
X15860000Y-13430000D02*
G75*
G03*
X15890000Y-13460000I30000J0D01*
G01*
X15890000Y-13460000D02*
X15930000Y-13460000D01*
X10444000Y-4666000D02*
G75*
G03*
X9944000Y-5166000I0J-500000D01*
G01*
X9944000Y-5166000D02*
X9944000Y-14166000D01*
X15960000Y-13430000D02*
X15960000Y-12590000D01*
D11*
D12*
X10507400Y-13510100D02*
X10622600Y-13625300D01*
X10622600Y-13510100D02*
X10507400Y-13625300D01*
X18819400Y-5382100D02*
X18934600Y-5497300D01*
X18934600Y-5382100D02*
X18819400Y-5497300D01*
X19382400Y-13220100D02*
X19497600Y-13335300D01*
X19497600Y-13220100D02*
X19382400Y-13335300D01*
D13*
X17298000Y-13461500D02*
G75*
G03*
X17298000Y-13461500I-75000J0D01*
G01*
X17298000Y-14161500D02*
G75*
G03*
X17298000Y-14161500I-75000J0D01*
G01*
D14*
X10444000Y-5006000D02*
X10444000Y-5326000D01*
X10284000Y-5166000D02*
X10604000Y-5166000D01*
X10444000Y-14006000D02*
X10444000Y-14326000D01*
X10284000Y-14166000D02*
X10604000Y-14166000D01*
X19444000Y-5006000D02*
X19444000Y-5326000D01*
X19284000Y-5166000D02*
X19604000Y-5166000D01*
X19444000Y-14006000D02*
X19444000Y-14326000D01*
X19284000Y-14166000D02*
X19604000Y-14166000D01*
D15*
X11196156Y-9223406D02*
X11196156Y-8993594D01*
X10966344Y-8993594D01*
X10966344Y-9223406D01*
X11196156Y-9223406D01*
X11196156Y-10366406D02*
X11196156Y-10136594D01*
X10966344Y-10136594D01*
X10966344Y-10366406D01*
X11196156Y-10366406D01*
D11*
X10196619Y-14981476D02*
X10196619Y-14781476D01*
X10244238Y-14781476D01*
X10272810Y-14791000D01*
X10291857Y-14810048D01*
X10301381Y-14829095D01*
X10310905Y-14867190D01*
X10310905Y-14895762D01*
X10301381Y-14933857D01*
X10291857Y-14952905D01*
X10272810Y-14971952D01*
X10244238Y-14981476D01*
X10196619Y-14981476D01*
X10396619Y-14981476D02*
X10396619Y-14848143D01*
X10396619Y-14886238D02*
X10406143Y-14867190D01*
X10415667Y-14857667D01*
X10434714Y-14848143D01*
X10453762Y-14848143D01*
X10520429Y-14981476D02*
X10520429Y-14848143D01*
X10520429Y-14781476D02*
X10510905Y-14791000D01*
X10520429Y-14800524D01*
X10529952Y-14791000D01*
X10520429Y-14781476D01*
X10520429Y-14800524D01*
X10644238Y-14981476D02*
X10625190Y-14971952D01*
X10615667Y-14952905D01*
X10615667Y-14781476D01*
X10749000Y-14981476D02*
X10729952Y-14971952D01*
X10720429Y-14952905D01*
X10720429Y-14781476D01*
X10977571Y-14981476D02*
X10977571Y-14781476D01*
X11044238Y-14924333D01*
X11110905Y-14781476D01*
X11110905Y-14981476D01*
X11291857Y-14981476D02*
X11291857Y-14876714D01*
X11282333Y-14857667D01*
X11263286Y-14848143D01*
X11225190Y-14848143D01*
X11206143Y-14857667D01*
X11291857Y-14971952D02*
X11272809Y-14981476D01*
X11225190Y-14981476D01*
X11206143Y-14971952D01*
X11196619Y-14952905D01*
X11196619Y-14933857D01*
X11206143Y-14914809D01*
X11225190Y-14905286D01*
X11272809Y-14905286D01*
X11291857Y-14895762D01*
X11387095Y-14848143D02*
X11387095Y-15048143D01*
X11387095Y-14857667D02*
X11406143Y-14848143D01*
X11444238Y-14848143D01*
X11463286Y-14857667D01*
X11472809Y-14867190D01*
X11482333Y-14886238D01*
X11482333Y-14943381D01*
X11472809Y-14962428D01*
X11463286Y-14971952D01*
X11444238Y-14981476D01*
X11406143Y-14981476D01*
X11387095Y-14971952D01*
X11568048Y-14962428D02*
X11577571Y-14971952D01*
X11568048Y-14981476D01*
X11558524Y-14971952D01*
X11568048Y-14962428D01*
X11568048Y-14981476D01*
X11568048Y-14857667D02*
X11577571Y-14867190D01*
X11568048Y-14876714D01*
X11558524Y-14867190D01*
X11568048Y-14857667D01*
X11568048Y-14876714D01*
D12*
X9823800Y-15253400D02*
X9939000Y-15368600D01*
X9939000Y-15253400D02*
X9823800Y-15368600D01*
D11*
X10301381Y-15401476D02*
X10187095Y-15401476D01*
X10244238Y-15401476D02*
X10244238Y-15201476D01*
X10225190Y-15230048D01*
X10206143Y-15249095D01*
X10187095Y-15258619D01*
X10387095Y-15382428D02*
X10396619Y-15391952D01*
X10387095Y-15401476D01*
X10377571Y-15391952D01*
X10387095Y-15382428D01*
X10387095Y-15401476D01*
X10587095Y-15401476D02*
X10472810Y-15401476D01*
X10529952Y-15401476D02*
X10529952Y-15201476D01*
X10510905Y-15230048D01*
X10491857Y-15249095D01*
X10472810Y-15258619D01*
X10768048Y-15201476D02*
X10672810Y-15201476D01*
X10663286Y-15296714D01*
X10672810Y-15287190D01*
X10691857Y-15277667D01*
X10739476Y-15277667D01*
X10758524Y-15287190D01*
X10768048Y-15296714D01*
X10777571Y-15315762D01*
X10777571Y-15363381D01*
X10768048Y-15382428D01*
X10758524Y-15391952D01*
X10739476Y-15401476D01*
X10691857Y-15401476D01*
X10672810Y-15391952D01*
X10663286Y-15382428D01*
X10853762Y-15220524D02*
X10863286Y-15211000D01*
X10882333Y-15201476D01*
X10929952Y-15201476D01*
X10949000Y-15211000D01*
X10958524Y-15220524D01*
X10968048Y-15239571D01*
X10968048Y-15258619D01*
X10958524Y-15287190D01*
X10844238Y-15401476D01*
X10968048Y-15401476D01*
X11053762Y-15401476D02*
X11053762Y-15268143D01*
X11053762Y-15287190D02*
X11063286Y-15277667D01*
X11082333Y-15268143D01*
X11110905Y-15268143D01*
X11129952Y-15277667D01*
X11139476Y-15296714D01*
X11139476Y-15401476D01*
X11139476Y-15296714D02*
X11149000Y-15277667D01*
X11168048Y-15268143D01*
X11196619Y-15268143D01*
X11215667Y-15277667D01*
X11225190Y-15296714D01*
X11225190Y-15401476D01*
X11320428Y-15401476D02*
X11320428Y-15268143D01*
X11320428Y-15287190D02*
X11329952Y-15277667D01*
X11349000Y-15268143D01*
X11377571Y-15268143D01*
X11396619Y-15277667D01*
X11406143Y-15296714D01*
X11406143Y-15401476D01*
X11406143Y-15296714D02*
X11415667Y-15277667D01*
X11434714Y-15268143D01*
X11463286Y-15268143D01*
X11482333Y-15277667D01*
X11491857Y-15296714D01*
X11491857Y-15401476D01*
X11882333Y-15191952D02*
X11710905Y-15449095D01*
X12139476Y-15201476D02*
X12158524Y-15201476D01*
X12177571Y-15211000D01*
X12187095Y-15220524D01*
X12196619Y-15239571D01*
X12206143Y-15277667D01*
X12206143Y-15325286D01*
X12196619Y-15363381D01*
X12187095Y-15382428D01*
X12177571Y-15391952D01*
X12158524Y-15401476D01*
X12139476Y-15401476D01*
X12120428Y-15391952D01*
X12110905Y-15382428D01*
X12101381Y-15363381D01*
X12091857Y-15325286D01*
X12091857Y-15277667D01*
X12101381Y-15239571D01*
X12110905Y-15220524D01*
X12120428Y-15211000D01*
X12139476Y-15201476D01*
X12291857Y-15382428D02*
X12301381Y-15391952D01*
X12291857Y-15401476D01*
X12282333Y-15391952D01*
X12291857Y-15382428D01*
X12291857Y-15401476D01*
X12425190Y-15201476D02*
X12444238Y-15201476D01*
X12463286Y-15211000D01*
X12472809Y-15220524D01*
X12482333Y-15239571D01*
X12491857Y-15277667D01*
X12491857Y-15325286D01*
X12482333Y-15363381D01*
X12472809Y-15382428D01*
X12463286Y-15391952D01*
X12444238Y-15401476D01*
X12425190Y-15401476D01*
X12406143Y-15391952D01*
X12396619Y-15382428D01*
X12387095Y-15363381D01*
X12377571Y-15325286D01*
X12377571Y-15277667D01*
X12387095Y-15239571D01*
X12396619Y-15220524D01*
X12406143Y-15211000D01*
X12425190Y-15201476D01*
X12663286Y-15268143D02*
X12663286Y-15401476D01*
X12615667Y-15191952D02*
X12568048Y-15334809D01*
X12691857Y-15334809D01*
X12863286Y-15201476D02*
X12768048Y-15201476D01*
X12758524Y-15296714D01*
X12768048Y-15287190D01*
X12787095Y-15277667D01*
X12834714Y-15277667D01*
X12853762Y-15287190D01*
X12863286Y-15296714D01*
X12872809Y-15315762D01*
X12872809Y-15363381D01*
X12863286Y-15382428D01*
X12853762Y-15391952D01*
X12834714Y-15401476D01*
X12787095Y-15401476D01*
X12768048Y-15391952D01*
X12758524Y-15382428D01*
X13044238Y-15268143D02*
X13044238Y-15401476D01*
X12996619Y-15191952D02*
X12949000Y-15334809D01*
X13072809Y-15334809D01*
X13139476Y-15201476D02*
X13139476Y-15239571D01*
X13215667Y-15201476D02*
X13215667Y-15239571D01*
X13510905Y-15477667D02*
X13501381Y-15468143D01*
X13482333Y-15439571D01*
X13472809Y-15420524D01*
X13463286Y-15391952D01*
X13453762Y-15344333D01*
X13453762Y-15306238D01*
X13463286Y-15258619D01*
X13472809Y-15230048D01*
X13482333Y-15211000D01*
X13501381Y-15182428D01*
X13510905Y-15172905D01*
X13568048Y-15201476D02*
X13691857Y-15201476D01*
X13625190Y-15277667D01*
X13653762Y-15277667D01*
X13672809Y-15287190D01*
X13682333Y-15296714D01*
X13691857Y-15315762D01*
X13691857Y-15363381D01*
X13682333Y-15382428D01*
X13672809Y-15391952D01*
X13653762Y-15401476D01*
X13596619Y-15401476D01*
X13577571Y-15391952D01*
X13568048Y-15382428D01*
X13929952Y-15401476D02*
X13929952Y-15201476D01*
X14015667Y-15401476D02*
X14015667Y-15296714D01*
X14006143Y-15277667D01*
X13987095Y-15268143D01*
X13958524Y-15268143D01*
X13939476Y-15277667D01*
X13929952Y-15287190D01*
X14139476Y-15401476D02*
X14120428Y-15391952D01*
X14110905Y-15382428D01*
X14101381Y-15363381D01*
X14101381Y-15306238D01*
X14110905Y-15287190D01*
X14120428Y-15277667D01*
X14139476Y-15268143D01*
X14168048Y-15268143D01*
X14187095Y-15277667D01*
X14196619Y-15287190D01*
X14206143Y-15306238D01*
X14206143Y-15363381D01*
X14196619Y-15382428D01*
X14187095Y-15391952D01*
X14168048Y-15401476D01*
X14139476Y-15401476D01*
X14320428Y-15401476D02*
X14301381Y-15391952D01*
X14291857Y-15372905D01*
X14291857Y-15201476D01*
X14472809Y-15391952D02*
X14453762Y-15401476D01*
X14415667Y-15401476D01*
X14396619Y-15391952D01*
X14387095Y-15372905D01*
X14387095Y-15296714D01*
X14396619Y-15277667D01*
X14415667Y-15268143D01*
X14453762Y-15268143D01*
X14472809Y-15277667D01*
X14482333Y-15296714D01*
X14482333Y-15315762D01*
X14387095Y-15334809D01*
X14558524Y-15391952D02*
X14577571Y-15401476D01*
X14615667Y-15401476D01*
X14634714Y-15391952D01*
X14644238Y-15372905D01*
X14644238Y-15363381D01*
X14634714Y-15344333D01*
X14615667Y-15334809D01*
X14587095Y-15334809D01*
X14568048Y-15325286D01*
X14558524Y-15306238D01*
X14558524Y-15296714D01*
X14568048Y-15277667D01*
X14587095Y-15268143D01*
X14615667Y-15268143D01*
X14634714Y-15277667D01*
X14710905Y-15477667D02*
X14720428Y-15468143D01*
X14739476Y-15439571D01*
X14749000Y-15420524D01*
X14758524Y-15391952D01*
X14768048Y-15344333D01*
X14768048Y-15306238D01*
X14758524Y-15258619D01*
X14749000Y-15230048D01*
X14739476Y-15211000D01*
X14720428Y-15182428D01*
X14710905Y-15172905D01*
X15072809Y-15477667D02*
X15063286Y-15468143D01*
X15044238Y-15439571D01*
X15034714Y-15420524D01*
X15025190Y-15391952D01*
X15015667Y-15344333D01*
X15015667Y-15306238D01*
X15025190Y-15258619D01*
X15034714Y-15230048D01*
X15044238Y-15211000D01*
X15063286Y-15182428D01*
X15072809Y-15172905D01*
X15149000Y-15268143D02*
X15149000Y-15401476D01*
X15149000Y-15287190D02*
X15158524Y-15277667D01*
X15177571Y-15268143D01*
X15206143Y-15268143D01*
X15225190Y-15277667D01*
X15234714Y-15296714D01*
X15234714Y-15401476D01*
X15358524Y-15401476D02*
X15339476Y-15391952D01*
X15329952Y-15382428D01*
X15320428Y-15363381D01*
X15320428Y-15306238D01*
X15329952Y-15287190D01*
X15339476Y-15277667D01*
X15358524Y-15268143D01*
X15387095Y-15268143D01*
X15406143Y-15277667D01*
X15415667Y-15287190D01*
X15425190Y-15306238D01*
X15425190Y-15363381D01*
X15415667Y-15382428D01*
X15406143Y-15391952D01*
X15387095Y-15401476D01*
X15358524Y-15401476D01*
X15482333Y-15268143D02*
X15558524Y-15268143D01*
X15510905Y-15201476D02*
X15510905Y-15372905D01*
X15520428Y-15391952D01*
X15539476Y-15401476D01*
X15558524Y-15401476D01*
X15777571Y-15268143D02*
X15777571Y-15468143D01*
X15777571Y-15277667D02*
X15796619Y-15268143D01*
X15834714Y-15268143D01*
X15853762Y-15277667D01*
X15863286Y-15287190D01*
X15872809Y-15306238D01*
X15872809Y-15363381D01*
X15863286Y-15382428D01*
X15853762Y-15391952D01*
X15834714Y-15401476D01*
X15796619Y-15401476D01*
X15777571Y-15391952D01*
X15987095Y-15401476D02*
X15968048Y-15391952D01*
X15958524Y-15372905D01*
X15958524Y-15201476D01*
X16149000Y-15401476D02*
X16149000Y-15296714D01*
X16139476Y-15277667D01*
X16120428Y-15268143D01*
X16082333Y-15268143D01*
X16063286Y-15277667D01*
X16149000Y-15391952D02*
X16129952Y-15401476D01*
X16082333Y-15401476D01*
X16063286Y-15391952D01*
X16053762Y-15372905D01*
X16053762Y-15353857D01*
X16063286Y-15334809D01*
X16082333Y-15325286D01*
X16129952Y-15325286D01*
X16149000Y-15315762D01*
X16215667Y-15268143D02*
X16291857Y-15268143D01*
X16244238Y-15201476D02*
X16244238Y-15372905D01*
X16253762Y-15391952D01*
X16272809Y-15401476D01*
X16291857Y-15401476D01*
X16434714Y-15391952D02*
X16415667Y-15401476D01*
X16377571Y-15401476D01*
X16358524Y-15391952D01*
X16349000Y-15372905D01*
X16349000Y-15296714D01*
X16358524Y-15277667D01*
X16377571Y-15268143D01*
X16415667Y-15268143D01*
X16434714Y-15277667D01*
X16444238Y-15296714D01*
X16444238Y-15315762D01*
X16349000Y-15334809D01*
X16615667Y-15401476D02*
X16615667Y-15201476D01*
X16615667Y-15391952D02*
X16596619Y-15401476D01*
X16558524Y-15401476D01*
X16539476Y-15391952D01*
X16529952Y-15382428D01*
X16520428Y-15363381D01*
X16520428Y-15306238D01*
X16529952Y-15287190D01*
X16539476Y-15277667D01*
X16558524Y-15268143D01*
X16596619Y-15268143D01*
X16615667Y-15277667D01*
X16691857Y-15477667D02*
X16701381Y-15468143D01*
X16720428Y-15439571D01*
X16729952Y-15420524D01*
X16739476Y-15391952D01*
X16749000Y-15344333D01*
X16749000Y-15306238D01*
X16739476Y-15258619D01*
X16729952Y-15230048D01*
X16720428Y-15211000D01*
X16701381Y-15182428D01*
X16691857Y-15172905D01*
D13*
X9939000Y-15575000D02*
G75*
G03*
X9939000Y-15575000I-75000J0D01*
G01*
D11*
X10301381Y-15665476D02*
X10187095Y-15665476D01*
X10244238Y-15665476D02*
X10244238Y-15465476D01*
X10225190Y-15494048D01*
X10206143Y-15513095D01*
X10187095Y-15522619D01*
X10387095Y-15646428D02*
X10396619Y-15655952D01*
X10387095Y-15665476D01*
X10377571Y-15655952D01*
X10387095Y-15646428D01*
X10387095Y-15665476D01*
X10577571Y-15465476D02*
X10482333Y-15465476D01*
X10472810Y-15560714D01*
X10482333Y-15551190D01*
X10501381Y-15541667D01*
X10549000Y-15541667D01*
X10568048Y-15551190D01*
X10577571Y-15560714D01*
X10587095Y-15579762D01*
X10587095Y-15627381D01*
X10577571Y-15646428D01*
X10568048Y-15655952D01*
X10549000Y-15665476D01*
X10501381Y-15665476D01*
X10482333Y-15655952D01*
X10472810Y-15646428D01*
X10710905Y-15465476D02*
X10729952Y-15465476D01*
X10749000Y-15475000D01*
X10758524Y-15484524D01*
X10768048Y-15503571D01*
X10777571Y-15541667D01*
X10777571Y-15589286D01*
X10768048Y-15627381D01*
X10758524Y-15646428D01*
X10749000Y-15655952D01*
X10729952Y-15665476D01*
X10710905Y-15665476D01*
X10691857Y-15655952D01*
X10682333Y-15646428D01*
X10672810Y-15627381D01*
X10663286Y-15589286D01*
X10663286Y-15541667D01*
X10672810Y-15503571D01*
X10682333Y-15484524D01*
X10691857Y-15475000D01*
X10710905Y-15465476D01*
X10901381Y-15465476D02*
X10920429Y-15465476D01*
X10939476Y-15475000D01*
X10949000Y-15484524D01*
X10958524Y-15503571D01*
X10968048Y-15541667D01*
X10968048Y-15589286D01*
X10958524Y-15627381D01*
X10949000Y-15646428D01*
X10939476Y-15655952D01*
X10920429Y-15665476D01*
X10901381Y-15665476D01*
X10882333Y-15655952D01*
X10872810Y-15646428D01*
X10863286Y-15627381D01*
X10853762Y-15589286D01*
X10853762Y-15541667D01*
X10863286Y-15503571D01*
X10872810Y-15484524D01*
X10882333Y-15475000D01*
X10901381Y-15465476D01*
X11053762Y-15665476D02*
X11053762Y-15532143D01*
X11053762Y-15551190D02*
X11063286Y-15541667D01*
X11082333Y-15532143D01*
X11110905Y-15532143D01*
X11129952Y-15541667D01*
X11139476Y-15560714D01*
X11139476Y-15665476D01*
X11139476Y-15560714D02*
X11149000Y-15541667D01*
X11168048Y-15532143D01*
X11196619Y-15532143D01*
X11215667Y-15541667D01*
X11225190Y-15560714D01*
X11225190Y-15665476D01*
X11320428Y-15665476D02*
X11320428Y-15532143D01*
X11320428Y-15551190D02*
X11329952Y-15541667D01*
X11349000Y-15532143D01*
X11377571Y-15532143D01*
X11396619Y-15541667D01*
X11406143Y-15560714D01*
X11406143Y-15665476D01*
X11406143Y-15560714D02*
X11415667Y-15541667D01*
X11434714Y-15532143D01*
X11463286Y-15532143D01*
X11482333Y-15541667D01*
X11491857Y-15560714D01*
X11491857Y-15665476D01*
X11882333Y-15455952D02*
X11710905Y-15713095D01*
X12139476Y-15465476D02*
X12158524Y-15465476D01*
X12177571Y-15475000D01*
X12187095Y-15484524D01*
X12196619Y-15503571D01*
X12206143Y-15541667D01*
X12206143Y-15589286D01*
X12196619Y-15627381D01*
X12187095Y-15646428D01*
X12177571Y-15655952D01*
X12158524Y-15665476D01*
X12139476Y-15665476D01*
X12120428Y-15655952D01*
X12110905Y-15646428D01*
X12101381Y-15627381D01*
X12091857Y-15589286D01*
X12091857Y-15541667D01*
X12101381Y-15503571D01*
X12110905Y-15484524D01*
X12120428Y-15475000D01*
X12139476Y-15465476D01*
X12291857Y-15646428D02*
X12301381Y-15655952D01*
X12291857Y-15665476D01*
X12282333Y-15655952D01*
X12291857Y-15646428D01*
X12291857Y-15665476D01*
X12425190Y-15465476D02*
X12444238Y-15465476D01*
X12463286Y-15475000D01*
X12472809Y-15484524D01*
X12482333Y-15503571D01*
X12491857Y-15541667D01*
X12491857Y-15589286D01*
X12482333Y-15627381D01*
X12472809Y-15646428D01*
X12463286Y-15655952D01*
X12444238Y-15665476D01*
X12425190Y-15665476D01*
X12406143Y-15655952D01*
X12396619Y-15646428D01*
X12387095Y-15627381D01*
X12377571Y-15589286D01*
X12377571Y-15541667D01*
X12387095Y-15503571D01*
X12396619Y-15484524D01*
X12406143Y-15475000D01*
X12425190Y-15465476D01*
X12672809Y-15465476D02*
X12577571Y-15465476D01*
X12568048Y-15560714D01*
X12577571Y-15551190D01*
X12596619Y-15541667D01*
X12644238Y-15541667D01*
X12663286Y-15551190D01*
X12672809Y-15560714D01*
X12682333Y-15579762D01*
X12682333Y-15627381D01*
X12672809Y-15646428D01*
X12663286Y-15655952D01*
X12644238Y-15665476D01*
X12596619Y-15665476D01*
X12577571Y-15655952D01*
X12568048Y-15646428D01*
X12777571Y-15665476D02*
X12815667Y-15665476D01*
X12834714Y-15655952D01*
X12844238Y-15646428D01*
X12863286Y-15617857D01*
X12872809Y-15579762D01*
X12872809Y-15503571D01*
X12863286Y-15484524D01*
X12853762Y-15475000D01*
X12834714Y-15465476D01*
X12796619Y-15465476D01*
X12777571Y-15475000D01*
X12768048Y-15484524D01*
X12758524Y-15503571D01*
X12758524Y-15551190D01*
X12768048Y-15570238D01*
X12777571Y-15579762D01*
X12796619Y-15589286D01*
X12834714Y-15589286D01*
X12853762Y-15579762D01*
X12863286Y-15570238D01*
X12872809Y-15551190D01*
X13063286Y-15665476D02*
X12949000Y-15665476D01*
X13006143Y-15665476D02*
X13006143Y-15465476D01*
X12987095Y-15494048D01*
X12968048Y-15513095D01*
X12949000Y-15522619D01*
X13139476Y-15465476D02*
X13139476Y-15503571D01*
X13215667Y-15465476D02*
X13215667Y-15503571D01*
X13510905Y-15741667D02*
X13501381Y-15732143D01*
X13482333Y-15703571D01*
X13472809Y-15684524D01*
X13463286Y-15655952D01*
X13453762Y-15608333D01*
X13453762Y-15570238D01*
X13463286Y-15522619D01*
X13472809Y-15494048D01*
X13482333Y-15475000D01*
X13501381Y-15446428D01*
X13510905Y-15436905D01*
X13577571Y-15484524D02*
X13587095Y-15475000D01*
X13606143Y-15465476D01*
X13653762Y-15465476D01*
X13672809Y-15475000D01*
X13682333Y-15484524D01*
X13691857Y-15503571D01*
X13691857Y-15522619D01*
X13682333Y-15551190D01*
X13568048Y-15665476D01*
X13691857Y-15665476D01*
X13929952Y-15665476D02*
X13929952Y-15465476D01*
X14015667Y-15665476D02*
X14015667Y-15560714D01*
X14006143Y-15541667D01*
X13987095Y-15532143D01*
X13958524Y-15532143D01*
X13939476Y-15541667D01*
X13929952Y-15551190D01*
X14139476Y-15665476D02*
X14120428Y-15655952D01*
X14110905Y-15646428D01*
X14101381Y-15627381D01*
X14101381Y-15570238D01*
X14110905Y-15551190D01*
X14120428Y-15541667D01*
X14139476Y-15532143D01*
X14168048Y-15532143D01*
X14187095Y-15541667D01*
X14196619Y-15551190D01*
X14206143Y-15570238D01*
X14206143Y-15627381D01*
X14196619Y-15646428D01*
X14187095Y-15655952D01*
X14168048Y-15665476D01*
X14139476Y-15665476D01*
X14320428Y-15665476D02*
X14301381Y-15655952D01*
X14291857Y-15636905D01*
X14291857Y-15465476D01*
X14472809Y-15655952D02*
X14453762Y-15665476D01*
X14415667Y-15665476D01*
X14396619Y-15655952D01*
X14387095Y-15636905D01*
X14387095Y-15560714D01*
X14396619Y-15541667D01*
X14415667Y-15532143D01*
X14453762Y-15532143D01*
X14472809Y-15541667D01*
X14482333Y-15560714D01*
X14482333Y-15579762D01*
X14387095Y-15598809D01*
X14558524Y-15655952D02*
X14577571Y-15665476D01*
X14615667Y-15665476D01*
X14634714Y-15655952D01*
X14644238Y-15636905D01*
X14644238Y-15627381D01*
X14634714Y-15608333D01*
X14615667Y-15598809D01*
X14587095Y-15598809D01*
X14568048Y-15589286D01*
X14558524Y-15570238D01*
X14558524Y-15560714D01*
X14568048Y-15541667D01*
X14587095Y-15532143D01*
X14615667Y-15532143D01*
X14634714Y-15541667D01*
X14710905Y-15741667D02*
X14720428Y-15732143D01*
X14739476Y-15703571D01*
X14749000Y-15684524D01*
X14758524Y-15655952D01*
X14768048Y-15608333D01*
X14768048Y-15570238D01*
X14758524Y-15522619D01*
X14749000Y-15494048D01*
X14739476Y-15475000D01*
X14720428Y-15446428D01*
X14710905Y-15436905D01*
X15072809Y-15741667D02*
X15063286Y-15732143D01*
X15044238Y-15703571D01*
X15034714Y-15684524D01*
X15025190Y-15655952D01*
X15015667Y-15608333D01*
X15015667Y-15570238D01*
X15025190Y-15522619D01*
X15034714Y-15494048D01*
X15044238Y-15475000D01*
X15063286Y-15446428D01*
X15072809Y-15436905D01*
X15149000Y-15532143D02*
X15149000Y-15665476D01*
X15149000Y-15551190D02*
X15158524Y-15541667D01*
X15177571Y-15532143D01*
X15206143Y-15532143D01*
X15225190Y-15541667D01*
X15234714Y-15560714D01*
X15234714Y-15665476D01*
X15358524Y-15665476D02*
X15339476Y-15655952D01*
X15329952Y-15646428D01*
X15320428Y-15627381D01*
X15320428Y-15570238D01*
X15329952Y-15551190D01*
X15339476Y-15541667D01*
X15358524Y-15532143D01*
X15387095Y-15532143D01*
X15406143Y-15541667D01*
X15415667Y-15551190D01*
X15425190Y-15570238D01*
X15425190Y-15627381D01*
X15415667Y-15646428D01*
X15406143Y-15655952D01*
X15387095Y-15665476D01*
X15358524Y-15665476D01*
X15482333Y-15532143D02*
X15558524Y-15532143D01*
X15510905Y-15465476D02*
X15510905Y-15636905D01*
X15520428Y-15655952D01*
X15539476Y-15665476D01*
X15558524Y-15665476D01*
X15777571Y-15532143D02*
X15777571Y-15732143D01*
X15777571Y-15541667D02*
X15796619Y-15532143D01*
X15834714Y-15532143D01*
X15853762Y-15541667D01*
X15863286Y-15551190D01*
X15872809Y-15570238D01*
X15872809Y-15627381D01*
X15863286Y-15646428D01*
X15853762Y-15655952D01*
X15834714Y-15665476D01*
X15796619Y-15665476D01*
X15777571Y-15655952D01*
X15987095Y-15665476D02*
X15968048Y-15655952D01*
X15958524Y-15636905D01*
X15958524Y-15465476D01*
X16149000Y-15665476D02*
X16149000Y-15560714D01*
X16139476Y-15541667D01*
X16120428Y-15532143D01*
X16082333Y-15532143D01*
X16063286Y-15541667D01*
X16149000Y-15655952D02*
X16129952Y-15665476D01*
X16082333Y-15665476D01*
X16063286Y-15655952D01*
X16053762Y-15636905D01*
X16053762Y-15617857D01*
X16063286Y-15598809D01*
X16082333Y-15589286D01*
X16129952Y-15589286D01*
X16149000Y-15579762D01*
X16215667Y-15532143D02*
X16291857Y-15532143D01*
X16244238Y-15465476D02*
X16244238Y-15636905D01*
X16253762Y-15655952D01*
X16272809Y-15665476D01*
X16291857Y-15665476D01*
X16434714Y-15655952D02*
X16415667Y-15665476D01*
X16377571Y-15665476D01*
X16358524Y-15655952D01*
X16349000Y-15636905D01*
X16349000Y-15560714D01*
X16358524Y-15541667D01*
X16377571Y-15532143D01*
X16415667Y-15532143D01*
X16434714Y-15541667D01*
X16444238Y-15560714D01*
X16444238Y-15579762D01*
X16349000Y-15598809D01*
X16615667Y-15665476D02*
X16615667Y-15465476D01*
X16615667Y-15655952D02*
X16596619Y-15665476D01*
X16558524Y-15665476D01*
X16539476Y-15655952D01*
X16529952Y-15646428D01*
X16520428Y-15627381D01*
X16520428Y-15570238D01*
X16529952Y-15551190D01*
X16539476Y-15541667D01*
X16558524Y-15532143D01*
X16596619Y-15532143D01*
X16615667Y-15541667D01*
X16691857Y-15741667D02*
X16701381Y-15732143D01*
X16720428Y-15703571D01*
X16729952Y-15684524D01*
X16739476Y-15655952D01*
X16749000Y-15608333D01*
X16749000Y-15570238D01*
X16739476Y-15522619D01*
X16729952Y-15494048D01*
X16720428Y-15475000D01*
X16701381Y-15446428D01*
X16691857Y-15436905D01*
X9839000Y-15745000D02*
X9839000Y-15945000D01*
X9739000Y-15845000D02*
X9939000Y-15845000D01*
X10177571Y-15735476D02*
X10301381Y-15735476D01*
X10234714Y-15811667D01*
X10263286Y-15811667D01*
X10282333Y-15821190D01*
X10291857Y-15830714D01*
X10301381Y-15849762D01*
X10301381Y-15897381D01*
X10291857Y-15916428D01*
X10282333Y-15925952D01*
X10263286Y-15935476D01*
X10206143Y-15935476D01*
X10187095Y-15925952D01*
X10177571Y-15916428D01*
X10387095Y-15916428D02*
X10396619Y-15925952D01*
X10387095Y-15935476D01*
X10377571Y-15925952D01*
X10387095Y-15916428D01*
X10387095Y-15935476D01*
X10472810Y-15754524D02*
X10482333Y-15745000D01*
X10501381Y-15735476D01*
X10549000Y-15735476D01*
X10568048Y-15745000D01*
X10577571Y-15754524D01*
X10587095Y-15773571D01*
X10587095Y-15792619D01*
X10577571Y-15821190D01*
X10463286Y-15935476D01*
X10587095Y-15935476D01*
X10710905Y-15735476D02*
X10729952Y-15735476D01*
X10749000Y-15745000D01*
X10758524Y-15754524D01*
X10768048Y-15773571D01*
X10777571Y-15811667D01*
X10777571Y-15859286D01*
X10768048Y-15897381D01*
X10758524Y-15916428D01*
X10749000Y-15925952D01*
X10729952Y-15935476D01*
X10710905Y-15935476D01*
X10691857Y-15925952D01*
X10682333Y-15916428D01*
X10672810Y-15897381D01*
X10663286Y-15859286D01*
X10663286Y-15811667D01*
X10672810Y-15773571D01*
X10682333Y-15754524D01*
X10691857Y-15745000D01*
X10710905Y-15735476D01*
X10901381Y-15735476D02*
X10920429Y-15735476D01*
X10939476Y-15745000D01*
X10949000Y-15754524D01*
X10958524Y-15773571D01*
X10968048Y-15811667D01*
X10968048Y-15859286D01*
X10958524Y-15897381D01*
X10949000Y-15916428D01*
X10939476Y-15925952D01*
X10920429Y-15935476D01*
X10901381Y-15935476D01*
X10882333Y-15925952D01*
X10872810Y-15916428D01*
X10863286Y-15897381D01*
X10853762Y-15859286D01*
X10853762Y-15811667D01*
X10863286Y-15773571D01*
X10872810Y-15754524D01*
X10882333Y-15745000D01*
X10901381Y-15735476D01*
X11053762Y-15935476D02*
X11053762Y-15802143D01*
X11053762Y-15821190D02*
X11063286Y-15811667D01*
X11082333Y-15802143D01*
X11110905Y-15802143D01*
X11129952Y-15811667D01*
X11139476Y-15830714D01*
X11139476Y-15935476D01*
X11139476Y-15830714D02*
X11149000Y-15811667D01*
X11168048Y-15802143D01*
X11196619Y-15802143D01*
X11215667Y-15811667D01*
X11225190Y-15830714D01*
X11225190Y-15935476D01*
X11320428Y-15935476D02*
X11320428Y-15802143D01*
X11320428Y-15821190D02*
X11329952Y-15811667D01*
X11349000Y-15802143D01*
X11377571Y-15802143D01*
X11396619Y-15811667D01*
X11406143Y-15830714D01*
X11406143Y-15935476D01*
X11406143Y-15830714D02*
X11415667Y-15811667D01*
X11434714Y-15802143D01*
X11463286Y-15802143D01*
X11482333Y-15811667D01*
X11491857Y-15830714D01*
X11491857Y-15935476D01*
X11882333Y-15725952D02*
X11710905Y-15983095D01*
X12139476Y-15735476D02*
X12158524Y-15735476D01*
X12177571Y-15745000D01*
X12187095Y-15754524D01*
X12196619Y-15773571D01*
X12206143Y-15811667D01*
X12206143Y-15859286D01*
X12196619Y-15897381D01*
X12187095Y-15916428D01*
X12177571Y-15925952D01*
X12158524Y-15935476D01*
X12139476Y-15935476D01*
X12120428Y-15925952D01*
X12110905Y-15916428D01*
X12101381Y-15897381D01*
X12091857Y-15859286D01*
X12091857Y-15811667D01*
X12101381Y-15773571D01*
X12110905Y-15754524D01*
X12120428Y-15745000D01*
X12139476Y-15735476D01*
X12291857Y-15916428D02*
X12301381Y-15925952D01*
X12291857Y-15935476D01*
X12282333Y-15925952D01*
X12291857Y-15916428D01*
X12291857Y-15935476D01*
X12491857Y-15935476D02*
X12377571Y-15935476D01*
X12434714Y-15935476D02*
X12434714Y-15735476D01*
X12415667Y-15764048D01*
X12396619Y-15783095D01*
X12377571Y-15792619D01*
X12568048Y-15754524D02*
X12577571Y-15745000D01*
X12596619Y-15735476D01*
X12644238Y-15735476D01*
X12663286Y-15745000D01*
X12672809Y-15754524D01*
X12682333Y-15773571D01*
X12682333Y-15792619D01*
X12672809Y-15821190D01*
X12558524Y-15935476D01*
X12682333Y-15935476D01*
X12853762Y-15735476D02*
X12815667Y-15735476D01*
X12796619Y-15745000D01*
X12787095Y-15754524D01*
X12768048Y-15783095D01*
X12758524Y-15821190D01*
X12758524Y-15897381D01*
X12768048Y-15916428D01*
X12777571Y-15925952D01*
X12796619Y-15935476D01*
X12834714Y-15935476D01*
X12853762Y-15925952D01*
X12863286Y-15916428D01*
X12872809Y-15897381D01*
X12872809Y-15849762D01*
X12863286Y-15830714D01*
X12853762Y-15821190D01*
X12834714Y-15811667D01*
X12796619Y-15811667D01*
X12777571Y-15821190D01*
X12768048Y-15830714D01*
X12758524Y-15849762D01*
X12996619Y-15735476D02*
X13015667Y-15735476D01*
X13034714Y-15745000D01*
X13044238Y-15754524D01*
X13053762Y-15773571D01*
X13063286Y-15811667D01*
X13063286Y-15859286D01*
X13053762Y-15897381D01*
X13044238Y-15916428D01*
X13034714Y-15925952D01*
X13015667Y-15935476D01*
X12996619Y-15935476D01*
X12977571Y-15925952D01*
X12968048Y-15916428D01*
X12958524Y-15897381D01*
X12949000Y-15859286D01*
X12949000Y-15811667D01*
X12958524Y-15773571D01*
X12968048Y-15754524D01*
X12977571Y-15745000D01*
X12996619Y-15735476D01*
X13139476Y-15735476D02*
X13139476Y-15773571D01*
X13215667Y-15735476D02*
X13215667Y-15773571D01*
X13510905Y-16011667D02*
X13501381Y-16002143D01*
X13482333Y-15973571D01*
X13472809Y-15954524D01*
X13463286Y-15925952D01*
X13453762Y-15878333D01*
X13453762Y-15840238D01*
X13463286Y-15792619D01*
X13472809Y-15764048D01*
X13482333Y-15745000D01*
X13501381Y-15716428D01*
X13510905Y-15706905D01*
X13672809Y-15802143D02*
X13672809Y-15935476D01*
X13625190Y-15725952D02*
X13577571Y-15868809D01*
X13701381Y-15868809D01*
X13929952Y-15935476D02*
X13929952Y-15735476D01*
X14015667Y-15935476D02*
X14015667Y-15830714D01*
X14006143Y-15811667D01*
X13987095Y-15802143D01*
X13958524Y-15802143D01*
X13939476Y-15811667D01*
X13929952Y-15821190D01*
X14139476Y-15935476D02*
X14120428Y-15925952D01*
X14110905Y-15916428D01*
X14101381Y-15897381D01*
X14101381Y-15840238D01*
X14110905Y-15821190D01*
X14120428Y-15811667D01*
X14139476Y-15802143D01*
X14168048Y-15802143D01*
X14187095Y-15811667D01*
X14196619Y-15821190D01*
X14206143Y-15840238D01*
X14206143Y-15897381D01*
X14196619Y-15916428D01*
X14187095Y-15925952D01*
X14168048Y-15935476D01*
X14139476Y-15935476D01*
X14320428Y-15935476D02*
X14301381Y-15925952D01*
X14291857Y-15906905D01*
X14291857Y-15735476D01*
X14472809Y-15925952D02*
X14453762Y-15935476D01*
X14415667Y-15935476D01*
X14396619Y-15925952D01*
X14387095Y-15906905D01*
X14387095Y-15830714D01*
X14396619Y-15811667D01*
X14415667Y-15802143D01*
X14453762Y-15802143D01*
X14472809Y-15811667D01*
X14482333Y-15830714D01*
X14482333Y-15849762D01*
X14387095Y-15868809D01*
X14558524Y-15925952D02*
X14577571Y-15935476D01*
X14615667Y-15935476D01*
X14634714Y-15925952D01*
X14644238Y-15906905D01*
X14644238Y-15897381D01*
X14634714Y-15878333D01*
X14615667Y-15868809D01*
X14587095Y-15868809D01*
X14568048Y-15859286D01*
X14558524Y-15840238D01*
X14558524Y-15830714D01*
X14568048Y-15811667D01*
X14587095Y-15802143D01*
X14615667Y-15802143D01*
X14634714Y-15811667D01*
X14710905Y-16011667D02*
X14720428Y-16002143D01*
X14739476Y-15973571D01*
X14749000Y-15954524D01*
X14758524Y-15925952D01*
X14768048Y-15878333D01*
X14768048Y-15840238D01*
X14758524Y-15792619D01*
X14749000Y-15764048D01*
X14739476Y-15745000D01*
X14720428Y-15716428D01*
X14710905Y-15706905D01*
X15072809Y-16011667D02*
X15063286Y-16002143D01*
X15044238Y-15973571D01*
X15034714Y-15954524D01*
X15025190Y-15925952D01*
X15015667Y-15878333D01*
X15015667Y-15840238D01*
X15025190Y-15792619D01*
X15034714Y-15764048D01*
X15044238Y-15745000D01*
X15063286Y-15716428D01*
X15072809Y-15706905D01*
X15149000Y-15802143D02*
X15149000Y-15935476D01*
X15149000Y-15821190D02*
X15158524Y-15811667D01*
X15177571Y-15802143D01*
X15206143Y-15802143D01*
X15225190Y-15811667D01*
X15234714Y-15830714D01*
X15234714Y-15935476D01*
X15358524Y-15935476D02*
X15339476Y-15925952D01*
X15329952Y-15916428D01*
X15320428Y-15897381D01*
X15320428Y-15840238D01*
X15329952Y-15821190D01*
X15339476Y-15811667D01*
X15358524Y-15802143D01*
X15387095Y-15802143D01*
X15406143Y-15811667D01*
X15415667Y-15821190D01*
X15425190Y-15840238D01*
X15425190Y-15897381D01*
X15415667Y-15916428D01*
X15406143Y-15925952D01*
X15387095Y-15935476D01*
X15358524Y-15935476D01*
X15482333Y-15802143D02*
X15558524Y-15802143D01*
X15510905Y-15735476D02*
X15510905Y-15906905D01*
X15520428Y-15925952D01*
X15539476Y-15935476D01*
X15558524Y-15935476D01*
X15777571Y-15802143D02*
X15777571Y-16002143D01*
X15777571Y-15811667D02*
X15796619Y-15802143D01*
X15834714Y-15802143D01*
X15853762Y-15811667D01*
X15863286Y-15821190D01*
X15872809Y-15840238D01*
X15872809Y-15897381D01*
X15863286Y-15916428D01*
X15853762Y-15925952D01*
X15834714Y-15935476D01*
X15796619Y-15935476D01*
X15777571Y-15925952D01*
X15987095Y-15935476D02*
X15968048Y-15925952D01*
X15958524Y-15906905D01*
X15958524Y-15735476D01*
X16149000Y-15935476D02*
X16149000Y-15830714D01*
X16139476Y-15811667D01*
X16120428Y-15802143D01*
X16082333Y-15802143D01*
X16063286Y-15811667D01*
X16149000Y-15925952D02*
X16129952Y-15935476D01*
X16082333Y-15935476D01*
X16063286Y-15925952D01*
X16053762Y-15906905D01*
X16053762Y-15887857D01*
X16063286Y-15868809D01*
X16082333Y-15859286D01*
X16129952Y-15859286D01*
X16149000Y-15849762D01*
X16215667Y-15802143D02*
X16291857Y-15802143D01*
X16244238Y-15735476D02*
X16244238Y-15906905D01*
X16253762Y-15925952D01*
X16272809Y-15935476D01*
X16291857Y-15935476D01*
X16434714Y-15925952D02*
X16415667Y-15935476D01*
X16377571Y-15935476D01*
X16358524Y-15925952D01*
X16349000Y-15906905D01*
X16349000Y-15830714D01*
X16358524Y-15811667D01*
X16377571Y-15802143D01*
X16415667Y-15802143D01*
X16434714Y-15811667D01*
X16444238Y-15830714D01*
X16444238Y-15849762D01*
X16349000Y-15868809D01*
X16615667Y-15935476D02*
X16615667Y-15735476D01*
X16615667Y-15925952D02*
X16596619Y-15935476D01*
X16558524Y-15935476D01*
X16539476Y-15925952D01*
X16529952Y-15916428D01*
X16520428Y-15897381D01*
X16520428Y-15840238D01*
X16529952Y-15821190D01*
X16539476Y-15811667D01*
X16558524Y-15802143D01*
X16596619Y-15802143D01*
X16615667Y-15811667D01*
X16691857Y-16011667D02*
X16701381Y-16002143D01*
X16720428Y-15973571D01*
X16729952Y-15954524D01*
X16739476Y-15925952D01*
X16749000Y-15878333D01*
X16749000Y-15840238D01*
X16739476Y-15792619D01*
X16729952Y-15764048D01*
X16720428Y-15745000D01*
X16701381Y-15716428D01*
X16691857Y-15706905D01*
X9909711Y-16235711D02*
X9909711Y-16094289D01*
X9768289Y-16094289D01*
X9768289Y-16235711D01*
X9909711Y-16235711D01*
X10177571Y-16055476D02*
X10301381Y-16055476D01*
X10234714Y-16131667D01*
X10263286Y-16131667D01*
X10282333Y-16141190D01*
X10291857Y-16150714D01*
X10301381Y-16169762D01*
X10301381Y-16217381D01*
X10291857Y-16236428D01*
X10282333Y-16245952D01*
X10263286Y-16255476D01*
X10206143Y-16255476D01*
X10187095Y-16245952D01*
X10177571Y-16236428D01*
X10387095Y-16236428D02*
X10396619Y-16245952D01*
X10387095Y-16255476D01*
X10377571Y-16245952D01*
X10387095Y-16236428D01*
X10387095Y-16255476D01*
X10472810Y-16074524D02*
X10482333Y-16065000D01*
X10501381Y-16055476D01*
X10549000Y-16055476D01*
X10568048Y-16065000D01*
X10577571Y-16074524D01*
X10587095Y-16093571D01*
X10587095Y-16112619D01*
X10577571Y-16141190D01*
X10463286Y-16255476D01*
X10587095Y-16255476D01*
X10768048Y-16055476D02*
X10672810Y-16055476D01*
X10663286Y-16150714D01*
X10672810Y-16141190D01*
X10691857Y-16131667D01*
X10739476Y-16131667D01*
X10758524Y-16141190D01*
X10768048Y-16150714D01*
X10777571Y-16169762D01*
X10777571Y-16217381D01*
X10768048Y-16236428D01*
X10758524Y-16245952D01*
X10739476Y-16255476D01*
X10691857Y-16255476D01*
X10672810Y-16245952D01*
X10663286Y-16236428D01*
X10901381Y-16055476D02*
X10920429Y-16055476D01*
X10939476Y-16065000D01*
X10949000Y-16074524D01*
X10958524Y-16093571D01*
X10968048Y-16131667D01*
X10968048Y-16179286D01*
X10958524Y-16217381D01*
X10949000Y-16236428D01*
X10939476Y-16245952D01*
X10920429Y-16255476D01*
X10901381Y-16255476D01*
X10882333Y-16245952D01*
X10872810Y-16236428D01*
X10863286Y-16217381D01*
X10853762Y-16179286D01*
X10853762Y-16131667D01*
X10863286Y-16093571D01*
X10872810Y-16074524D01*
X10882333Y-16065000D01*
X10901381Y-16055476D01*
X11053762Y-16255476D02*
X11053762Y-16122143D01*
X11053762Y-16141190D02*
X11063286Y-16131667D01*
X11082333Y-16122143D01*
X11110905Y-16122143D01*
X11129952Y-16131667D01*
X11139476Y-16150714D01*
X11139476Y-16255476D01*
X11139476Y-16150714D02*
X11149000Y-16131667D01*
X11168048Y-16122143D01*
X11196619Y-16122143D01*
X11215667Y-16131667D01*
X11225190Y-16150714D01*
X11225190Y-16255476D01*
X11320428Y-16255476D02*
X11320428Y-16122143D01*
X11320428Y-16141190D02*
X11329952Y-16131667D01*
X11349000Y-16122143D01*
X11377571Y-16122143D01*
X11396619Y-16131667D01*
X11406143Y-16150714D01*
X11406143Y-16255476D01*
X11406143Y-16150714D02*
X11415667Y-16131667D01*
X11434714Y-16122143D01*
X11463286Y-16122143D01*
X11482333Y-16131667D01*
X11491857Y-16150714D01*
X11491857Y-16255476D01*
X11882333Y-16045952D02*
X11710905Y-16303095D01*
X12139476Y-16055476D02*
X12158524Y-16055476D01*
X12177571Y-16065000D01*
X12187095Y-16074524D01*
X12196619Y-16093571D01*
X12206143Y-16131667D01*
X12206143Y-16179286D01*
X12196619Y-16217381D01*
X12187095Y-16236428D01*
X12177571Y-16245952D01*
X12158524Y-16255476D01*
X12139476Y-16255476D01*
X12120428Y-16245952D01*
X12110905Y-16236428D01*
X12101381Y-16217381D01*
X12091857Y-16179286D01*
X12091857Y-16131667D01*
X12101381Y-16093571D01*
X12110905Y-16074524D01*
X12120428Y-16065000D01*
X12139476Y-16055476D01*
X12291857Y-16236428D02*
X12301381Y-16245952D01*
X12291857Y-16255476D01*
X12282333Y-16245952D01*
X12291857Y-16236428D01*
X12291857Y-16255476D01*
X12491857Y-16255476D02*
X12377571Y-16255476D01*
X12434714Y-16255476D02*
X12434714Y-16055476D01*
X12415667Y-16084048D01*
X12396619Y-16103095D01*
X12377571Y-16112619D01*
X12568048Y-16074524D02*
X12577571Y-16065000D01*
X12596619Y-16055476D01*
X12644238Y-16055476D01*
X12663286Y-16065000D01*
X12672809Y-16074524D01*
X12682333Y-16093571D01*
X12682333Y-16112619D01*
X12672809Y-16141190D01*
X12558524Y-16255476D01*
X12682333Y-16255476D01*
X12796619Y-16141190D02*
X12777571Y-16131667D01*
X12768048Y-16122143D01*
X12758524Y-16103095D01*
X12758524Y-16093571D01*
X12768048Y-16074524D01*
X12777571Y-16065000D01*
X12796619Y-16055476D01*
X12834714Y-16055476D01*
X12853762Y-16065000D01*
X12863286Y-16074524D01*
X12872809Y-16093571D01*
X12872809Y-16103095D01*
X12863286Y-16122143D01*
X12853762Y-16131667D01*
X12834714Y-16141190D01*
X12796619Y-16141190D01*
X12777571Y-16150714D01*
X12768048Y-16160238D01*
X12758524Y-16179286D01*
X12758524Y-16217381D01*
X12768048Y-16236428D01*
X12777571Y-16245952D01*
X12796619Y-16255476D01*
X12834714Y-16255476D01*
X12853762Y-16245952D01*
X12863286Y-16236428D01*
X12872809Y-16217381D01*
X12872809Y-16179286D01*
X12863286Y-16160238D01*
X12853762Y-16150714D01*
X12834714Y-16141190D01*
X12996619Y-16055476D02*
X13015667Y-16055476D01*
X13034714Y-16065000D01*
X13044238Y-16074524D01*
X13053762Y-16093571D01*
X13063286Y-16131667D01*
X13063286Y-16179286D01*
X13053762Y-16217381D01*
X13044238Y-16236428D01*
X13034714Y-16245952D01*
X13015667Y-16255476D01*
X12996619Y-16255476D01*
X12977571Y-16245952D01*
X12968048Y-16236428D01*
X12958524Y-16217381D01*
X12949000Y-16179286D01*
X12949000Y-16131667D01*
X12958524Y-16093571D01*
X12968048Y-16074524D01*
X12977571Y-16065000D01*
X12996619Y-16055476D01*
X13139476Y-16055476D02*
X13139476Y-16093571D01*
X13215667Y-16055476D02*
X13215667Y-16093571D01*
X13510905Y-16331667D02*
X13501381Y-16322143D01*
X13482333Y-16293571D01*
X13472809Y-16274524D01*
X13463286Y-16245952D01*
X13453762Y-16198333D01*
X13453762Y-16160238D01*
X13463286Y-16112619D01*
X13472809Y-16084048D01*
X13482333Y-16065000D01*
X13501381Y-16036428D01*
X13510905Y-16026905D01*
X13577571Y-16074524D02*
X13587095Y-16065000D01*
X13606143Y-16055476D01*
X13653762Y-16055476D01*
X13672809Y-16065000D01*
X13682333Y-16074524D01*
X13691857Y-16093571D01*
X13691857Y-16112619D01*
X13682333Y-16141190D01*
X13568048Y-16255476D01*
X13691857Y-16255476D01*
X13929952Y-16255476D02*
X13929952Y-16055476D01*
X14015667Y-16255476D02*
X14015667Y-16150714D01*
X14006143Y-16131667D01*
X13987095Y-16122143D01*
X13958524Y-16122143D01*
X13939476Y-16131667D01*
X13929952Y-16141190D01*
X14139476Y-16255476D02*
X14120428Y-16245952D01*
X14110905Y-16236428D01*
X14101381Y-16217381D01*
X14101381Y-16160238D01*
X14110905Y-16141190D01*
X14120428Y-16131667D01*
X14139476Y-16122143D01*
X14168048Y-16122143D01*
X14187095Y-16131667D01*
X14196619Y-16141190D01*
X14206143Y-16160238D01*
X14206143Y-16217381D01*
X14196619Y-16236428D01*
X14187095Y-16245952D01*
X14168048Y-16255476D01*
X14139476Y-16255476D01*
X14320428Y-16255476D02*
X14301381Y-16245952D01*
X14291857Y-16226905D01*
X14291857Y-16055476D01*
X14472809Y-16245952D02*
X14453762Y-16255476D01*
X14415667Y-16255476D01*
X14396619Y-16245952D01*
X14387095Y-16226905D01*
X14387095Y-16150714D01*
X14396619Y-16131667D01*
X14415667Y-16122143D01*
X14453762Y-16122143D01*
X14472809Y-16131667D01*
X14482333Y-16150714D01*
X14482333Y-16169762D01*
X14387095Y-16188809D01*
X14558524Y-16245952D02*
X14577571Y-16255476D01*
X14615667Y-16255476D01*
X14634714Y-16245952D01*
X14644238Y-16226905D01*
X14644238Y-16217381D01*
X14634714Y-16198333D01*
X14615667Y-16188809D01*
X14587095Y-16188809D01*
X14568048Y-16179286D01*
X14558524Y-16160238D01*
X14558524Y-16150714D01*
X14568048Y-16131667D01*
X14587095Y-16122143D01*
X14615667Y-16122143D01*
X14634714Y-16131667D01*
X14710905Y-16331667D02*
X14720428Y-16322143D01*
X14739476Y-16293571D01*
X14749000Y-16274524D01*
X14758524Y-16245952D01*
X14768048Y-16198333D01*
X14768048Y-16160238D01*
X14758524Y-16112619D01*
X14749000Y-16084048D01*
X14739476Y-16065000D01*
X14720428Y-16036428D01*
X14710905Y-16026905D01*
X15072809Y-16331667D02*
X15063286Y-16322143D01*
X15044238Y-16293571D01*
X15034714Y-16274524D01*
X15025190Y-16245952D01*
X15015667Y-16198333D01*
X15015667Y-16160238D01*
X15025190Y-16112619D01*
X15034714Y-16084048D01*
X15044238Y-16065000D01*
X15063286Y-16036428D01*
X15072809Y-16026905D01*
X15149000Y-16122143D02*
X15149000Y-16255476D01*
X15149000Y-16141190D02*
X15158524Y-16131667D01*
X15177571Y-16122143D01*
X15206143Y-16122143D01*
X15225190Y-16131667D01*
X15234714Y-16150714D01*
X15234714Y-16255476D01*
X15358524Y-16255476D02*
X15339476Y-16245952D01*
X15329952Y-16236428D01*
X15320428Y-16217381D01*
X15320428Y-16160238D01*
X15329952Y-16141190D01*
X15339476Y-16131667D01*
X15358524Y-16122143D01*
X15387095Y-16122143D01*
X15406143Y-16131667D01*
X15415667Y-16141190D01*
X15425190Y-16160238D01*
X15425190Y-16217381D01*
X15415667Y-16236428D01*
X15406143Y-16245952D01*
X15387095Y-16255476D01*
X15358524Y-16255476D01*
X15482333Y-16122143D02*
X15558524Y-16122143D01*
X15510905Y-16055476D02*
X15510905Y-16226905D01*
X15520428Y-16245952D01*
X15539476Y-16255476D01*
X15558524Y-16255476D01*
X15777571Y-16122143D02*
X15777571Y-16322143D01*
X15777571Y-16131667D02*
X15796619Y-16122143D01*
X15834714Y-16122143D01*
X15853762Y-16131667D01*
X15863286Y-16141190D01*
X15872809Y-16160238D01*
X15872809Y-16217381D01*
X15863286Y-16236428D01*
X15853762Y-16245952D01*
X15834714Y-16255476D01*
X15796619Y-16255476D01*
X15777571Y-16245952D01*
X15987095Y-16255476D02*
X15968048Y-16245952D01*
X15958524Y-16226905D01*
X15958524Y-16055476D01*
X16149000Y-16255476D02*
X16149000Y-16150714D01*
X16139476Y-16131667D01*
X16120428Y-16122143D01*
X16082333Y-16122143D01*
X16063286Y-16131667D01*
X16149000Y-16245952D02*
X16129952Y-16255476D01*
X16082333Y-16255476D01*
X16063286Y-16245952D01*
X16053762Y-16226905D01*
X16053762Y-16207857D01*
X16063286Y-16188809D01*
X16082333Y-16179286D01*
X16129952Y-16179286D01*
X16149000Y-16169762D01*
X16215667Y-16122143D02*
X16291857Y-16122143D01*
X16244238Y-16055476D02*
X16244238Y-16226905D01*
X16253762Y-16245952D01*
X16272809Y-16255476D01*
X16291857Y-16255476D01*
X16434714Y-16245952D02*
X16415667Y-16255476D01*
X16377571Y-16255476D01*
X16358524Y-16245952D01*
X16349000Y-16226905D01*
X16349000Y-16150714D01*
X16358524Y-16131667D01*
X16377571Y-16122143D01*
X16415667Y-16122143D01*
X16434714Y-16131667D01*
X16444238Y-16150714D01*
X16444238Y-16169762D01*
X16349000Y-16188809D01*
X16615667Y-16255476D02*
X16615667Y-16055476D01*
X16615667Y-16245952D02*
X16596619Y-16255476D01*
X16558524Y-16255476D01*
X16539476Y-16245952D01*
X16529952Y-16236428D01*
X16520428Y-16217381D01*
X16520428Y-16160238D01*
X16529952Y-16141190D01*
X16539476Y-16131667D01*
X16558524Y-16122143D01*
X16596619Y-16122143D01*
X16615667Y-16131667D01*
X16691857Y-16331667D02*
X16701381Y-16322143D01*
X16720428Y-16293571D01*
X16729952Y-16274524D01*
X16739476Y-16245952D01*
X16749000Y-16198333D01*
X16749000Y-16160238D01*
X16739476Y-16112619D01*
X16729952Y-16084048D01*
X16720428Y-16065000D01*
X16701381Y-16036428D01*
X16691857Y-16026905D01*
M02*
