%TF.GenerationSoftware,KiCad,Pcbnew,(6.0.8)*%
%TF.CreationDate,2024-01-04T13:58:09-05:00*%
%TF.ProjectId,lb_mp1,6c625f6d-7031-42e6-9b69-6361645f7063,rev?*%
%TF.SameCoordinates,Original*%
%TF.FileFunction,Drillmap*%
%TF.FilePolarity,Positive*%
%FSLAX45Y45*%
G04 Gerber Fmt 4.5, Leading zero omitted, Abs format (unit mm)*
G04 Created by KiCad (PCBNEW (6.0.8)) date 2024-01-04 13:58:09*
%MOMM*%
%LPD*%
G01*
G04 APERTURE LIST*
%ADD10C,0.100000*%
%ADD11C,0.200000*%
%ADD12C,0.030000*%
%ADD13C,0.030480*%
%ADD14C,0.060000*%
%ADD15C,0.075000*%
%ADD16C,0.085000*%
%ADD17C,0.090000*%
%ADD18C,0.092000*%
%ADD19C,0.102000*%
%ADD20C,0.150000*%
%ADD21C,0.152000*%
%ADD22C,0.163000*%
G04 APERTURE END LIST*
D10*
X9944000Y-14166000D02*
G75*
G03*
X10444000Y-14666000I500000J0D01*
G01*
X15890000Y-12560000D02*
G75*
G03*
X15860000Y-12590000I0J-30000D01*
G01*
X15890000Y-12560000D02*
X15930000Y-12560000D01*
X15860000Y-12590000D02*
X15860000Y-13430000D01*
X19444000Y-4666000D02*
X10444000Y-4666000D01*
X19944000Y-5166000D02*
G75*
G03*
X19444000Y-4666000I-500000J0D01*
G01*
X19444000Y-14666000D02*
G75*
G03*
X19944000Y-14166000I0J500000D01*
G01*
X15930000Y-13460000D02*
G75*
G03*
X15960000Y-13430000I0J30000D01*
G01*
X19944000Y-14166000D02*
X19944000Y-5166000D01*
X15960000Y-12590000D02*
G75*
G03*
X15930000Y-12560000I-30000J0D01*
G01*
X10444000Y-14666000D02*
X19444000Y-14666000D01*
X15860000Y-13430000D02*
G75*
G03*
X15890000Y-13460000I30000J0D01*
G01*
X15890000Y-13460000D02*
X15930000Y-13460000D01*
X10444000Y-4666000D02*
G75*
G03*
X9944000Y-5166000I0J-500000D01*
G01*
X9944000Y-5166000D02*
X9944000Y-14166000D01*
X15960000Y-13430000D02*
X15960000Y-12590000D01*
D11*
D12*
X10265000Y-10865000D02*
X10295000Y-10895000D01*
X10295000Y-10865000D02*
X10265000Y-10895000D01*
X10265000Y-10975000D02*
X10295000Y-11005000D01*
X10295000Y-10975000D02*
X10265000Y-11005000D01*
X10265000Y-11195000D02*
X10295000Y-11225000D01*
X10295000Y-11195000D02*
X10265000Y-11225000D01*
X10275000Y-11415000D02*
X10305000Y-11445000D01*
X10305000Y-11415000D02*
X10275000Y-11445000D01*
X10275000Y-11525000D02*
X10305000Y-11555000D01*
X10305000Y-11525000D02*
X10275000Y-11555000D01*
X10275000Y-11645000D02*
X10305000Y-11675000D01*
X10305000Y-11645000D02*
X10275000Y-11675000D01*
X10488000Y-12172000D02*
X10518000Y-12202000D01*
X10518000Y-12172000D02*
X10488000Y-12202000D01*
X10574000Y-8727000D02*
X10604000Y-8757000D01*
X10604000Y-8727000D02*
X10574000Y-8757000D01*
X10915000Y-7085000D02*
X10945000Y-7115000D01*
X10945000Y-7085000D02*
X10915000Y-7115000D01*
X10950000Y-6990000D02*
X10980000Y-7020000D01*
X10980000Y-6990000D02*
X10950000Y-7020000D01*
X11045000Y-8585000D02*
X11075000Y-8615000D01*
X11075000Y-8585000D02*
X11045000Y-8615000D01*
X11065000Y-8015000D02*
X11095000Y-8045000D01*
X11095000Y-8015000D02*
X11065000Y-8045000D01*
X11095000Y-9885000D02*
X11125000Y-9915000D01*
X11125000Y-9885000D02*
X11095000Y-9915000D01*
X11101000Y-8184000D02*
X11131000Y-8214000D01*
X11131000Y-8184000D02*
X11101000Y-8214000D01*
X11255000Y-6535000D02*
X11285000Y-6565000D01*
X11285000Y-6535000D02*
X11255000Y-6565000D01*
X11360000Y-7530000D02*
X11390000Y-7560000D01*
X11390000Y-7530000D02*
X11360000Y-7560000D01*
X11369000Y-6683000D02*
X11399000Y-6713000D01*
X11399000Y-6683000D02*
X11369000Y-6713000D01*
X11473000Y-7209000D02*
X11503000Y-7239000D01*
X11503000Y-7209000D02*
X11473000Y-7239000D01*
X11485000Y-9095000D02*
X11515000Y-9125000D01*
X11515000Y-9095000D02*
X11485000Y-9125000D01*
X11499446Y-6730169D02*
X11529446Y-6760169D01*
X11529446Y-6730169D02*
X11499446Y-6760169D01*
X11595000Y-11305000D02*
X11625000Y-11335000D01*
X11625000Y-11305000D02*
X11595000Y-11335000D01*
X11689000Y-6960000D02*
X11719000Y-6990000D01*
X11719000Y-6960000D02*
X11689000Y-6990000D01*
X11728500Y-11198500D02*
X11758500Y-11228500D01*
X11758500Y-11198500D02*
X11728500Y-11228500D01*
X11731000Y-6673000D02*
X11761000Y-6703000D01*
X11761000Y-6673000D02*
X11731000Y-6703000D01*
X11744000Y-10626000D02*
X11774000Y-10656000D01*
X11774000Y-10626000D02*
X11744000Y-10656000D01*
X11745000Y-10825000D02*
X11775000Y-10855000D01*
X11775000Y-10825000D02*
X11745000Y-10855000D01*
X11752000Y-11822000D02*
X11782000Y-11852000D01*
X11782000Y-11822000D02*
X11752000Y-11852000D01*
X11774000Y-7337000D02*
X11804000Y-7367000D01*
X11804000Y-7337000D02*
X11774000Y-7367000D01*
X11779000Y-5941000D02*
X11809000Y-5971000D01*
X11809000Y-5941000D02*
X11779000Y-5971000D01*
X11815000Y-11575000D02*
X11845000Y-11605000D01*
X11845000Y-11575000D02*
X11815000Y-11605000D01*
X11829000Y-7401000D02*
X11859000Y-7431000D01*
X11859000Y-7401000D02*
X11829000Y-7431000D01*
X11869000Y-7967000D02*
X11899000Y-7997000D01*
X11899000Y-7967000D02*
X11869000Y-7997000D01*
X11911000Y-7611000D02*
X11941000Y-7641000D01*
X11941000Y-7611000D02*
X11911000Y-7641000D01*
X11937000Y-7535000D02*
X11967000Y-7565000D01*
X11967000Y-7535000D02*
X11937000Y-7565000D01*
X11959000Y-6471000D02*
X11989000Y-6501000D01*
X11989000Y-6471000D02*
X11959000Y-6501000D01*
X11999000Y-6588000D02*
X12029000Y-6618000D01*
X12029000Y-6588000D02*
X11999000Y-6618000D01*
X12005000Y-8445000D02*
X12035000Y-8475000D01*
X12035000Y-8445000D02*
X12005000Y-8475000D01*
X12045000Y-6085000D02*
X12075000Y-6115000D01*
X12075000Y-6085000D02*
X12045000Y-6115000D01*
X12135000Y-6415000D02*
X12165000Y-6445000D01*
X12165000Y-6415000D02*
X12135000Y-6445000D01*
X12165000Y-11885000D02*
X12195000Y-11915000D01*
X12195000Y-11885000D02*
X12165000Y-11915000D01*
X12225000Y-5925000D02*
X12255000Y-5955000D01*
X12255000Y-5925000D02*
X12225000Y-5955000D01*
X12225000Y-7855000D02*
X12255000Y-7885000D01*
X12255000Y-7855000D02*
X12225000Y-7885000D01*
X12235000Y-9495000D02*
X12265000Y-9525000D01*
X12265000Y-9495000D02*
X12235000Y-9525000D01*
X12285000Y-6425000D02*
X12315000Y-6455000D01*
X12315000Y-6425000D02*
X12285000Y-6455000D01*
X12315000Y-7575000D02*
X12345000Y-7605000D01*
X12345000Y-7575000D02*
X12315000Y-7605000D01*
X12332017Y-6501374D02*
X12362017Y-6531374D01*
X12362017Y-6501374D02*
X12332017Y-6531374D01*
X12365000Y-10745000D02*
X12395000Y-10775000D01*
X12395000Y-10745000D02*
X12365000Y-10775000D01*
X12379000Y-5901000D02*
X12409000Y-5931000D01*
X12409000Y-5901000D02*
X12379000Y-5931000D01*
X12385000Y-5108000D02*
X12415000Y-5138000D01*
X12415000Y-5108000D02*
X12385000Y-5138000D01*
X12385000Y-11415000D02*
X12415000Y-11445000D01*
X12415000Y-11415000D02*
X12385000Y-11445000D01*
X12393000Y-11661000D02*
X12423000Y-11691000D01*
X12423000Y-11661000D02*
X12393000Y-11691000D01*
X12449000Y-7691000D02*
X12479000Y-7721000D01*
X12479000Y-7691000D02*
X12449000Y-7721000D01*
X12485000Y-10915000D02*
X12515000Y-10945000D01*
X12515000Y-10915000D02*
X12485000Y-10945000D01*
X12489000Y-7471000D02*
X12519000Y-7501000D01*
X12519000Y-7471000D02*
X12489000Y-7501000D01*
X12529000Y-7331000D02*
X12559000Y-7361000D01*
X12559000Y-7331000D02*
X12529000Y-7361000D01*
X12599000Y-6571000D02*
X12629000Y-6601000D01*
X12629000Y-6571000D02*
X12599000Y-6601000D01*
X12615000Y-9985000D02*
X12645000Y-10015000D01*
X12645000Y-9985000D02*
X12615000Y-10015000D01*
X12619000Y-7123000D02*
X12649000Y-7153000D01*
X12649000Y-7123000D02*
X12619000Y-7153000D01*
X12631000Y-11995000D02*
X12661000Y-12025000D01*
X12661000Y-11995000D02*
X12631000Y-12025000D01*
X12633000Y-6950000D02*
X12663000Y-6980000D01*
X12663000Y-6950000D02*
X12633000Y-6980000D01*
X12674000Y-7232000D02*
X12704000Y-7262000D01*
X12704000Y-7232000D02*
X12674000Y-7262000D01*
X12699000Y-6381000D02*
X12729000Y-6411000D01*
X12729000Y-6381000D02*
X12699000Y-6411000D01*
X12775000Y-7495000D02*
X12805000Y-7525000D01*
X12805000Y-7495000D02*
X12775000Y-7525000D01*
X12842000Y-7395000D02*
X12872000Y-7425000D01*
X12872000Y-7395000D02*
X12842000Y-7425000D01*
X12849000Y-7241000D02*
X12879000Y-7271000D01*
X12879000Y-7241000D02*
X12849000Y-7271000D01*
X12985000Y-8725000D02*
X13015000Y-8755000D01*
X13015000Y-8725000D02*
X12985000Y-8755000D01*
X12999000Y-6778000D02*
X13029000Y-6808000D01*
X13029000Y-6778000D02*
X12999000Y-6808000D01*
X13075000Y-7955000D02*
X13105000Y-7985000D01*
X13105000Y-7955000D02*
X13075000Y-7985000D01*
X13080000Y-7013000D02*
X13110000Y-7043000D01*
X13110000Y-7013000D02*
X13080000Y-7043000D01*
X13080000Y-9324000D02*
X13110000Y-9354000D01*
X13110000Y-9324000D02*
X13080000Y-9354000D01*
X13118000Y-11961000D02*
X13148000Y-11991000D01*
X13148000Y-11961000D02*
X13118000Y-11991000D01*
X13195000Y-9535000D02*
X13225000Y-9565000D01*
X13225000Y-9535000D02*
X13195000Y-9565000D01*
X13295000Y-7635000D02*
X13325000Y-7665000D01*
X13325000Y-7635000D02*
X13295000Y-7665000D01*
X13409500Y-7164500D02*
X13439500Y-7194500D01*
X13439500Y-7164500D02*
X13409500Y-7194500D01*
X13615000Y-9015000D02*
X13645000Y-9045000D01*
X13645000Y-9015000D02*
X13615000Y-9045000D01*
X13620000Y-7955000D02*
X13650000Y-7985000D01*
X13650000Y-7955000D02*
X13620000Y-7985000D01*
X13625000Y-8725000D02*
X13655000Y-8755000D01*
X13655000Y-8725000D02*
X13625000Y-8755000D01*
X13635000Y-9775000D02*
X13665000Y-9805000D01*
X13665000Y-9775000D02*
X13635000Y-9805000D01*
X13671000Y-9455000D02*
X13701000Y-9485000D01*
X13701000Y-9455000D02*
X13671000Y-9485000D01*
X13705000Y-7605000D02*
X13735000Y-7635000D01*
X13735000Y-7605000D02*
X13705000Y-7635000D01*
X13705000Y-9935000D02*
X13735000Y-9965000D01*
X13735000Y-9935000D02*
X13705000Y-9965000D01*
X13715000Y-7020000D02*
X13745000Y-7050000D01*
X13745000Y-7020000D02*
X13715000Y-7050000D01*
X13727758Y-8656841D02*
X13757758Y-8686841D01*
X13757758Y-8656841D02*
X13727758Y-8686841D01*
X13753000Y-8955000D02*
X13783000Y-8985000D01*
X13783000Y-8955000D02*
X13753000Y-8985000D01*
X13791000Y-9606000D02*
X13821000Y-9636000D01*
X13821000Y-9606000D02*
X13791000Y-9636000D01*
X13890000Y-11854000D02*
X13920000Y-11884000D01*
X13920000Y-11854000D02*
X13890000Y-11884000D01*
X13929000Y-10171000D02*
X13959000Y-10201000D01*
X13959000Y-10171000D02*
X13929000Y-10201000D01*
X13932000Y-6635000D02*
X13962000Y-6665000D01*
X13962000Y-6635000D02*
X13932000Y-6665000D01*
X13932000Y-9470000D02*
X13962000Y-9500000D01*
X13962000Y-9470000D02*
X13932000Y-9500000D01*
X13987000Y-9921000D02*
X14017000Y-9951000D01*
X14017000Y-9921000D02*
X13987000Y-9951000D01*
X14000000Y-9798000D02*
X14030000Y-9828000D01*
X14030000Y-9798000D02*
X14000000Y-9828000D01*
X14005000Y-9681000D02*
X14035000Y-9711000D01*
X14035000Y-9681000D02*
X14005000Y-9711000D01*
X14070322Y-8453442D02*
X14100322Y-8483442D01*
X14100322Y-8453442D02*
X14070322Y-8483442D01*
X14072000Y-10733000D02*
X14102000Y-10763000D01*
X14102000Y-10733000D02*
X14072000Y-10763000D01*
X14165000Y-7985000D02*
X14195000Y-8015000D01*
X14195000Y-7985000D02*
X14165000Y-8015000D01*
X14195000Y-8635000D02*
X14225000Y-8665000D01*
X14225000Y-8635000D02*
X14195000Y-8665000D01*
X14209500Y-8810500D02*
X14239500Y-8840500D01*
X14239500Y-8810500D02*
X14209500Y-8840500D01*
X14272000Y-10571000D02*
X14302000Y-10601000D01*
X14302000Y-10571000D02*
X14272000Y-10601000D01*
X14275397Y-8368349D02*
X14305397Y-8398349D01*
X14305397Y-8368349D02*
X14275397Y-8398349D01*
X14357000Y-10634000D02*
X14387000Y-10664000D01*
X14387000Y-10634000D02*
X14357000Y-10664000D01*
X14365000Y-10959000D02*
X14395000Y-10989000D01*
X14395000Y-10959000D02*
X14365000Y-10989000D01*
X14366000Y-11214000D02*
X14396000Y-11244000D01*
X14396000Y-11214000D02*
X14366000Y-11244000D01*
X14385000Y-9398000D02*
X14415000Y-9428000D01*
X14415000Y-9398000D02*
X14385000Y-9428000D01*
X14386000Y-7590000D02*
X14416000Y-7620000D01*
X14416000Y-7590000D02*
X14386000Y-7620000D01*
X14391000Y-10713000D02*
X14421000Y-10743000D01*
X14421000Y-10713000D02*
X14391000Y-10743000D01*
X14401000Y-7095000D02*
X14431000Y-7125000D01*
X14431000Y-7095000D02*
X14401000Y-7125000D01*
X14435000Y-11172000D02*
X14465000Y-11202000D01*
X14465000Y-11172000D02*
X14435000Y-11202000D01*
X14436000Y-11009000D02*
X14466000Y-11039000D01*
X14466000Y-11009000D02*
X14436000Y-11039000D01*
X14485000Y-7694000D02*
X14515000Y-7724000D01*
X14515000Y-7694000D02*
X14485000Y-7724000D01*
X14498000Y-8698000D02*
X14528000Y-8728000D01*
X14528000Y-8698000D02*
X14498000Y-8728000D01*
X14510000Y-10956000D02*
X14540000Y-10986000D01*
X14540000Y-10956000D02*
X14510000Y-10986000D01*
X14510000Y-11124000D02*
X14540000Y-11154000D01*
X14540000Y-11124000D02*
X14510000Y-11154000D01*
X14515000Y-6933000D02*
X14545000Y-6963000D01*
X14545000Y-6933000D02*
X14515000Y-6963000D01*
X14570000Y-12120000D02*
X14600000Y-12150000D01*
X14600000Y-12120000D02*
X14570000Y-12150000D01*
X14575000Y-10885000D02*
X14605000Y-10915000D01*
X14605000Y-10885000D02*
X14575000Y-10915000D01*
X14589000Y-10609000D02*
X14619000Y-10639000D01*
X14619000Y-10609000D02*
X14589000Y-10639000D01*
X14591000Y-7679000D02*
X14621000Y-7709000D01*
X14621000Y-7679000D02*
X14591000Y-7709000D01*
X14652000Y-7349000D02*
X14682000Y-7379000D01*
X14682000Y-7349000D02*
X14652000Y-7379000D01*
X14662000Y-8262000D02*
X14692000Y-8292000D01*
X14692000Y-8262000D02*
X14662000Y-8292000D01*
X14672000Y-11672000D02*
X14702000Y-11702000D01*
X14702000Y-11672000D02*
X14672000Y-11702000D01*
X14695000Y-10585000D02*
X14725000Y-10615000D01*
X14725000Y-10585000D02*
X14695000Y-10615000D01*
X14702000Y-8431000D02*
X14732000Y-8461000D01*
X14732000Y-8431000D02*
X14702000Y-8461000D01*
X14709000Y-7618000D02*
X14739000Y-7648000D01*
X14739000Y-7618000D02*
X14709000Y-7648000D01*
X14733000Y-7877000D02*
X14763000Y-7907000D01*
X14763000Y-7877000D02*
X14733000Y-7907000D01*
X14735000Y-8215000D02*
X14765000Y-8245000D01*
X14765000Y-8215000D02*
X14735000Y-8245000D01*
X14765000Y-10845000D02*
X14795000Y-10875000D01*
X14795000Y-10845000D02*
X14765000Y-10875000D01*
X14781000Y-7509000D02*
X14811000Y-7539000D01*
X14811000Y-7509000D02*
X14781000Y-7539000D01*
X14784000Y-8671000D02*
X14814000Y-8701000D01*
X14814000Y-8671000D02*
X14784000Y-8701000D01*
X14790000Y-10573000D02*
X14820000Y-10603000D01*
X14820000Y-10573000D02*
X14790000Y-10603000D01*
X14815000Y-8425000D02*
X14845000Y-8455000D01*
X14845000Y-8425000D02*
X14815000Y-8455000D01*
X14836000Y-7899000D02*
X14866000Y-7929000D01*
X14866000Y-7899000D02*
X14836000Y-7929000D01*
X14836000Y-8339000D02*
X14866000Y-8369000D01*
X14866000Y-8339000D02*
X14836000Y-8369000D01*
X14845799Y-7985839D02*
X14875799Y-8015839D01*
X14875799Y-7985839D02*
X14845799Y-8015839D01*
X14872000Y-7597000D02*
X14902000Y-7627000D01*
X14902000Y-7597000D02*
X14872000Y-7627000D01*
X14888000Y-12194000D02*
X14918000Y-12224000D01*
X14918000Y-12194000D02*
X14888000Y-12224000D01*
X14953000Y-7891000D02*
X14983000Y-7921000D01*
X14983000Y-7891000D02*
X14953000Y-7921000D01*
X14965000Y-9125000D02*
X14995000Y-9155000D01*
X14995000Y-9125000D02*
X14965000Y-9155000D01*
X15005000Y-7640000D02*
X15035000Y-7670000D01*
X15035000Y-7640000D02*
X15005000Y-7670000D01*
X15005000Y-8415000D02*
X15035000Y-8445000D01*
X15035000Y-8415000D02*
X15005000Y-8445000D01*
X15005000Y-11577000D02*
X15035000Y-11607000D01*
X15035000Y-11577000D02*
X15005000Y-11607000D01*
X15025000Y-11045000D02*
X15055000Y-11075000D01*
X15055000Y-11045000D02*
X15025000Y-11075000D01*
X15056000Y-7879000D02*
X15086000Y-7909000D01*
X15086000Y-7879000D02*
X15056000Y-7909000D01*
X15065000Y-10255000D02*
X15095000Y-10285000D01*
X15095000Y-10255000D02*
X15065000Y-10285000D01*
X15075000Y-8535000D02*
X15105000Y-8565000D01*
X15105000Y-8535000D02*
X15075000Y-8565000D01*
X15103000Y-13352000D02*
X15133000Y-13382000D01*
X15133000Y-13352000D02*
X15103000Y-13382000D01*
X15105000Y-11185000D02*
X15135000Y-11215000D01*
X15135000Y-11185000D02*
X15105000Y-11215000D01*
X15105000Y-11752000D02*
X15135000Y-11782000D01*
X15135000Y-11752000D02*
X15105000Y-11782000D01*
X15124000Y-7640000D02*
X15154000Y-7670000D01*
X15154000Y-7640000D02*
X15124000Y-7670000D01*
X15151821Y-11111717D02*
X15181821Y-11141717D01*
X15181821Y-11111717D02*
X15151821Y-11141717D01*
X15165000Y-12665000D02*
X15195000Y-12695000D01*
X15195000Y-12665000D02*
X15165000Y-12695000D01*
X15174500Y-12978500D02*
X15204500Y-13008500D01*
X15204500Y-12978500D02*
X15174500Y-13008500D01*
X15176001Y-13290698D02*
X15206001Y-13320698D01*
X15206001Y-13290698D02*
X15176001Y-13320698D01*
X15195000Y-7885000D02*
X15225000Y-7915000D01*
X15225000Y-7885000D02*
X15195000Y-7915000D01*
X15205000Y-9045000D02*
X15235000Y-9075000D01*
X15235000Y-9045000D02*
X15205000Y-9075000D01*
X15207000Y-13055000D02*
X15237000Y-13085000D01*
X15237000Y-13055000D02*
X15207000Y-13085000D01*
X15210000Y-7627000D02*
X15240000Y-7657000D01*
X15240000Y-7627000D02*
X15210000Y-7657000D01*
X15223000Y-7156000D02*
X15253000Y-7186000D01*
X15253000Y-7156000D02*
X15223000Y-7186000D01*
X15228000Y-7397000D02*
X15258000Y-7427000D01*
X15258000Y-7397000D02*
X15228000Y-7427000D01*
X15229000Y-7274000D02*
X15259000Y-7304000D01*
X15259000Y-7274000D02*
X15229000Y-7304000D01*
X15233000Y-7514000D02*
X15263000Y-7544000D01*
X15263000Y-7514000D02*
X15233000Y-7544000D01*
X15235000Y-8086000D02*
X15265000Y-8116000D01*
X15265000Y-8086000D02*
X15235000Y-8116000D01*
X15235000Y-13415000D02*
X15265000Y-13445000D01*
X15265000Y-13415000D02*
X15235000Y-13445000D01*
X15242175Y-9134574D02*
X15272175Y-9164574D01*
X15272175Y-9134574D02*
X15242175Y-9164574D01*
X15245000Y-12605000D02*
X15275000Y-12635000D01*
X15275000Y-12605000D02*
X15245000Y-12635000D01*
X15245000Y-12725000D02*
X15275000Y-12755000D01*
X15275000Y-12725000D02*
X15245000Y-12755000D01*
X15247000Y-13225000D02*
X15277000Y-13255000D01*
X15277000Y-13225000D02*
X15247000Y-13255000D01*
X15309000Y-9073000D02*
X15339000Y-9103000D01*
X15339000Y-9073000D02*
X15309000Y-9103000D01*
X15335000Y-11055000D02*
X15365000Y-11085000D01*
X15365000Y-11055000D02*
X15335000Y-11085000D01*
X15368000Y-9146000D02*
X15398000Y-9176000D01*
X15398000Y-9146000D02*
X15368000Y-9176000D01*
X15373000Y-6367000D02*
X15403000Y-6397000D01*
X15403000Y-6367000D02*
X15373000Y-6397000D01*
X15429000Y-8661000D02*
X15459000Y-8691000D01*
X15459000Y-8661000D02*
X15429000Y-8691000D01*
X15435000Y-9315000D02*
X15465000Y-9345000D01*
X15465000Y-9315000D02*
X15435000Y-9345000D01*
X15439000Y-10921000D02*
X15469000Y-10951000D01*
X15469000Y-10921000D02*
X15439000Y-10951000D01*
X15462000Y-7809000D02*
X15492000Y-7839000D01*
X15492000Y-7809000D02*
X15462000Y-7839000D01*
X15465000Y-9705000D02*
X15495000Y-9735000D01*
X15495000Y-9705000D02*
X15465000Y-9735000D01*
X15470000Y-7087000D02*
X15500000Y-7117000D01*
X15500000Y-7087000D02*
X15470000Y-7117000D01*
X15475000Y-7348000D02*
X15505000Y-7378000D01*
X15505000Y-7348000D02*
X15475000Y-7378000D01*
X15475000Y-8386000D02*
X15505000Y-8416000D01*
X15505000Y-8386000D02*
X15475000Y-8416000D01*
X15477000Y-7259000D02*
X15507000Y-7289000D01*
X15507000Y-7259000D02*
X15477000Y-7289000D01*
X15478000Y-7594000D02*
X15508000Y-7624000D01*
X15508000Y-7594000D02*
X15478000Y-7624000D01*
X15481000Y-7501000D02*
X15511000Y-7531000D01*
X15511000Y-7501000D02*
X15481000Y-7531000D01*
X15529000Y-10672000D02*
X15559000Y-10702000D01*
X15559000Y-10672000D02*
X15529000Y-10702000D01*
X15535000Y-8575000D02*
X15565000Y-8605000D01*
X15565000Y-8575000D02*
X15535000Y-8605000D01*
X15557000Y-10566000D02*
X15587000Y-10596000D01*
X15587000Y-10566000D02*
X15557000Y-10596000D01*
X15600360Y-6809977D02*
X15630360Y-6839977D01*
X15630360Y-6809977D02*
X15600360Y-6839977D01*
X15608000Y-6900000D02*
X15638000Y-6930000D01*
X15638000Y-6900000D02*
X15608000Y-6930000D01*
X15636000Y-8107000D02*
X15666000Y-8137000D01*
X15666000Y-8107000D02*
X15636000Y-8137000D01*
X15658000Y-11663000D02*
X15688000Y-11693000D01*
X15688000Y-11663000D02*
X15658000Y-11693000D01*
X15668000Y-8472000D02*
X15698000Y-8502000D01*
X15698000Y-8472000D02*
X15668000Y-8502000D01*
X15674000Y-7415000D02*
X15704000Y-7445000D01*
X15704000Y-7415000D02*
X15674000Y-7445000D01*
X15675000Y-10865000D02*
X15705000Y-10895000D01*
X15705000Y-10865000D02*
X15675000Y-10895000D01*
X15747000Y-11671000D02*
X15777000Y-11701000D01*
X15777000Y-11671000D02*
X15747000Y-11701000D01*
X15805000Y-10675000D02*
X15835000Y-10705000D01*
X15835000Y-10675000D02*
X15805000Y-10705000D01*
X15825000Y-7365000D02*
X15855000Y-7395000D01*
X15855000Y-7365000D02*
X15825000Y-7395000D01*
X15827000Y-11677000D02*
X15857000Y-11707000D01*
X15857000Y-11677000D02*
X15827000Y-11707000D01*
X15882000Y-9481000D02*
X15912000Y-9511000D01*
X15912000Y-9481000D02*
X15882000Y-9511000D01*
X15882440Y-9923635D02*
X15912440Y-9953635D01*
X15912440Y-9923635D02*
X15882440Y-9953635D01*
X15942000Y-10064000D02*
X15972000Y-10094000D01*
X15972000Y-10064000D02*
X15942000Y-10094000D01*
X15965000Y-11285000D02*
X15995000Y-11315000D01*
X15995000Y-11285000D02*
X15965000Y-11315000D01*
X15970000Y-9975000D02*
X16000000Y-10005000D01*
X16000000Y-9975000D02*
X15970000Y-10005000D01*
X15977000Y-8660000D02*
X16007000Y-8690000D01*
X16007000Y-8660000D02*
X15977000Y-8690000D01*
X15996000Y-7159000D02*
X16026000Y-7189000D01*
X16026000Y-7159000D02*
X15996000Y-7189000D01*
X16004000Y-11747000D02*
X16034000Y-11777000D01*
X16034000Y-11747000D02*
X16004000Y-11777000D01*
X16050000Y-10521000D02*
X16080000Y-10551000D01*
X16080000Y-10521000D02*
X16050000Y-10551000D01*
X16089000Y-9931000D02*
X16119000Y-9961000D01*
X16119000Y-9931000D02*
X16089000Y-9961000D01*
X16135000Y-11165000D02*
X16165000Y-11195000D01*
X16165000Y-11165000D02*
X16135000Y-11195000D01*
X16155000Y-9525000D02*
X16185000Y-9555000D01*
X16185000Y-9525000D02*
X16155000Y-9555000D01*
X16186000Y-13220000D02*
X16216000Y-13250000D01*
X16216000Y-13220000D02*
X16186000Y-13250000D01*
X16189000Y-9161000D02*
X16219000Y-9191000D01*
X16219000Y-9161000D02*
X16189000Y-9191000D01*
X16189000Y-9921000D02*
X16219000Y-9951000D01*
X16219000Y-9921000D02*
X16189000Y-9951000D01*
X16215000Y-7545000D02*
X16245000Y-7575000D01*
X16245000Y-7545000D02*
X16215000Y-7575000D01*
X16237000Y-11288000D02*
X16267000Y-11318000D01*
X16267000Y-11288000D02*
X16237000Y-11318000D01*
X16302000Y-11556000D02*
X16332000Y-11586000D01*
X16332000Y-11556000D02*
X16302000Y-11586000D01*
X16308000Y-11639000D02*
X16338000Y-11669000D01*
X16338000Y-11639000D02*
X16308000Y-11669000D01*
X16308000Y-11723000D02*
X16338000Y-11753000D01*
X16338000Y-11723000D02*
X16308000Y-11753000D01*
X16345000Y-9125000D02*
X16375000Y-9155000D01*
X16375000Y-9125000D02*
X16345000Y-9155000D01*
X16375000Y-9375000D02*
X16405000Y-9405000D01*
X16405000Y-9375000D02*
X16375000Y-9405000D01*
X16456000Y-12807000D02*
X16486000Y-12837000D01*
X16486000Y-12807000D02*
X16456000Y-12837000D01*
X16471000Y-12664000D02*
X16501000Y-12694000D01*
X16501000Y-12664000D02*
X16471000Y-12694000D01*
X16485000Y-10885000D02*
X16515000Y-10915000D01*
X16515000Y-10885000D02*
X16485000Y-10915000D01*
X16516000Y-11338000D02*
X16546000Y-11368000D01*
X16546000Y-11338000D02*
X16516000Y-11368000D01*
X16579283Y-11399726D02*
X16609283Y-11429726D01*
X16609283Y-11399726D02*
X16579283Y-11429726D01*
X16609000Y-7185000D02*
X16639000Y-7215000D01*
X16639000Y-7185000D02*
X16609000Y-7215000D01*
X16611000Y-7889000D02*
X16641000Y-7919000D01*
X16641000Y-7889000D02*
X16611000Y-7919000D01*
X16625000Y-6305000D02*
X16655000Y-6335000D01*
X16655000Y-6305000D02*
X16625000Y-6335000D01*
X16630000Y-6458000D02*
X16660000Y-6488000D01*
X16660000Y-6458000D02*
X16630000Y-6488000D01*
X16635000Y-10875000D02*
X16665000Y-10905000D01*
X16665000Y-10875000D02*
X16635000Y-10905000D01*
X16635000Y-11225000D02*
X16665000Y-11255000D01*
X16665000Y-11225000D02*
X16635000Y-11255000D01*
X16645000Y-10995000D02*
X16675000Y-11025000D01*
X16675000Y-10995000D02*
X16645000Y-11025000D01*
X16651000Y-11460000D02*
X16681000Y-11490000D01*
X16681000Y-11460000D02*
X16651000Y-11490000D01*
X16679000Y-7949000D02*
X16709000Y-7979000D01*
X16709000Y-7949000D02*
X16679000Y-7979000D01*
X16735000Y-12499000D02*
X16765000Y-12529000D01*
X16765000Y-12499000D02*
X16735000Y-12529000D01*
X16745000Y-12104000D02*
X16775000Y-12134000D01*
X16775000Y-12104000D02*
X16745000Y-12134000D01*
X16750000Y-6966000D02*
X16780000Y-6996000D01*
X16780000Y-6966000D02*
X16750000Y-6996000D01*
X16759000Y-7187000D02*
X16789000Y-7217000D01*
X16789000Y-7187000D02*
X16759000Y-7217000D01*
X16847000Y-13962500D02*
X16877000Y-13992500D01*
X16877000Y-13962500D02*
X16847000Y-13992500D01*
X16870000Y-8743000D02*
X16900000Y-8773000D01*
X16900000Y-8743000D02*
X16870000Y-8773000D01*
X16880000Y-11291000D02*
X16910000Y-11321000D01*
X16910000Y-11291000D02*
X16880000Y-11321000D01*
X17022000Y-11157000D02*
X17052000Y-11187000D01*
X17052000Y-11157000D02*
X17022000Y-11187000D01*
X17049000Y-8041000D02*
X17079000Y-8071000D01*
X17079000Y-8041000D02*
X17049000Y-8071000D01*
X17078666Y-11280919D02*
X17108666Y-11310919D01*
X17108666Y-11280919D02*
X17078666Y-11310919D01*
X17090000Y-13595500D02*
X17120000Y-13625500D01*
X17120000Y-13595500D02*
X17090000Y-13625500D01*
X17099000Y-7692000D02*
X17129000Y-7722000D01*
X17129000Y-7692000D02*
X17099000Y-7722000D01*
X17104000Y-11391000D02*
X17134000Y-11421000D01*
X17134000Y-11391000D02*
X17104000Y-11421000D01*
X17105000Y-11879000D02*
X17135000Y-11909000D01*
X17135000Y-11879000D02*
X17105000Y-11909000D01*
X17119000Y-10536000D02*
X17149000Y-10566000D01*
X17149000Y-10536000D02*
X17119000Y-10566000D01*
X17119000Y-11149000D02*
X17149000Y-11179000D01*
X17149000Y-11149000D02*
X17119000Y-11179000D01*
X17155000Y-7825000D02*
X17185000Y-7855000D01*
X17185000Y-7825000D02*
X17155000Y-7855000D01*
X17229000Y-11271000D02*
X17259000Y-11301000D01*
X17259000Y-11271000D02*
X17229000Y-11301000D01*
X17229000Y-11361000D02*
X17259000Y-11391000D01*
X17259000Y-11361000D02*
X17229000Y-11391000D01*
X17231000Y-10427000D02*
X17261000Y-10457000D01*
X17261000Y-10427000D02*
X17231000Y-10457000D01*
X17404000Y-11876000D02*
X17434000Y-11906000D01*
X17434000Y-11876000D02*
X17404000Y-11906000D01*
X17425000Y-8335000D02*
X17455000Y-8365000D01*
X17455000Y-8335000D02*
X17425000Y-8365000D01*
X17447000Y-11291000D02*
X17477000Y-11321000D01*
X17477000Y-11291000D02*
X17447000Y-11321000D01*
X17473000Y-11505000D02*
X17503000Y-11535000D01*
X17503000Y-11505000D02*
X17473000Y-11535000D01*
X17480000Y-7588000D02*
X17510000Y-7618000D01*
X17510000Y-7588000D02*
X17480000Y-7618000D01*
X17484000Y-11390000D02*
X17514000Y-11420000D01*
X17514000Y-11390000D02*
X17484000Y-11420000D01*
X17495000Y-7267000D02*
X17525000Y-7297000D01*
X17525000Y-7267000D02*
X17495000Y-7297000D01*
X17508000Y-8868000D02*
X17538000Y-8898000D01*
X17538000Y-8868000D02*
X17508000Y-8898000D01*
X17591000Y-8687000D02*
X17621000Y-8717000D01*
X17621000Y-8687000D02*
X17591000Y-8717000D01*
X17688800Y-5649200D02*
X17718800Y-5679200D01*
X17718800Y-5649200D02*
X17688800Y-5679200D01*
X17723000Y-5387000D02*
X17753000Y-5417000D01*
X17753000Y-5387000D02*
X17723000Y-5417000D01*
X17825000Y-8805000D02*
X17855000Y-8835000D01*
X17855000Y-8805000D02*
X17825000Y-8835000D01*
X17865000Y-8429000D02*
X17895000Y-8459000D01*
X17895000Y-8429000D02*
X17865000Y-8459000D01*
X17878000Y-11526000D02*
X17908000Y-11556000D01*
X17908000Y-11526000D02*
X17878000Y-11556000D01*
X18015000Y-8755000D02*
X18045000Y-8785000D01*
X18045000Y-8755000D02*
X18015000Y-8785000D01*
X18025000Y-8225000D02*
X18055000Y-8255000D01*
X18055000Y-8225000D02*
X18025000Y-8255000D01*
X18159000Y-8941000D02*
X18189000Y-8971000D01*
X18189000Y-8941000D02*
X18159000Y-8971000D01*
X18159250Y-7486000D02*
X18189250Y-7516000D01*
X18189250Y-7486000D02*
X18159250Y-7516000D01*
X18184000Y-9877000D02*
X18214000Y-9907000D01*
X18214000Y-9877000D02*
X18184000Y-9907000D01*
X18244000Y-7084000D02*
X18274000Y-7114000D01*
X18274000Y-7084000D02*
X18244000Y-7114000D01*
X18279000Y-7911000D02*
X18309000Y-7941000D01*
X18309000Y-7911000D02*
X18279000Y-7941000D01*
X18285000Y-10535000D02*
X18315000Y-10565000D01*
X18315000Y-10535000D02*
X18285000Y-10565000D01*
X18300000Y-9924000D02*
X18330000Y-9954000D01*
X18330000Y-9924000D02*
X18300000Y-9954000D01*
X18319000Y-8981000D02*
X18349000Y-9011000D01*
X18349000Y-8981000D02*
X18319000Y-9011000D01*
X18359000Y-9461000D02*
X18389000Y-9491000D01*
X18389000Y-9461000D02*
X18359000Y-9491000D01*
X18369000Y-9091000D02*
X18399000Y-9121000D01*
X18399000Y-9091000D02*
X18369000Y-9121000D01*
X18419000Y-9961000D02*
X18449000Y-9991000D01*
X18449000Y-9961000D02*
X18419000Y-9991000D01*
X18479000Y-9511000D02*
X18509000Y-9541000D01*
X18509000Y-9511000D02*
X18479000Y-9541000D01*
X18499000Y-9131000D02*
X18529000Y-9161000D01*
X18529000Y-9131000D02*
X18499000Y-9161000D01*
X18519000Y-9991000D02*
X18549000Y-10021000D01*
X18549000Y-9991000D02*
X18519000Y-10021000D01*
X18537000Y-9889000D02*
X18567000Y-9919000D01*
X18567000Y-9889000D02*
X18537000Y-9919000D01*
X18569000Y-9541000D02*
X18599000Y-9571000D01*
X18599000Y-9541000D02*
X18569000Y-9571000D01*
X18575000Y-8765000D02*
X18605000Y-8795000D01*
X18605000Y-8765000D02*
X18575000Y-8795000D01*
X18599000Y-9171000D02*
X18629000Y-9201000D01*
X18629000Y-9171000D02*
X18599000Y-9201000D01*
X18604000Y-9840000D02*
X18634000Y-9870000D01*
X18634000Y-9840000D02*
X18604000Y-9870000D01*
X18654000Y-9092000D02*
X18684000Y-9122000D01*
X18684000Y-9092000D02*
X18654000Y-9122000D01*
X18655010Y-9503284D02*
X18685010Y-9533284D01*
X18685010Y-9503284D02*
X18655010Y-9533284D01*
X18659000Y-9591000D02*
X18689000Y-9621000D01*
X18689000Y-9591000D02*
X18659000Y-9621000D01*
X18659000Y-10311000D02*
X18689000Y-10341000D01*
X18689000Y-10311000D02*
X18659000Y-10341000D01*
X18676000Y-9783000D02*
X18706000Y-9813000D01*
X18706000Y-9783000D02*
X18676000Y-9813000D01*
X18683000Y-10020000D02*
X18713000Y-10050000D01*
X18713000Y-10020000D02*
X18683000Y-10050000D01*
X18689000Y-9201000D02*
X18719000Y-9231000D01*
X18719000Y-9201000D02*
X18689000Y-9231000D01*
X18690000Y-11045000D02*
X18720000Y-11075000D01*
X18720000Y-11045000D02*
X18690000Y-11075000D01*
X18729000Y-9461000D02*
X18759000Y-9491000D01*
X18759000Y-9461000D02*
X18729000Y-9491000D01*
X18739639Y-9613470D02*
X18769639Y-9643470D01*
X18769639Y-9613470D02*
X18739639Y-9643470D01*
X18747000Y-9741000D02*
X18777000Y-9771000D01*
X18777000Y-9741000D02*
X18747000Y-9771000D01*
X18749000Y-10261000D02*
X18779000Y-10291000D01*
X18779000Y-10261000D02*
X18749000Y-10291000D01*
X18785000Y-10395000D02*
X18815000Y-10425000D01*
X18815000Y-10395000D02*
X18785000Y-10425000D01*
X18798000Y-9416000D02*
X18828000Y-9446000D01*
X18828000Y-9416000D02*
X18798000Y-9446000D01*
X18819000Y-9221000D02*
X18849000Y-9251000D01*
X18849000Y-9221000D02*
X18819000Y-9251000D01*
X18819000Y-10201000D02*
X18849000Y-10231000D01*
X18849000Y-10201000D02*
X18819000Y-10231000D01*
X18859000Y-7723500D02*
X18889000Y-7753500D01*
X18889000Y-7723500D02*
X18859000Y-7753500D01*
X18859000Y-9361000D02*
X18889000Y-9391000D01*
X18889000Y-9361000D02*
X18859000Y-9391000D01*
X18899000Y-10161000D02*
X18929000Y-10191000D01*
X18929000Y-10161000D02*
X18899000Y-10191000D01*
X18900500Y-10471000D02*
X18930500Y-10501000D01*
X18930500Y-10471000D02*
X18900500Y-10501000D01*
X18905000Y-9585000D02*
X18935000Y-9615000D01*
X18935000Y-9585000D02*
X18905000Y-9615000D01*
X18929000Y-9711000D02*
X18959000Y-9741000D01*
X18959000Y-9711000D02*
X18929000Y-9741000D01*
X18938294Y-9313526D02*
X18968294Y-9343526D01*
X18968294Y-9313526D02*
X18938294Y-9343526D01*
X18942000Y-12316000D02*
X18972000Y-12346000D01*
X18972000Y-12316000D02*
X18942000Y-12346000D01*
X18949000Y-9061000D02*
X18979000Y-9091000D01*
X18979000Y-9061000D02*
X18949000Y-9091000D01*
X18949000Y-9171000D02*
X18979000Y-9201000D01*
X18979000Y-9171000D02*
X18949000Y-9201000D01*
X18971063Y-10111363D02*
X19001063Y-10141363D01*
X19001063Y-10111363D02*
X18971063Y-10141363D01*
X19225000Y-9565000D02*
X19255000Y-9595000D01*
X19255000Y-9565000D02*
X19225000Y-9595000D01*
X19225000Y-10515000D02*
X19255000Y-10545000D01*
X19255000Y-10515000D02*
X19225000Y-10545000D01*
X19227000Y-12299000D02*
X19257000Y-12329000D01*
X19257000Y-12299000D02*
X19227000Y-12329000D01*
X19245000Y-9965000D02*
X19275000Y-9995000D01*
X19275000Y-9965000D02*
X19245000Y-9995000D01*
X19255000Y-8192000D02*
X19285000Y-8222000D01*
X19285000Y-8192000D02*
X19255000Y-8222000D01*
X19272000Y-12062000D02*
X19302000Y-12092000D01*
X19302000Y-12062000D02*
X19272000Y-12092000D01*
X19275000Y-8865000D02*
X19305000Y-8895000D01*
X19305000Y-8865000D02*
X19275000Y-8895000D01*
X19305000Y-9215000D02*
X19335000Y-9245000D01*
X19335000Y-9215000D02*
X19305000Y-9245000D01*
X19329000Y-7479000D02*
X19359000Y-7509000D01*
X19359000Y-7479000D02*
X19329000Y-7509000D01*
D13*
X12089240Y-6919000D02*
G75*
G03*
X12089240Y-6919000I-15240J0D01*
G01*
X12089240Y-7039000D02*
G75*
G03*
X12089240Y-7039000I-15240J0D01*
G01*
X12089240Y-7159000D02*
G75*
G03*
X12089240Y-7159000I-15240J0D01*
G01*
X12209240Y-6919000D02*
G75*
G03*
X12209240Y-6919000I-15240J0D01*
G01*
X12209240Y-7039000D02*
G75*
G03*
X12209240Y-7039000I-15240J0D01*
G01*
X12209240Y-7159000D02*
G75*
G03*
X12209240Y-7159000I-15240J0D01*
G01*
X12329240Y-6919000D02*
G75*
G03*
X12329240Y-6919000I-15240J0D01*
G01*
X12329240Y-7039000D02*
G75*
G03*
X12329240Y-7039000I-15240J0D01*
G01*
X12329240Y-7159000D02*
G75*
G03*
X12329240Y-7159000I-15240J0D01*
G01*
X14859240Y-9566000D02*
G75*
G03*
X14859240Y-9566000I-15240J0D01*
G01*
X14859240Y-9666000D02*
G75*
G03*
X14859240Y-9666000I-15240J0D01*
G01*
X14859240Y-9766000D02*
G75*
G03*
X14859240Y-9766000I-15240J0D01*
G01*
X14959240Y-9566000D02*
G75*
G03*
X14959240Y-9566000I-15240J0D01*
G01*
X14959240Y-9666000D02*
G75*
G03*
X14959240Y-9666000I-15240J0D01*
G01*
X14959240Y-9766000D02*
G75*
G03*
X14959240Y-9766000I-15240J0D01*
G01*
X15059240Y-9566000D02*
G75*
G03*
X15059240Y-9566000I-15240J0D01*
G01*
X15059240Y-9666000D02*
G75*
G03*
X15059240Y-9666000I-15240J0D01*
G01*
X15059240Y-9766000D02*
G75*
G03*
X15059240Y-9766000I-15240J0D01*
G01*
D14*
X10196250Y-6960000D02*
X10196250Y-7020000D01*
X10166250Y-6990000D02*
X10226250Y-6990000D01*
D11*
X10161250Y-7020000D02*
X10231250Y-7020000D01*
X10161250Y-6960000D02*
X10231250Y-6960000D01*
X10231250Y-7020000D02*
G75*
G03*
X10231250Y-6960000I0J30000D01*
G01*
X10161250Y-6960000D02*
G75*
G03*
X10161250Y-7020000I0J-30000D01*
G01*
D14*
X10196250Y-7660000D02*
X10196250Y-7720000D01*
X10166250Y-7690000D02*
X10226250Y-7690000D01*
D11*
X10231250Y-7660000D02*
X10161250Y-7660000D01*
X10231250Y-7720000D02*
X10161250Y-7720000D01*
X10161250Y-7660000D02*
G75*
G03*
X10161250Y-7720000I0J-30000D01*
G01*
X10231250Y-7720000D02*
G75*
G03*
X10231250Y-7660000I0J30000D01*
G01*
D14*
X19734750Y-6543000D02*
X19734750Y-6603000D01*
X19704750Y-6573000D02*
X19764750Y-6573000D01*
D11*
X19699750Y-6603000D02*
X19769750Y-6603000D01*
X19699750Y-6543000D02*
X19769750Y-6543000D01*
X19769750Y-6603000D02*
G75*
G03*
X19769750Y-6543000I0J30000D01*
G01*
X19699750Y-6543000D02*
G75*
G03*
X19699750Y-6603000I0J-30000D01*
G01*
D14*
X19734750Y-7243000D02*
X19734750Y-7303000D01*
X19704750Y-7273000D02*
X19764750Y-7273000D01*
D11*
X19769750Y-7243000D02*
X19699750Y-7243000D01*
X19769750Y-7303000D02*
X19699750Y-7303000D01*
X19699750Y-7243000D02*
G75*
G03*
X19699750Y-7303000I0J-30000D01*
G01*
X19769750Y-7303000D02*
G75*
G03*
X19769750Y-7243000I0J30000D01*
G01*
D15*
X11111517Y-7456517D02*
X11111517Y-7403483D01*
X11058483Y-7403483D01*
X11058483Y-7456517D01*
X11111517Y-7456517D01*
X11111517Y-7656517D02*
X11111517Y-7603483D01*
X11058483Y-7603483D01*
X11058483Y-7656517D01*
X11111517Y-7656517D01*
D16*
X10466250Y-7132500D02*
X10508750Y-7090000D01*
X10466250Y-7047500D01*
X10423750Y-7090000D01*
X10466250Y-7132500D01*
X10466250Y-7632500D02*
X10508750Y-7590000D01*
X10466250Y-7547500D01*
X10423750Y-7590000D01*
X10466250Y-7632500D01*
X19464750Y-6715500D02*
X19507250Y-6673000D01*
X19464750Y-6630500D01*
X19422250Y-6673000D01*
X19464750Y-6715500D01*
X19464750Y-7215500D02*
X19507250Y-7173000D01*
X19464750Y-7130500D01*
X19422250Y-7173000D01*
X19464750Y-7215500D01*
D17*
X11672250Y-9191000D02*
X11762250Y-9281000D01*
X11762250Y-9191000D02*
X11672250Y-9281000D01*
X11762250Y-9236000D02*
G75*
G03*
X11762250Y-9236000I-45000J0D01*
G01*
X11672250Y-9445000D02*
X11762250Y-9535000D01*
X11762250Y-9445000D02*
X11672250Y-9535000D01*
X11762250Y-9490000D02*
G75*
G03*
X11762250Y-9490000I-45000J0D01*
G01*
X11672250Y-9699000D02*
X11762250Y-9789000D01*
X11762250Y-9699000D02*
X11672250Y-9789000D01*
X11762250Y-9744000D02*
G75*
G03*
X11762250Y-9744000I-45000J0D01*
G01*
X11672250Y-9953000D02*
X11762250Y-10043000D01*
X11762250Y-9953000D02*
X11672250Y-10043000D01*
X11762250Y-9998000D02*
G75*
G03*
X11762250Y-9998000I-45000J0D01*
G01*
X11926250Y-9317000D02*
X12016250Y-9407000D01*
X12016250Y-9317000D02*
X11926250Y-9407000D01*
X12016250Y-9362000D02*
G75*
G03*
X12016250Y-9362000I-45000J0D01*
G01*
X11926250Y-9571000D02*
X12016250Y-9661000D01*
X12016250Y-9571000D02*
X11926250Y-9661000D01*
X12016250Y-9616000D02*
G75*
G03*
X12016250Y-9616000I-45000J0D01*
G01*
X11926250Y-9825000D02*
X12016250Y-9915000D01*
X12016250Y-9825000D02*
X11926250Y-9915000D01*
X12016250Y-9870000D02*
G75*
G03*
X12016250Y-9870000I-45000J0D01*
G01*
X11926250Y-10079000D02*
X12016250Y-10169000D01*
X12016250Y-10079000D02*
X11926250Y-10169000D01*
X12016250Y-10124000D02*
G75*
G03*
X12016250Y-10124000I-45000J0D01*
G01*
D18*
X11193000Y-12744000D02*
X11285000Y-12836000D01*
X11285000Y-12744000D02*
X11193000Y-12836000D01*
X11239000Y-12744000D02*
X11239000Y-12836000D01*
X11193000Y-12790000D02*
X11285000Y-12790000D01*
X11393000Y-12744000D02*
X11485000Y-12836000D01*
X11485000Y-12744000D02*
X11393000Y-12836000D01*
X11439000Y-12744000D02*
X11439000Y-12836000D01*
X11393000Y-12790000D02*
X11485000Y-12790000D01*
X11593000Y-12744000D02*
X11685000Y-12836000D01*
X11685000Y-12744000D02*
X11593000Y-12836000D01*
X11639000Y-12744000D02*
X11639000Y-12836000D01*
X11593000Y-12790000D02*
X11685000Y-12790000D01*
X11793000Y-12744000D02*
X11885000Y-12836000D01*
X11885000Y-12744000D02*
X11793000Y-12836000D01*
X11839000Y-12744000D02*
X11839000Y-12836000D01*
X11793000Y-12790000D02*
X11885000Y-12790000D01*
D10*
X13646000Y-5230500D02*
X13746000Y-5330500D01*
X13746000Y-5230500D02*
X13646000Y-5330500D01*
X13731356Y-5315856D02*
X13731356Y-5245144D01*
X13660644Y-5245144D01*
X13660644Y-5315856D01*
X13731356Y-5315856D01*
X13646000Y-5484500D02*
X13746000Y-5584500D01*
X13746000Y-5484500D02*
X13646000Y-5584500D01*
X13731356Y-5569856D02*
X13731356Y-5499144D01*
X13660644Y-5499144D01*
X13660644Y-5569856D01*
X13731356Y-5569856D01*
X13900000Y-5230500D02*
X14000000Y-5330500D01*
X14000000Y-5230500D02*
X13900000Y-5330500D01*
X13985356Y-5315856D02*
X13985356Y-5245144D01*
X13914644Y-5245144D01*
X13914644Y-5315856D01*
X13985356Y-5315856D01*
X13900000Y-5484500D02*
X14000000Y-5584500D01*
X14000000Y-5484500D02*
X13900000Y-5584500D01*
X13985356Y-5569856D02*
X13985356Y-5499144D01*
X13914644Y-5499144D01*
X13914644Y-5569856D01*
X13985356Y-5569856D01*
X14154000Y-5230500D02*
X14254000Y-5330500D01*
X14254000Y-5230500D02*
X14154000Y-5330500D01*
X14239356Y-5315856D02*
X14239356Y-5245144D01*
X14168644Y-5245144D01*
X14168644Y-5315856D01*
X14239356Y-5315856D01*
X14154000Y-5484500D02*
X14254000Y-5584500D01*
X14254000Y-5484500D02*
X14154000Y-5584500D01*
X14239356Y-5569856D02*
X14239356Y-5499144D01*
X14168644Y-5499144D01*
X14168644Y-5569856D01*
X14239356Y-5569856D01*
X14408000Y-5230500D02*
X14508000Y-5330500D01*
X14508000Y-5230500D02*
X14408000Y-5330500D01*
X14493356Y-5315856D02*
X14493356Y-5245144D01*
X14422644Y-5245144D01*
X14422644Y-5315856D01*
X14493356Y-5315856D01*
X14408000Y-5484500D02*
X14508000Y-5584500D01*
X14508000Y-5484500D02*
X14408000Y-5584500D01*
X14493356Y-5569856D02*
X14493356Y-5499144D01*
X14422644Y-5499144D01*
X14422644Y-5569856D01*
X14493356Y-5569856D01*
X14662000Y-5230500D02*
X14762000Y-5330500D01*
X14762000Y-5230500D02*
X14662000Y-5330500D01*
X14747356Y-5315856D02*
X14747356Y-5245144D01*
X14676644Y-5245144D01*
X14676644Y-5315856D01*
X14747356Y-5315856D01*
X14662000Y-5484500D02*
X14762000Y-5584500D01*
X14762000Y-5484500D02*
X14662000Y-5584500D01*
X14747356Y-5569856D02*
X14747356Y-5499144D01*
X14676644Y-5499144D01*
X14676644Y-5569856D01*
X14747356Y-5569856D01*
X14916000Y-5230500D02*
X15016000Y-5330500D01*
X15016000Y-5230500D02*
X14916000Y-5330500D01*
X15001356Y-5315856D02*
X15001356Y-5245144D01*
X14930644Y-5245144D01*
X14930644Y-5315856D01*
X15001356Y-5315856D01*
X14916000Y-5484500D02*
X15016000Y-5584500D01*
X15016000Y-5484500D02*
X14916000Y-5584500D01*
X15001356Y-5569856D02*
X15001356Y-5499144D01*
X14930644Y-5499144D01*
X14930644Y-5569856D01*
X15001356Y-5569856D01*
X15170000Y-5230500D02*
X15270000Y-5330500D01*
X15270000Y-5230500D02*
X15170000Y-5330500D01*
X15255356Y-5315856D02*
X15255356Y-5245144D01*
X15184644Y-5245144D01*
X15184644Y-5315856D01*
X15255356Y-5315856D01*
X15170000Y-5484500D02*
X15270000Y-5584500D01*
X15270000Y-5484500D02*
X15170000Y-5584500D01*
X15255356Y-5569856D02*
X15255356Y-5499144D01*
X15184644Y-5499144D01*
X15184644Y-5569856D01*
X15255356Y-5569856D01*
X15424000Y-5230500D02*
X15524000Y-5330500D01*
X15524000Y-5230500D02*
X15424000Y-5330500D01*
X15509356Y-5315856D02*
X15509356Y-5245144D01*
X15438644Y-5245144D01*
X15438644Y-5315856D01*
X15509356Y-5315856D01*
X15424000Y-5484500D02*
X15524000Y-5584500D01*
X15524000Y-5484500D02*
X15424000Y-5584500D01*
X15509356Y-5569856D02*
X15509356Y-5499144D01*
X15438644Y-5499144D01*
X15438644Y-5569856D01*
X15509356Y-5569856D01*
X15678000Y-5230500D02*
X15778000Y-5330500D01*
X15778000Y-5230500D02*
X15678000Y-5330500D01*
X15763356Y-5315856D02*
X15763356Y-5245144D01*
X15692644Y-5245144D01*
X15692644Y-5315856D01*
X15763356Y-5315856D01*
X15678000Y-5484500D02*
X15778000Y-5584500D01*
X15778000Y-5484500D02*
X15678000Y-5584500D01*
X15763356Y-5569856D02*
X15763356Y-5499144D01*
X15692644Y-5499144D01*
X15692644Y-5569856D01*
X15763356Y-5569856D01*
X15932000Y-5230500D02*
X16032000Y-5330500D01*
X16032000Y-5230500D02*
X15932000Y-5330500D01*
X16017356Y-5315856D02*
X16017356Y-5245144D01*
X15946644Y-5245144D01*
X15946644Y-5315856D01*
X16017356Y-5315856D01*
X15932000Y-5484500D02*
X16032000Y-5584500D01*
X16032000Y-5484500D02*
X15932000Y-5584500D01*
X16017356Y-5569856D02*
X16017356Y-5499144D01*
X15946644Y-5499144D01*
X15946644Y-5569856D01*
X16017356Y-5569856D01*
X16186000Y-5230500D02*
X16286000Y-5330500D01*
X16286000Y-5230500D02*
X16186000Y-5330500D01*
X16271356Y-5315856D02*
X16271356Y-5245144D01*
X16200644Y-5245144D01*
X16200644Y-5315856D01*
X16271356Y-5315856D01*
X16186000Y-5484500D02*
X16286000Y-5584500D01*
X16286000Y-5484500D02*
X16186000Y-5584500D01*
X16271356Y-5569856D02*
X16271356Y-5499144D01*
X16200644Y-5499144D01*
X16200644Y-5569856D01*
X16271356Y-5569856D01*
X16440000Y-5230500D02*
X16540000Y-5330500D01*
X16540000Y-5230500D02*
X16440000Y-5330500D01*
X16525356Y-5315856D02*
X16525356Y-5245144D01*
X16454644Y-5245144D01*
X16454644Y-5315856D01*
X16525356Y-5315856D01*
X16440000Y-5484500D02*
X16540000Y-5584500D01*
X16540000Y-5484500D02*
X16440000Y-5584500D01*
X16525356Y-5569856D02*
X16525356Y-5499144D01*
X16454644Y-5499144D01*
X16454644Y-5569856D01*
X16525356Y-5569856D01*
X16694000Y-5230500D02*
X16794000Y-5330500D01*
X16794000Y-5230500D02*
X16694000Y-5330500D01*
X16779356Y-5315856D02*
X16779356Y-5245144D01*
X16708644Y-5245144D01*
X16708644Y-5315856D01*
X16779356Y-5315856D01*
X16694000Y-5484500D02*
X16794000Y-5584500D01*
X16794000Y-5484500D02*
X16694000Y-5584500D01*
X16779356Y-5569856D02*
X16779356Y-5499144D01*
X16708644Y-5499144D01*
X16708644Y-5569856D01*
X16779356Y-5569856D01*
X16948000Y-5230500D02*
X17048000Y-5330500D01*
X17048000Y-5230500D02*
X16948000Y-5330500D01*
X17033356Y-5315856D02*
X17033356Y-5245144D01*
X16962644Y-5245144D01*
X16962644Y-5315856D01*
X17033356Y-5315856D01*
X16948000Y-5484500D02*
X17048000Y-5584500D01*
X17048000Y-5484500D02*
X16948000Y-5584500D01*
X17033356Y-5569856D02*
X17033356Y-5499144D01*
X16962644Y-5499144D01*
X16962644Y-5569856D01*
X17033356Y-5569856D01*
X17202000Y-5230500D02*
X17302000Y-5330500D01*
X17302000Y-5230500D02*
X17202000Y-5330500D01*
X17287356Y-5315856D02*
X17287356Y-5245144D01*
X17216644Y-5245144D01*
X17216644Y-5315856D01*
X17287356Y-5315856D01*
X17202000Y-5484500D02*
X17302000Y-5584500D01*
X17302000Y-5484500D02*
X17202000Y-5584500D01*
X17287356Y-5569856D02*
X17287356Y-5499144D01*
X17216644Y-5499144D01*
X17216644Y-5569856D01*
X17287356Y-5569856D01*
X17456000Y-5230500D02*
X17556000Y-5330500D01*
X17556000Y-5230500D02*
X17456000Y-5330500D01*
X17541356Y-5315856D02*
X17541356Y-5245144D01*
X17470644Y-5245144D01*
X17470644Y-5315856D01*
X17541356Y-5315856D01*
X17456000Y-5484500D02*
X17556000Y-5584500D01*
X17556000Y-5484500D02*
X17456000Y-5584500D01*
X17541356Y-5569856D02*
X17541356Y-5499144D01*
X17470644Y-5499144D01*
X17470644Y-5569856D01*
X17541356Y-5569856D01*
X18049250Y-4974750D02*
X18149250Y-5074750D01*
X18149250Y-4974750D02*
X18049250Y-5074750D01*
X18134606Y-5060106D02*
X18134606Y-4989394D01*
X18063894Y-4989394D01*
X18063894Y-5060106D01*
X18134606Y-5060106D01*
X18049250Y-5228750D02*
X18149250Y-5328750D01*
X18149250Y-5228750D02*
X18049250Y-5328750D01*
X18134606Y-5314106D02*
X18134606Y-5243394D01*
X18063894Y-5243394D01*
X18063894Y-5314106D01*
X18134606Y-5314106D01*
X18179000Y-5905000D02*
X18279000Y-6005000D01*
X18279000Y-5905000D02*
X18179000Y-6005000D01*
X18264356Y-5990356D02*
X18264356Y-5919644D01*
X18193644Y-5919644D01*
X18193644Y-5990356D01*
X18264356Y-5990356D01*
X18303250Y-4974750D02*
X18403250Y-5074750D01*
X18403250Y-4974750D02*
X18303250Y-5074750D01*
X18388606Y-5060106D02*
X18388606Y-4989394D01*
X18317894Y-4989394D01*
X18317894Y-5060106D01*
X18388606Y-5060106D01*
X18303250Y-5228750D02*
X18403250Y-5328750D01*
X18403250Y-5228750D02*
X18303250Y-5328750D01*
X18388606Y-5314106D02*
X18388606Y-5243394D01*
X18317894Y-5243394D01*
X18317894Y-5314106D01*
X18388606Y-5314106D01*
X18433000Y-5905000D02*
X18533000Y-6005000D01*
X18533000Y-5905000D02*
X18433000Y-6005000D01*
X18518356Y-5990356D02*
X18518356Y-5919644D01*
X18447644Y-5919644D01*
X18447644Y-5990356D01*
X18518356Y-5990356D01*
X18687000Y-5905000D02*
X18787000Y-6005000D01*
X18787000Y-5905000D02*
X18687000Y-6005000D01*
X18772356Y-5990356D02*
X18772356Y-5919644D01*
X18701644Y-5919644D01*
X18701644Y-5990356D01*
X18772356Y-5990356D01*
X18941000Y-5905000D02*
X19041000Y-6005000D01*
X19041000Y-5905000D02*
X18941000Y-6005000D01*
X19026356Y-5990356D02*
X19026356Y-5919644D01*
X18955644Y-5919644D01*
X18955644Y-5990356D01*
X19026356Y-5990356D01*
X19195000Y-5905000D02*
X19295000Y-6005000D01*
X19295000Y-5905000D02*
X19195000Y-6005000D01*
X19280356Y-5990356D02*
X19280356Y-5919644D01*
X19209644Y-5919644D01*
X19209644Y-5990356D01*
X19280356Y-5990356D01*
X19449000Y-5905000D02*
X19549000Y-6005000D01*
X19549000Y-5905000D02*
X19449000Y-6005000D01*
X19534356Y-5990356D02*
X19534356Y-5919644D01*
X19463644Y-5919644D01*
X19463644Y-5990356D01*
X19534356Y-5990356D01*
D19*
X10540250Y-8966500D02*
X10642250Y-9068500D01*
X10642250Y-8966500D02*
X10540250Y-9068500D01*
X10591250Y-9068500D02*
X10642250Y-9017500D01*
X10591250Y-8966500D01*
X10540250Y-9017500D01*
X10591250Y-9068500D01*
X10540250Y-9220500D02*
X10642250Y-9322500D01*
X10642250Y-9220500D02*
X10540250Y-9322500D01*
X10591250Y-9322500D02*
X10642250Y-9271500D01*
X10591250Y-9220500D01*
X10540250Y-9271500D01*
X10591250Y-9322500D01*
X10540250Y-10037500D02*
X10642250Y-10139500D01*
X10642250Y-10037500D02*
X10540250Y-10139500D01*
X10591250Y-10139500D02*
X10642250Y-10088500D01*
X10591250Y-10037500D01*
X10540250Y-10088500D01*
X10591250Y-10139500D01*
X10540250Y-10291500D02*
X10642250Y-10393500D01*
X10642250Y-10291500D02*
X10540250Y-10393500D01*
X10591250Y-10393500D02*
X10642250Y-10342500D01*
X10591250Y-10291500D01*
X10540250Y-10342500D01*
X10591250Y-10393500D01*
D20*
X11166000Y-12443000D02*
X11166000Y-12593000D01*
X11091000Y-12518000D02*
X11241000Y-12518000D01*
X11241000Y-12518000D02*
G75*
G03*
X11241000Y-12518000I-75000J0D01*
G01*
X11166000Y-12987000D02*
X11166000Y-13137000D01*
X11091000Y-13062000D02*
X11241000Y-13062000D01*
X11241000Y-13062000D02*
G75*
G03*
X11241000Y-13062000I-75000J0D01*
G01*
X11866000Y-12443000D02*
X11866000Y-12593000D01*
X11791000Y-12518000D02*
X11941000Y-12518000D01*
X11941000Y-12518000D02*
G75*
G03*
X11941000Y-12518000I-75000J0D01*
G01*
X11866000Y-12987000D02*
X11866000Y-13137000D01*
X11791000Y-13062000D02*
X11941000Y-13062000D01*
X11941000Y-13062000D02*
G75*
G03*
X11941000Y-13062000I-75000J0D01*
G01*
D21*
X10713741Y-5909741D02*
X10713741Y-5802259D01*
X10606259Y-5802259D01*
X10606259Y-5909741D01*
X10713741Y-5909741D01*
X10736000Y-5856000D02*
G75*
G03*
X10736000Y-5856000I-76000J0D01*
G01*
X10713741Y-6417741D02*
X10713741Y-6310259D01*
X10606259Y-6310259D01*
X10606259Y-6417741D01*
X10713741Y-6417741D01*
X10736000Y-6364000D02*
G75*
G03*
X10736000Y-6364000I-76000J0D01*
G01*
D22*
X11386250Y-8987000D02*
X11467750Y-8905500D01*
X11386250Y-8824000D01*
X11304750Y-8905500D01*
X11386250Y-8987000D01*
X11467750Y-8905500D02*
G75*
G03*
X11467750Y-8905500I-81500J0D01*
G01*
X11386250Y-10536000D02*
X11467750Y-10454500D01*
X11386250Y-10373000D01*
X11304750Y-10454500D01*
X11386250Y-10536000D01*
X11467750Y-10454500D02*
G75*
G03*
X11467750Y-10454500I-81500J0D01*
G01*
D11*
X10196619Y-14981476D02*
X10196619Y-14781476D01*
X10244238Y-14781476D01*
X10272810Y-14791000D01*
X10291857Y-14810048D01*
X10301381Y-14829095D01*
X10310905Y-14867190D01*
X10310905Y-14895762D01*
X10301381Y-14933857D01*
X10291857Y-14952905D01*
X10272810Y-14971952D01*
X10244238Y-14981476D01*
X10196619Y-14981476D01*
X10396619Y-14981476D02*
X10396619Y-14848143D01*
X10396619Y-14886238D02*
X10406143Y-14867190D01*
X10415667Y-14857667D01*
X10434714Y-14848143D01*
X10453762Y-14848143D01*
X10520429Y-14981476D02*
X10520429Y-14848143D01*
X10520429Y-14781476D02*
X10510905Y-14791000D01*
X10520429Y-14800524D01*
X10529952Y-14791000D01*
X10520429Y-14781476D01*
X10520429Y-14800524D01*
X10644238Y-14981476D02*
X10625190Y-14971952D01*
X10615667Y-14952905D01*
X10615667Y-14781476D01*
X10749000Y-14981476D02*
X10729952Y-14971952D01*
X10720429Y-14952905D01*
X10720429Y-14781476D01*
X10977571Y-14981476D02*
X10977571Y-14781476D01*
X11044238Y-14924333D01*
X11110905Y-14781476D01*
X11110905Y-14981476D01*
X11291857Y-14981476D02*
X11291857Y-14876714D01*
X11282333Y-14857667D01*
X11263286Y-14848143D01*
X11225190Y-14848143D01*
X11206143Y-14857667D01*
X11291857Y-14971952D02*
X11272809Y-14981476D01*
X11225190Y-14981476D01*
X11206143Y-14971952D01*
X11196619Y-14952905D01*
X11196619Y-14933857D01*
X11206143Y-14914809D01*
X11225190Y-14905286D01*
X11272809Y-14905286D01*
X11291857Y-14895762D01*
X11387095Y-14848143D02*
X11387095Y-15048143D01*
X11387095Y-14857667D02*
X11406143Y-14848143D01*
X11444238Y-14848143D01*
X11463286Y-14857667D01*
X11472809Y-14867190D01*
X11482333Y-14886238D01*
X11482333Y-14943381D01*
X11472809Y-14962428D01*
X11463286Y-14971952D01*
X11444238Y-14981476D01*
X11406143Y-14981476D01*
X11387095Y-14971952D01*
X11568048Y-14962428D02*
X11577571Y-14971952D01*
X11568048Y-14981476D01*
X11558524Y-14971952D01*
X11568048Y-14962428D01*
X11568048Y-14981476D01*
X11568048Y-14857667D02*
X11577571Y-14867190D01*
X11568048Y-14876714D01*
X11558524Y-14867190D01*
X11568048Y-14857667D01*
X11568048Y-14876714D01*
D12*
X9909000Y-15296000D02*
X9939000Y-15326000D01*
X9939000Y-15296000D02*
X9909000Y-15326000D01*
D11*
X10234714Y-15201476D02*
X10253762Y-15201476D01*
X10272810Y-15211000D01*
X10282333Y-15220524D01*
X10291857Y-15239571D01*
X10301381Y-15277667D01*
X10301381Y-15325286D01*
X10291857Y-15363381D01*
X10282333Y-15382428D01*
X10272810Y-15391952D01*
X10253762Y-15401476D01*
X10234714Y-15401476D01*
X10215667Y-15391952D01*
X10206143Y-15382428D01*
X10196619Y-15363381D01*
X10187095Y-15325286D01*
X10187095Y-15277667D01*
X10196619Y-15239571D01*
X10206143Y-15220524D01*
X10215667Y-15211000D01*
X10234714Y-15201476D01*
X10387095Y-15382428D02*
X10396619Y-15391952D01*
X10387095Y-15401476D01*
X10377571Y-15391952D01*
X10387095Y-15382428D01*
X10387095Y-15401476D01*
X10463286Y-15201476D02*
X10587095Y-15201476D01*
X10520429Y-15277667D01*
X10549000Y-15277667D01*
X10568048Y-15287190D01*
X10577571Y-15296714D01*
X10587095Y-15315762D01*
X10587095Y-15363381D01*
X10577571Y-15382428D01*
X10568048Y-15391952D01*
X10549000Y-15401476D01*
X10491857Y-15401476D01*
X10472810Y-15391952D01*
X10463286Y-15382428D01*
X10710905Y-15201476D02*
X10729952Y-15201476D01*
X10749000Y-15211000D01*
X10758524Y-15220524D01*
X10768048Y-15239571D01*
X10777571Y-15277667D01*
X10777571Y-15325286D01*
X10768048Y-15363381D01*
X10758524Y-15382428D01*
X10749000Y-15391952D01*
X10729952Y-15401476D01*
X10710905Y-15401476D01*
X10691857Y-15391952D01*
X10682333Y-15382428D01*
X10672810Y-15363381D01*
X10663286Y-15325286D01*
X10663286Y-15277667D01*
X10672810Y-15239571D01*
X10682333Y-15220524D01*
X10691857Y-15211000D01*
X10710905Y-15201476D01*
X10901381Y-15201476D02*
X10920429Y-15201476D01*
X10939476Y-15211000D01*
X10949000Y-15220524D01*
X10958524Y-15239571D01*
X10968048Y-15277667D01*
X10968048Y-15325286D01*
X10958524Y-15363381D01*
X10949000Y-15382428D01*
X10939476Y-15391952D01*
X10920429Y-15401476D01*
X10901381Y-15401476D01*
X10882333Y-15391952D01*
X10872810Y-15382428D01*
X10863286Y-15363381D01*
X10853762Y-15325286D01*
X10853762Y-15277667D01*
X10863286Y-15239571D01*
X10872810Y-15220524D01*
X10882333Y-15211000D01*
X10901381Y-15201476D01*
X11053762Y-15401476D02*
X11053762Y-15268143D01*
X11053762Y-15287190D02*
X11063286Y-15277667D01*
X11082333Y-15268143D01*
X11110905Y-15268143D01*
X11129952Y-15277667D01*
X11139476Y-15296714D01*
X11139476Y-15401476D01*
X11139476Y-15296714D02*
X11149000Y-15277667D01*
X11168048Y-15268143D01*
X11196619Y-15268143D01*
X11215667Y-15277667D01*
X11225190Y-15296714D01*
X11225190Y-15401476D01*
X11320428Y-15401476D02*
X11320428Y-15268143D01*
X11320428Y-15287190D02*
X11329952Y-15277667D01*
X11349000Y-15268143D01*
X11377571Y-15268143D01*
X11396619Y-15277667D01*
X11406143Y-15296714D01*
X11406143Y-15401476D01*
X11406143Y-15296714D02*
X11415667Y-15277667D01*
X11434714Y-15268143D01*
X11463286Y-15268143D01*
X11482333Y-15277667D01*
X11491857Y-15296714D01*
X11491857Y-15401476D01*
X11882333Y-15191952D02*
X11710905Y-15449095D01*
X12139476Y-15201476D02*
X12158524Y-15201476D01*
X12177571Y-15211000D01*
X12187095Y-15220524D01*
X12196619Y-15239571D01*
X12206143Y-15277667D01*
X12206143Y-15325286D01*
X12196619Y-15363381D01*
X12187095Y-15382428D01*
X12177571Y-15391952D01*
X12158524Y-15401476D01*
X12139476Y-15401476D01*
X12120428Y-15391952D01*
X12110905Y-15382428D01*
X12101381Y-15363381D01*
X12091857Y-15325286D01*
X12091857Y-15277667D01*
X12101381Y-15239571D01*
X12110905Y-15220524D01*
X12120428Y-15211000D01*
X12139476Y-15201476D01*
X12291857Y-15382428D02*
X12301381Y-15391952D01*
X12291857Y-15401476D01*
X12282333Y-15391952D01*
X12291857Y-15382428D01*
X12291857Y-15401476D01*
X12425190Y-15201476D02*
X12444238Y-15201476D01*
X12463286Y-15211000D01*
X12472809Y-15220524D01*
X12482333Y-15239571D01*
X12491857Y-15277667D01*
X12491857Y-15325286D01*
X12482333Y-15363381D01*
X12472809Y-15382428D01*
X12463286Y-15391952D01*
X12444238Y-15401476D01*
X12425190Y-15401476D01*
X12406143Y-15391952D01*
X12396619Y-15382428D01*
X12387095Y-15363381D01*
X12377571Y-15325286D01*
X12377571Y-15277667D01*
X12387095Y-15239571D01*
X12396619Y-15220524D01*
X12406143Y-15211000D01*
X12425190Y-15201476D01*
X12682333Y-15401476D02*
X12568048Y-15401476D01*
X12625190Y-15401476D02*
X12625190Y-15201476D01*
X12606143Y-15230048D01*
X12587095Y-15249095D01*
X12568048Y-15258619D01*
X12872809Y-15401476D02*
X12758524Y-15401476D01*
X12815667Y-15401476D02*
X12815667Y-15201476D01*
X12796619Y-15230048D01*
X12777571Y-15249095D01*
X12758524Y-15258619D01*
X12987095Y-15287190D02*
X12968048Y-15277667D01*
X12958524Y-15268143D01*
X12949000Y-15249095D01*
X12949000Y-15239571D01*
X12958524Y-15220524D01*
X12968048Y-15211000D01*
X12987095Y-15201476D01*
X13025190Y-15201476D01*
X13044238Y-15211000D01*
X13053762Y-15220524D01*
X13063286Y-15239571D01*
X13063286Y-15249095D01*
X13053762Y-15268143D01*
X13044238Y-15277667D01*
X13025190Y-15287190D01*
X12987095Y-15287190D01*
X12968048Y-15296714D01*
X12958524Y-15306238D01*
X12949000Y-15325286D01*
X12949000Y-15363381D01*
X12958524Y-15382428D01*
X12968048Y-15391952D01*
X12987095Y-15401476D01*
X13025190Y-15401476D01*
X13044238Y-15391952D01*
X13053762Y-15382428D01*
X13063286Y-15363381D01*
X13063286Y-15325286D01*
X13053762Y-15306238D01*
X13044238Y-15296714D01*
X13025190Y-15287190D01*
X13139476Y-15201476D02*
X13139476Y-15239571D01*
X13215667Y-15201476D02*
X13215667Y-15239571D01*
X13510905Y-15477667D02*
X13501381Y-15468143D01*
X13482333Y-15439571D01*
X13472809Y-15420524D01*
X13463286Y-15391952D01*
X13453762Y-15344333D01*
X13453762Y-15306238D01*
X13463286Y-15258619D01*
X13472809Y-15230048D01*
X13482333Y-15211000D01*
X13501381Y-15182428D01*
X13510905Y-15172905D01*
X13568048Y-15201476D02*
X13691857Y-15201476D01*
X13625190Y-15277667D01*
X13653762Y-15277667D01*
X13672809Y-15287190D01*
X13682333Y-15296714D01*
X13691857Y-15315762D01*
X13691857Y-15363381D01*
X13682333Y-15382428D01*
X13672809Y-15391952D01*
X13653762Y-15401476D01*
X13596619Y-15401476D01*
X13577571Y-15391952D01*
X13568048Y-15382428D01*
X13768048Y-15220524D02*
X13777571Y-15211000D01*
X13796619Y-15201476D01*
X13844238Y-15201476D01*
X13863286Y-15211000D01*
X13872809Y-15220524D01*
X13882333Y-15239571D01*
X13882333Y-15258619D01*
X13872809Y-15287190D01*
X13758524Y-15401476D01*
X13882333Y-15401476D01*
X13958524Y-15220524D02*
X13968048Y-15211000D01*
X13987095Y-15201476D01*
X14034714Y-15201476D01*
X14053762Y-15211000D01*
X14063286Y-15220524D01*
X14072809Y-15239571D01*
X14072809Y-15258619D01*
X14063286Y-15287190D01*
X13949000Y-15401476D01*
X14072809Y-15401476D01*
X14310905Y-15401476D02*
X14310905Y-15201476D01*
X14396619Y-15401476D02*
X14396619Y-15296714D01*
X14387095Y-15277667D01*
X14368048Y-15268143D01*
X14339476Y-15268143D01*
X14320428Y-15277667D01*
X14310905Y-15287190D01*
X14520428Y-15401476D02*
X14501381Y-15391952D01*
X14491857Y-15382428D01*
X14482333Y-15363381D01*
X14482333Y-15306238D01*
X14491857Y-15287190D01*
X14501381Y-15277667D01*
X14520428Y-15268143D01*
X14549000Y-15268143D01*
X14568048Y-15277667D01*
X14577571Y-15287190D01*
X14587095Y-15306238D01*
X14587095Y-15363381D01*
X14577571Y-15382428D01*
X14568048Y-15391952D01*
X14549000Y-15401476D01*
X14520428Y-15401476D01*
X14701381Y-15401476D02*
X14682333Y-15391952D01*
X14672809Y-15372905D01*
X14672809Y-15201476D01*
X14853762Y-15391952D02*
X14834714Y-15401476D01*
X14796619Y-15401476D01*
X14777571Y-15391952D01*
X14768048Y-15372905D01*
X14768048Y-15296714D01*
X14777571Y-15277667D01*
X14796619Y-15268143D01*
X14834714Y-15268143D01*
X14853762Y-15277667D01*
X14863286Y-15296714D01*
X14863286Y-15315762D01*
X14768048Y-15334809D01*
X14939476Y-15391952D02*
X14958524Y-15401476D01*
X14996619Y-15401476D01*
X15015667Y-15391952D01*
X15025190Y-15372905D01*
X15025190Y-15363381D01*
X15015667Y-15344333D01*
X14996619Y-15334809D01*
X14968048Y-15334809D01*
X14949000Y-15325286D01*
X14939476Y-15306238D01*
X14939476Y-15296714D01*
X14949000Y-15277667D01*
X14968048Y-15268143D01*
X14996619Y-15268143D01*
X15015667Y-15277667D01*
X15091857Y-15477667D02*
X15101381Y-15468143D01*
X15120428Y-15439571D01*
X15129952Y-15420524D01*
X15139476Y-15391952D01*
X15149000Y-15344333D01*
X15149000Y-15306238D01*
X15139476Y-15258619D01*
X15129952Y-15230048D01*
X15120428Y-15211000D01*
X15101381Y-15182428D01*
X15091857Y-15172905D01*
D13*
X9939000Y-15575000D02*
G75*
G03*
X9939000Y-15575000I-15240J0D01*
G01*
D11*
X10234714Y-15465476D02*
X10253762Y-15465476D01*
X10272810Y-15475000D01*
X10282333Y-15484524D01*
X10291857Y-15503571D01*
X10301381Y-15541667D01*
X10301381Y-15589286D01*
X10291857Y-15627381D01*
X10282333Y-15646428D01*
X10272810Y-15655952D01*
X10253762Y-15665476D01*
X10234714Y-15665476D01*
X10215667Y-15655952D01*
X10206143Y-15646428D01*
X10196619Y-15627381D01*
X10187095Y-15589286D01*
X10187095Y-15541667D01*
X10196619Y-15503571D01*
X10206143Y-15484524D01*
X10215667Y-15475000D01*
X10234714Y-15465476D01*
X10387095Y-15646428D02*
X10396619Y-15655952D01*
X10387095Y-15665476D01*
X10377571Y-15655952D01*
X10387095Y-15646428D01*
X10387095Y-15665476D01*
X10463286Y-15465476D02*
X10587095Y-15465476D01*
X10520429Y-15541667D01*
X10549000Y-15541667D01*
X10568048Y-15551190D01*
X10577571Y-15560714D01*
X10587095Y-15579762D01*
X10587095Y-15627381D01*
X10577571Y-15646428D01*
X10568048Y-15655952D01*
X10549000Y-15665476D01*
X10491857Y-15665476D01*
X10472810Y-15655952D01*
X10463286Y-15646428D01*
X10710905Y-15465476D02*
X10729952Y-15465476D01*
X10749000Y-15475000D01*
X10758524Y-15484524D01*
X10768048Y-15503571D01*
X10777571Y-15541667D01*
X10777571Y-15589286D01*
X10768048Y-15627381D01*
X10758524Y-15646428D01*
X10749000Y-15655952D01*
X10729952Y-15665476D01*
X10710905Y-15665476D01*
X10691857Y-15655952D01*
X10682333Y-15646428D01*
X10672810Y-15627381D01*
X10663286Y-15589286D01*
X10663286Y-15541667D01*
X10672810Y-15503571D01*
X10682333Y-15484524D01*
X10691857Y-15475000D01*
X10710905Y-15465476D01*
X10958524Y-15465476D02*
X10863286Y-15465476D01*
X10853762Y-15560714D01*
X10863286Y-15551190D01*
X10882333Y-15541667D01*
X10929952Y-15541667D01*
X10949000Y-15551190D01*
X10958524Y-15560714D01*
X10968048Y-15579762D01*
X10968048Y-15627381D01*
X10958524Y-15646428D01*
X10949000Y-15655952D01*
X10929952Y-15665476D01*
X10882333Y-15665476D01*
X10863286Y-15655952D01*
X10853762Y-15646428D01*
X11053762Y-15665476D02*
X11053762Y-15532143D01*
X11053762Y-15551190D02*
X11063286Y-15541667D01*
X11082333Y-15532143D01*
X11110905Y-15532143D01*
X11129952Y-15541667D01*
X11139476Y-15560714D01*
X11139476Y-15665476D01*
X11139476Y-15560714D02*
X11149000Y-15541667D01*
X11168048Y-15532143D01*
X11196619Y-15532143D01*
X11215667Y-15541667D01*
X11225190Y-15560714D01*
X11225190Y-15665476D01*
X11320428Y-15665476D02*
X11320428Y-15532143D01*
X11320428Y-15551190D02*
X11329952Y-15541667D01*
X11349000Y-15532143D01*
X11377571Y-15532143D01*
X11396619Y-15541667D01*
X11406143Y-15560714D01*
X11406143Y-15665476D01*
X11406143Y-15560714D02*
X11415667Y-15541667D01*
X11434714Y-15532143D01*
X11463286Y-15532143D01*
X11482333Y-15541667D01*
X11491857Y-15560714D01*
X11491857Y-15665476D01*
X11882333Y-15455952D02*
X11710905Y-15713095D01*
X12139476Y-15465476D02*
X12158524Y-15465476D01*
X12177571Y-15475000D01*
X12187095Y-15484524D01*
X12196619Y-15503571D01*
X12206143Y-15541667D01*
X12206143Y-15589286D01*
X12196619Y-15627381D01*
X12187095Y-15646428D01*
X12177571Y-15655952D01*
X12158524Y-15665476D01*
X12139476Y-15665476D01*
X12120428Y-15655952D01*
X12110905Y-15646428D01*
X12101381Y-15627381D01*
X12091857Y-15589286D01*
X12091857Y-15541667D01*
X12101381Y-15503571D01*
X12110905Y-15484524D01*
X12120428Y-15475000D01*
X12139476Y-15465476D01*
X12291857Y-15646428D02*
X12301381Y-15655952D01*
X12291857Y-15665476D01*
X12282333Y-15655952D01*
X12291857Y-15646428D01*
X12291857Y-15665476D01*
X12425190Y-15465476D02*
X12444238Y-15465476D01*
X12463286Y-15475000D01*
X12472809Y-15484524D01*
X12482333Y-15503571D01*
X12491857Y-15541667D01*
X12491857Y-15589286D01*
X12482333Y-15627381D01*
X12472809Y-15646428D01*
X12463286Y-15655952D01*
X12444238Y-15665476D01*
X12425190Y-15665476D01*
X12406143Y-15655952D01*
X12396619Y-15646428D01*
X12387095Y-15627381D01*
X12377571Y-15589286D01*
X12377571Y-15541667D01*
X12387095Y-15503571D01*
X12396619Y-15484524D01*
X12406143Y-15475000D01*
X12425190Y-15465476D01*
X12682333Y-15665476D02*
X12568048Y-15665476D01*
X12625190Y-15665476D02*
X12625190Y-15465476D01*
X12606143Y-15494048D01*
X12587095Y-15513095D01*
X12568048Y-15522619D01*
X12758524Y-15484524D02*
X12768048Y-15475000D01*
X12787095Y-15465476D01*
X12834714Y-15465476D01*
X12853762Y-15475000D01*
X12863286Y-15484524D01*
X12872809Y-15503571D01*
X12872809Y-15522619D01*
X12863286Y-15551190D01*
X12749000Y-15665476D01*
X12872809Y-15665476D01*
X12996619Y-15465476D02*
X13015667Y-15465476D01*
X13034714Y-15475000D01*
X13044238Y-15484524D01*
X13053762Y-15503571D01*
X13063286Y-15541667D01*
X13063286Y-15589286D01*
X13053762Y-15627381D01*
X13044238Y-15646428D01*
X13034714Y-15655952D01*
X13015667Y-15665476D01*
X12996619Y-15665476D01*
X12977571Y-15655952D01*
X12968048Y-15646428D01*
X12958524Y-15627381D01*
X12949000Y-15589286D01*
X12949000Y-15541667D01*
X12958524Y-15503571D01*
X12968048Y-15484524D01*
X12977571Y-15475000D01*
X12996619Y-15465476D01*
X13139476Y-15465476D02*
X13139476Y-15503571D01*
X13215667Y-15465476D02*
X13215667Y-15503571D01*
X13510905Y-15741667D02*
X13501381Y-15732143D01*
X13482333Y-15703571D01*
X13472809Y-15684524D01*
X13463286Y-15655952D01*
X13453762Y-15608333D01*
X13453762Y-15570238D01*
X13463286Y-15522619D01*
X13472809Y-15494048D01*
X13482333Y-15475000D01*
X13501381Y-15446428D01*
X13510905Y-15436905D01*
X13691857Y-15665476D02*
X13577571Y-15665476D01*
X13634714Y-15665476D02*
X13634714Y-15465476D01*
X13615667Y-15494048D01*
X13596619Y-15513095D01*
X13577571Y-15522619D01*
X13806143Y-15551190D02*
X13787095Y-15541667D01*
X13777571Y-15532143D01*
X13768048Y-15513095D01*
X13768048Y-15503571D01*
X13777571Y-15484524D01*
X13787095Y-15475000D01*
X13806143Y-15465476D01*
X13844238Y-15465476D01*
X13863286Y-15475000D01*
X13872809Y-15484524D01*
X13882333Y-15503571D01*
X13882333Y-15513095D01*
X13872809Y-15532143D01*
X13863286Y-15541667D01*
X13844238Y-15551190D01*
X13806143Y-15551190D01*
X13787095Y-15560714D01*
X13777571Y-15570238D01*
X13768048Y-15589286D01*
X13768048Y-15627381D01*
X13777571Y-15646428D01*
X13787095Y-15655952D01*
X13806143Y-15665476D01*
X13844238Y-15665476D01*
X13863286Y-15655952D01*
X13872809Y-15646428D01*
X13882333Y-15627381D01*
X13882333Y-15589286D01*
X13872809Y-15570238D01*
X13863286Y-15560714D01*
X13844238Y-15551190D01*
X14120428Y-15665476D02*
X14120428Y-15465476D01*
X14206143Y-15665476D02*
X14206143Y-15560714D01*
X14196619Y-15541667D01*
X14177571Y-15532143D01*
X14149000Y-15532143D01*
X14129952Y-15541667D01*
X14120428Y-15551190D01*
X14329952Y-15665476D02*
X14310905Y-15655952D01*
X14301381Y-15646428D01*
X14291857Y-15627381D01*
X14291857Y-15570238D01*
X14301381Y-15551190D01*
X14310905Y-15541667D01*
X14329952Y-15532143D01*
X14358524Y-15532143D01*
X14377571Y-15541667D01*
X14387095Y-15551190D01*
X14396619Y-15570238D01*
X14396619Y-15627381D01*
X14387095Y-15646428D01*
X14377571Y-15655952D01*
X14358524Y-15665476D01*
X14329952Y-15665476D01*
X14510905Y-15665476D02*
X14491857Y-15655952D01*
X14482333Y-15636905D01*
X14482333Y-15465476D01*
X14663286Y-15655952D02*
X14644238Y-15665476D01*
X14606143Y-15665476D01*
X14587095Y-15655952D01*
X14577571Y-15636905D01*
X14577571Y-15560714D01*
X14587095Y-15541667D01*
X14606143Y-15532143D01*
X14644238Y-15532143D01*
X14663286Y-15541667D01*
X14672809Y-15560714D01*
X14672809Y-15579762D01*
X14577571Y-15598809D01*
X14749000Y-15655952D02*
X14768048Y-15665476D01*
X14806143Y-15665476D01*
X14825190Y-15655952D01*
X14834714Y-15636905D01*
X14834714Y-15627381D01*
X14825190Y-15608333D01*
X14806143Y-15598809D01*
X14777571Y-15598809D01*
X14758524Y-15589286D01*
X14749000Y-15570238D01*
X14749000Y-15560714D01*
X14758524Y-15541667D01*
X14777571Y-15532143D01*
X14806143Y-15532143D01*
X14825190Y-15541667D01*
X14901381Y-15741667D02*
X14910905Y-15732143D01*
X14929952Y-15703571D01*
X14939476Y-15684524D01*
X14949000Y-15655952D01*
X14958524Y-15608333D01*
X14958524Y-15570238D01*
X14949000Y-15522619D01*
X14939476Y-15494048D01*
X14929952Y-15475000D01*
X14910905Y-15446428D01*
X14901381Y-15436905D01*
D14*
X9909000Y-15809000D02*
X9909000Y-15869000D01*
X9879000Y-15839000D02*
X9939000Y-15839000D01*
D11*
X10234714Y-15729476D02*
X10253762Y-15729476D01*
X10272810Y-15739000D01*
X10282333Y-15748524D01*
X10291857Y-15767571D01*
X10301381Y-15805667D01*
X10301381Y-15853286D01*
X10291857Y-15891381D01*
X10282333Y-15910428D01*
X10272810Y-15919952D01*
X10253762Y-15929476D01*
X10234714Y-15929476D01*
X10215667Y-15919952D01*
X10206143Y-15910428D01*
X10196619Y-15891381D01*
X10187095Y-15853286D01*
X10187095Y-15805667D01*
X10196619Y-15767571D01*
X10206143Y-15748524D01*
X10215667Y-15739000D01*
X10234714Y-15729476D01*
X10387095Y-15910428D02*
X10396619Y-15919952D01*
X10387095Y-15929476D01*
X10377571Y-15919952D01*
X10387095Y-15910428D01*
X10387095Y-15929476D01*
X10568048Y-15729476D02*
X10529952Y-15729476D01*
X10510905Y-15739000D01*
X10501381Y-15748524D01*
X10482333Y-15777095D01*
X10472810Y-15815190D01*
X10472810Y-15891381D01*
X10482333Y-15910428D01*
X10491857Y-15919952D01*
X10510905Y-15929476D01*
X10549000Y-15929476D01*
X10568048Y-15919952D01*
X10577571Y-15910428D01*
X10587095Y-15891381D01*
X10587095Y-15843762D01*
X10577571Y-15824714D01*
X10568048Y-15815190D01*
X10549000Y-15805667D01*
X10510905Y-15805667D01*
X10491857Y-15815190D01*
X10482333Y-15824714D01*
X10472810Y-15843762D01*
X10710905Y-15729476D02*
X10729952Y-15729476D01*
X10749000Y-15739000D01*
X10758524Y-15748524D01*
X10768048Y-15767571D01*
X10777571Y-15805667D01*
X10777571Y-15853286D01*
X10768048Y-15891381D01*
X10758524Y-15910428D01*
X10749000Y-15919952D01*
X10729952Y-15929476D01*
X10710905Y-15929476D01*
X10691857Y-15919952D01*
X10682333Y-15910428D01*
X10672810Y-15891381D01*
X10663286Y-15853286D01*
X10663286Y-15805667D01*
X10672810Y-15767571D01*
X10682333Y-15748524D01*
X10691857Y-15739000D01*
X10710905Y-15729476D01*
X10901381Y-15729476D02*
X10920429Y-15729476D01*
X10939476Y-15739000D01*
X10949000Y-15748524D01*
X10958524Y-15767571D01*
X10968048Y-15805667D01*
X10968048Y-15853286D01*
X10958524Y-15891381D01*
X10949000Y-15910428D01*
X10939476Y-15919952D01*
X10920429Y-15929476D01*
X10901381Y-15929476D01*
X10882333Y-15919952D01*
X10872810Y-15910428D01*
X10863286Y-15891381D01*
X10853762Y-15853286D01*
X10853762Y-15805667D01*
X10863286Y-15767571D01*
X10872810Y-15748524D01*
X10882333Y-15739000D01*
X10901381Y-15729476D01*
X11053762Y-15929476D02*
X11053762Y-15796143D01*
X11053762Y-15815190D02*
X11063286Y-15805667D01*
X11082333Y-15796143D01*
X11110905Y-15796143D01*
X11129952Y-15805667D01*
X11139476Y-15824714D01*
X11139476Y-15929476D01*
X11139476Y-15824714D02*
X11149000Y-15805667D01*
X11168048Y-15796143D01*
X11196619Y-15796143D01*
X11215667Y-15805667D01*
X11225190Y-15824714D01*
X11225190Y-15929476D01*
X11320428Y-15929476D02*
X11320428Y-15796143D01*
X11320428Y-15815190D02*
X11329952Y-15805667D01*
X11349000Y-15796143D01*
X11377571Y-15796143D01*
X11396619Y-15805667D01*
X11406143Y-15824714D01*
X11406143Y-15929476D01*
X11406143Y-15824714D02*
X11415667Y-15805667D01*
X11434714Y-15796143D01*
X11463286Y-15796143D01*
X11482333Y-15805667D01*
X11491857Y-15824714D01*
X11491857Y-15929476D01*
X11882333Y-15719952D02*
X11710905Y-15977095D01*
X12139476Y-15729476D02*
X12158524Y-15729476D01*
X12177571Y-15739000D01*
X12187095Y-15748524D01*
X12196619Y-15767571D01*
X12206143Y-15805667D01*
X12206143Y-15853286D01*
X12196619Y-15891381D01*
X12187095Y-15910428D01*
X12177571Y-15919952D01*
X12158524Y-15929476D01*
X12139476Y-15929476D01*
X12120428Y-15919952D01*
X12110905Y-15910428D01*
X12101381Y-15891381D01*
X12091857Y-15853286D01*
X12091857Y-15805667D01*
X12101381Y-15767571D01*
X12110905Y-15748524D01*
X12120428Y-15739000D01*
X12139476Y-15729476D01*
X12291857Y-15910428D02*
X12301381Y-15919952D01*
X12291857Y-15929476D01*
X12282333Y-15919952D01*
X12291857Y-15910428D01*
X12291857Y-15929476D01*
X12425190Y-15729476D02*
X12444238Y-15729476D01*
X12463286Y-15739000D01*
X12472809Y-15748524D01*
X12482333Y-15767571D01*
X12491857Y-15805667D01*
X12491857Y-15853286D01*
X12482333Y-15891381D01*
X12472809Y-15910428D01*
X12463286Y-15919952D01*
X12444238Y-15929476D01*
X12425190Y-15929476D01*
X12406143Y-15919952D01*
X12396619Y-15910428D01*
X12387095Y-15891381D01*
X12377571Y-15853286D01*
X12377571Y-15805667D01*
X12387095Y-15767571D01*
X12396619Y-15748524D01*
X12406143Y-15739000D01*
X12425190Y-15729476D01*
X12568048Y-15748524D02*
X12577571Y-15739000D01*
X12596619Y-15729476D01*
X12644238Y-15729476D01*
X12663286Y-15739000D01*
X12672809Y-15748524D01*
X12682333Y-15767571D01*
X12682333Y-15786619D01*
X12672809Y-15815190D01*
X12558524Y-15929476D01*
X12682333Y-15929476D01*
X12749000Y-15729476D02*
X12872809Y-15729476D01*
X12806143Y-15805667D01*
X12834714Y-15805667D01*
X12853762Y-15815190D01*
X12863286Y-15824714D01*
X12872809Y-15843762D01*
X12872809Y-15891381D01*
X12863286Y-15910428D01*
X12853762Y-15919952D01*
X12834714Y-15929476D01*
X12777571Y-15929476D01*
X12758524Y-15919952D01*
X12749000Y-15910428D01*
X13044238Y-15729476D02*
X13006143Y-15729476D01*
X12987095Y-15739000D01*
X12977571Y-15748524D01*
X12958524Y-15777095D01*
X12949000Y-15815190D01*
X12949000Y-15891381D01*
X12958524Y-15910428D01*
X12968048Y-15919952D01*
X12987095Y-15929476D01*
X13025190Y-15929476D01*
X13044238Y-15919952D01*
X13053762Y-15910428D01*
X13063286Y-15891381D01*
X13063286Y-15843762D01*
X13053762Y-15824714D01*
X13044238Y-15815190D01*
X13025190Y-15805667D01*
X12987095Y-15805667D01*
X12968048Y-15815190D01*
X12958524Y-15824714D01*
X12949000Y-15843762D01*
X13139476Y-15729476D02*
X13139476Y-15767571D01*
X13215667Y-15729476D02*
X13215667Y-15767571D01*
X13510905Y-16005667D02*
X13501381Y-15996143D01*
X13482333Y-15967571D01*
X13472809Y-15948524D01*
X13463286Y-15919952D01*
X13453762Y-15872333D01*
X13453762Y-15834238D01*
X13463286Y-15786619D01*
X13472809Y-15758048D01*
X13482333Y-15739000D01*
X13501381Y-15710428D01*
X13510905Y-15700905D01*
X13625190Y-15729476D02*
X13644238Y-15729476D01*
X13663286Y-15739000D01*
X13672809Y-15748524D01*
X13682333Y-15767571D01*
X13691857Y-15805667D01*
X13691857Y-15853286D01*
X13682333Y-15891381D01*
X13672809Y-15910428D01*
X13663286Y-15919952D01*
X13644238Y-15929476D01*
X13625190Y-15929476D01*
X13606143Y-15919952D01*
X13596619Y-15910428D01*
X13587095Y-15891381D01*
X13577571Y-15853286D01*
X13577571Y-15805667D01*
X13587095Y-15767571D01*
X13596619Y-15748524D01*
X13606143Y-15739000D01*
X13625190Y-15729476D01*
X13929952Y-15929476D02*
X13929952Y-15729476D01*
X14015667Y-15929476D02*
X14015667Y-15824714D01*
X14006143Y-15805667D01*
X13987095Y-15796143D01*
X13958524Y-15796143D01*
X13939476Y-15805667D01*
X13929952Y-15815190D01*
X14139476Y-15929476D02*
X14120428Y-15919952D01*
X14110905Y-15910428D01*
X14101381Y-15891381D01*
X14101381Y-15834238D01*
X14110905Y-15815190D01*
X14120428Y-15805667D01*
X14139476Y-15796143D01*
X14168048Y-15796143D01*
X14187095Y-15805667D01*
X14196619Y-15815190D01*
X14206143Y-15834238D01*
X14206143Y-15891381D01*
X14196619Y-15910428D01*
X14187095Y-15919952D01*
X14168048Y-15929476D01*
X14139476Y-15929476D01*
X14320428Y-15929476D02*
X14301381Y-15919952D01*
X14291857Y-15900905D01*
X14291857Y-15729476D01*
X14472809Y-15919952D02*
X14453762Y-15929476D01*
X14415667Y-15929476D01*
X14396619Y-15919952D01*
X14387095Y-15900905D01*
X14387095Y-15824714D01*
X14396619Y-15805667D01*
X14415667Y-15796143D01*
X14453762Y-15796143D01*
X14472809Y-15805667D01*
X14482333Y-15824714D01*
X14482333Y-15843762D01*
X14387095Y-15862809D01*
X14558524Y-15919952D02*
X14577571Y-15929476D01*
X14615667Y-15929476D01*
X14634714Y-15919952D01*
X14644238Y-15900905D01*
X14644238Y-15891381D01*
X14634714Y-15872333D01*
X14615667Y-15862809D01*
X14587095Y-15862809D01*
X14568048Y-15853286D01*
X14558524Y-15834238D01*
X14558524Y-15824714D01*
X14568048Y-15805667D01*
X14587095Y-15796143D01*
X14615667Y-15796143D01*
X14634714Y-15805667D01*
X14882333Y-15853286D02*
X15034714Y-15853286D01*
X14958524Y-15929476D02*
X14958524Y-15777095D01*
X15368048Y-15796143D02*
X15368048Y-15929476D01*
X15320428Y-15719952D02*
X15272809Y-15862809D01*
X15396619Y-15862809D01*
X15615667Y-15919952D02*
X15634714Y-15929476D01*
X15672809Y-15929476D01*
X15691857Y-15919952D01*
X15701381Y-15900905D01*
X15701381Y-15891381D01*
X15691857Y-15872333D01*
X15672809Y-15862809D01*
X15644238Y-15862809D01*
X15625190Y-15853286D01*
X15615667Y-15834238D01*
X15615667Y-15824714D01*
X15625190Y-15805667D01*
X15644238Y-15796143D01*
X15672809Y-15796143D01*
X15691857Y-15805667D01*
X15815667Y-15929476D02*
X15796619Y-15919952D01*
X15787095Y-15900905D01*
X15787095Y-15729476D01*
X15920428Y-15929476D02*
X15901381Y-15919952D01*
X15891857Y-15910428D01*
X15882333Y-15891381D01*
X15882333Y-15834238D01*
X15891857Y-15815190D01*
X15901381Y-15805667D01*
X15920428Y-15796143D01*
X15949000Y-15796143D01*
X15968048Y-15805667D01*
X15977571Y-15815190D01*
X15987095Y-15834238D01*
X15987095Y-15891381D01*
X15977571Y-15910428D01*
X15968048Y-15919952D01*
X15949000Y-15929476D01*
X15920428Y-15929476D01*
X16044238Y-15796143D02*
X16120428Y-15796143D01*
X16072809Y-15729476D02*
X16072809Y-15900905D01*
X16082333Y-15919952D01*
X16101381Y-15929476D01*
X16120428Y-15929476D01*
X16177571Y-15919952D02*
X16196619Y-15929476D01*
X16234714Y-15929476D01*
X16253762Y-15919952D01*
X16263286Y-15900905D01*
X16263286Y-15891381D01*
X16253762Y-15872333D01*
X16234714Y-15862809D01*
X16206143Y-15862809D01*
X16187095Y-15853286D01*
X16177571Y-15834238D01*
X16177571Y-15824714D01*
X16187095Y-15805667D01*
X16206143Y-15796143D01*
X16234714Y-15796143D01*
X16253762Y-15805667D01*
X16329952Y-16005667D02*
X16339476Y-15996143D01*
X16358524Y-15967571D01*
X16368048Y-15948524D01*
X16377571Y-15919952D01*
X16387095Y-15872333D01*
X16387095Y-15834238D01*
X16377571Y-15786619D01*
X16368048Y-15758048D01*
X16358524Y-15739000D01*
X16339476Y-15710428D01*
X16329952Y-15700905D01*
D15*
X9928017Y-16129517D02*
X9928017Y-16076483D01*
X9874983Y-16076483D01*
X9874983Y-16129517D01*
X9928017Y-16129517D01*
D11*
X10234714Y-15993476D02*
X10253762Y-15993476D01*
X10272810Y-16003000D01*
X10282333Y-16012524D01*
X10291857Y-16031571D01*
X10301381Y-16069667D01*
X10301381Y-16117286D01*
X10291857Y-16155381D01*
X10282333Y-16174428D01*
X10272810Y-16183952D01*
X10253762Y-16193476D01*
X10234714Y-16193476D01*
X10215667Y-16183952D01*
X10206143Y-16174428D01*
X10196619Y-16155381D01*
X10187095Y-16117286D01*
X10187095Y-16069667D01*
X10196619Y-16031571D01*
X10206143Y-16012524D01*
X10215667Y-16003000D01*
X10234714Y-15993476D01*
X10387095Y-16174428D02*
X10396619Y-16183952D01*
X10387095Y-16193476D01*
X10377571Y-16183952D01*
X10387095Y-16174428D01*
X10387095Y-16193476D01*
X10463286Y-15993476D02*
X10596619Y-15993476D01*
X10510905Y-16193476D01*
X10768048Y-15993476D02*
X10672810Y-15993476D01*
X10663286Y-16088714D01*
X10672810Y-16079190D01*
X10691857Y-16069667D01*
X10739476Y-16069667D01*
X10758524Y-16079190D01*
X10768048Y-16088714D01*
X10777571Y-16107762D01*
X10777571Y-16155381D01*
X10768048Y-16174428D01*
X10758524Y-16183952D01*
X10739476Y-16193476D01*
X10691857Y-16193476D01*
X10672810Y-16183952D01*
X10663286Y-16174428D01*
X10901381Y-15993476D02*
X10920429Y-15993476D01*
X10939476Y-16003000D01*
X10949000Y-16012524D01*
X10958524Y-16031571D01*
X10968048Y-16069667D01*
X10968048Y-16117286D01*
X10958524Y-16155381D01*
X10949000Y-16174428D01*
X10939476Y-16183952D01*
X10920429Y-16193476D01*
X10901381Y-16193476D01*
X10882333Y-16183952D01*
X10872810Y-16174428D01*
X10863286Y-16155381D01*
X10853762Y-16117286D01*
X10853762Y-16069667D01*
X10863286Y-16031571D01*
X10872810Y-16012524D01*
X10882333Y-16003000D01*
X10901381Y-15993476D01*
X11053762Y-16193476D02*
X11053762Y-16060143D01*
X11053762Y-16079190D02*
X11063286Y-16069667D01*
X11082333Y-16060143D01*
X11110905Y-16060143D01*
X11129952Y-16069667D01*
X11139476Y-16088714D01*
X11139476Y-16193476D01*
X11139476Y-16088714D02*
X11149000Y-16069667D01*
X11168048Y-16060143D01*
X11196619Y-16060143D01*
X11215667Y-16069667D01*
X11225190Y-16088714D01*
X11225190Y-16193476D01*
X11320428Y-16193476D02*
X11320428Y-16060143D01*
X11320428Y-16079190D02*
X11329952Y-16069667D01*
X11349000Y-16060143D01*
X11377571Y-16060143D01*
X11396619Y-16069667D01*
X11406143Y-16088714D01*
X11406143Y-16193476D01*
X11406143Y-16088714D02*
X11415667Y-16069667D01*
X11434714Y-16060143D01*
X11463286Y-16060143D01*
X11482333Y-16069667D01*
X11491857Y-16088714D01*
X11491857Y-16193476D01*
X11882333Y-15983952D02*
X11710905Y-16241095D01*
X12139476Y-15993476D02*
X12158524Y-15993476D01*
X12177571Y-16003000D01*
X12187095Y-16012524D01*
X12196619Y-16031571D01*
X12206143Y-16069667D01*
X12206143Y-16117286D01*
X12196619Y-16155381D01*
X12187095Y-16174428D01*
X12177571Y-16183952D01*
X12158524Y-16193476D01*
X12139476Y-16193476D01*
X12120428Y-16183952D01*
X12110905Y-16174428D01*
X12101381Y-16155381D01*
X12091857Y-16117286D01*
X12091857Y-16069667D01*
X12101381Y-16031571D01*
X12110905Y-16012524D01*
X12120428Y-16003000D01*
X12139476Y-15993476D01*
X12291857Y-16174428D02*
X12301381Y-16183952D01*
X12291857Y-16193476D01*
X12282333Y-16183952D01*
X12291857Y-16174428D01*
X12291857Y-16193476D01*
X12425190Y-15993476D02*
X12444238Y-15993476D01*
X12463286Y-16003000D01*
X12472809Y-16012524D01*
X12482333Y-16031571D01*
X12491857Y-16069667D01*
X12491857Y-16117286D01*
X12482333Y-16155381D01*
X12472809Y-16174428D01*
X12463286Y-16183952D01*
X12444238Y-16193476D01*
X12425190Y-16193476D01*
X12406143Y-16183952D01*
X12396619Y-16174428D01*
X12387095Y-16155381D01*
X12377571Y-16117286D01*
X12377571Y-16069667D01*
X12387095Y-16031571D01*
X12396619Y-16012524D01*
X12406143Y-16003000D01*
X12425190Y-15993476D01*
X12568048Y-16012524D02*
X12577571Y-16003000D01*
X12596619Y-15993476D01*
X12644238Y-15993476D01*
X12663286Y-16003000D01*
X12672809Y-16012524D01*
X12682333Y-16031571D01*
X12682333Y-16050619D01*
X12672809Y-16079190D01*
X12558524Y-16193476D01*
X12682333Y-16193476D01*
X12777571Y-16193476D02*
X12815667Y-16193476D01*
X12834714Y-16183952D01*
X12844238Y-16174428D01*
X12863286Y-16145857D01*
X12872809Y-16107762D01*
X12872809Y-16031571D01*
X12863286Y-16012524D01*
X12853762Y-16003000D01*
X12834714Y-15993476D01*
X12796619Y-15993476D01*
X12777571Y-16003000D01*
X12768048Y-16012524D01*
X12758524Y-16031571D01*
X12758524Y-16079190D01*
X12768048Y-16098238D01*
X12777571Y-16107762D01*
X12796619Y-16117286D01*
X12834714Y-16117286D01*
X12853762Y-16107762D01*
X12863286Y-16098238D01*
X12872809Y-16079190D01*
X13053762Y-15993476D02*
X12958524Y-15993476D01*
X12949000Y-16088714D01*
X12958524Y-16079190D01*
X12977571Y-16069667D01*
X13025190Y-16069667D01*
X13044238Y-16079190D01*
X13053762Y-16088714D01*
X13063286Y-16107762D01*
X13063286Y-16155381D01*
X13053762Y-16174428D01*
X13044238Y-16183952D01*
X13025190Y-16193476D01*
X12977571Y-16193476D01*
X12958524Y-16183952D01*
X12949000Y-16174428D01*
X13139476Y-15993476D02*
X13139476Y-16031571D01*
X13215667Y-15993476D02*
X13215667Y-16031571D01*
X13510905Y-16269667D02*
X13501381Y-16260143D01*
X13482333Y-16231571D01*
X13472809Y-16212524D01*
X13463286Y-16183952D01*
X13453762Y-16136333D01*
X13453762Y-16098238D01*
X13463286Y-16050619D01*
X13472809Y-16022048D01*
X13482333Y-16003000D01*
X13501381Y-15974428D01*
X13510905Y-15964905D01*
X13577571Y-16012524D02*
X13587095Y-16003000D01*
X13606143Y-15993476D01*
X13653762Y-15993476D01*
X13672809Y-16003000D01*
X13682333Y-16012524D01*
X13691857Y-16031571D01*
X13691857Y-16050619D01*
X13682333Y-16079190D01*
X13568048Y-16193476D01*
X13691857Y-16193476D01*
X13929952Y-16193476D02*
X13929952Y-15993476D01*
X14015667Y-16193476D02*
X14015667Y-16088714D01*
X14006143Y-16069667D01*
X13987095Y-16060143D01*
X13958524Y-16060143D01*
X13939476Y-16069667D01*
X13929952Y-16079190D01*
X14139476Y-16193476D02*
X14120428Y-16183952D01*
X14110905Y-16174428D01*
X14101381Y-16155381D01*
X14101381Y-16098238D01*
X14110905Y-16079190D01*
X14120428Y-16069667D01*
X14139476Y-16060143D01*
X14168048Y-16060143D01*
X14187095Y-16069667D01*
X14196619Y-16079190D01*
X14206143Y-16098238D01*
X14206143Y-16155381D01*
X14196619Y-16174428D01*
X14187095Y-16183952D01*
X14168048Y-16193476D01*
X14139476Y-16193476D01*
X14320428Y-16193476D02*
X14301381Y-16183952D01*
X14291857Y-16164905D01*
X14291857Y-15993476D01*
X14472809Y-16183952D02*
X14453762Y-16193476D01*
X14415667Y-16193476D01*
X14396619Y-16183952D01*
X14387095Y-16164905D01*
X14387095Y-16088714D01*
X14396619Y-16069667D01*
X14415667Y-16060143D01*
X14453762Y-16060143D01*
X14472809Y-16069667D01*
X14482333Y-16088714D01*
X14482333Y-16107762D01*
X14387095Y-16126809D01*
X14558524Y-16183952D02*
X14577571Y-16193476D01*
X14615667Y-16193476D01*
X14634714Y-16183952D01*
X14644238Y-16164905D01*
X14644238Y-16155381D01*
X14634714Y-16136333D01*
X14615667Y-16126809D01*
X14587095Y-16126809D01*
X14568048Y-16117286D01*
X14558524Y-16098238D01*
X14558524Y-16088714D01*
X14568048Y-16069667D01*
X14587095Y-16060143D01*
X14615667Y-16060143D01*
X14634714Y-16069667D01*
X14710905Y-16269667D02*
X14720428Y-16260143D01*
X14739476Y-16231571D01*
X14749000Y-16212524D01*
X14758524Y-16183952D01*
X14768048Y-16136333D01*
X14768048Y-16098238D01*
X14758524Y-16050619D01*
X14749000Y-16022048D01*
X14739476Y-16003000D01*
X14720428Y-15974428D01*
X14710905Y-15964905D01*
D16*
X9896500Y-16409500D02*
X9939000Y-16367000D01*
X9896500Y-16324500D01*
X9854000Y-16367000D01*
X9896500Y-16409500D01*
D11*
X10234714Y-16257476D02*
X10253762Y-16257476D01*
X10272810Y-16267000D01*
X10282333Y-16276524D01*
X10291857Y-16295571D01*
X10301381Y-16333667D01*
X10301381Y-16381286D01*
X10291857Y-16419381D01*
X10282333Y-16438428D01*
X10272810Y-16447952D01*
X10253762Y-16457476D01*
X10234714Y-16457476D01*
X10215667Y-16447952D01*
X10206143Y-16438428D01*
X10196619Y-16419381D01*
X10187095Y-16381286D01*
X10187095Y-16333667D01*
X10196619Y-16295571D01*
X10206143Y-16276524D01*
X10215667Y-16267000D01*
X10234714Y-16257476D01*
X10387095Y-16438428D02*
X10396619Y-16447952D01*
X10387095Y-16457476D01*
X10377571Y-16447952D01*
X10387095Y-16438428D01*
X10387095Y-16457476D01*
X10510905Y-16343190D02*
X10491857Y-16333667D01*
X10482333Y-16324143D01*
X10472810Y-16305095D01*
X10472810Y-16295571D01*
X10482333Y-16276524D01*
X10491857Y-16267000D01*
X10510905Y-16257476D01*
X10549000Y-16257476D01*
X10568048Y-16267000D01*
X10577571Y-16276524D01*
X10587095Y-16295571D01*
X10587095Y-16305095D01*
X10577571Y-16324143D01*
X10568048Y-16333667D01*
X10549000Y-16343190D01*
X10510905Y-16343190D01*
X10491857Y-16352714D01*
X10482333Y-16362238D01*
X10472810Y-16381286D01*
X10472810Y-16419381D01*
X10482333Y-16438428D01*
X10491857Y-16447952D01*
X10510905Y-16457476D01*
X10549000Y-16457476D01*
X10568048Y-16447952D01*
X10577571Y-16438428D01*
X10587095Y-16419381D01*
X10587095Y-16381286D01*
X10577571Y-16362238D01*
X10568048Y-16352714D01*
X10549000Y-16343190D01*
X10768048Y-16257476D02*
X10672810Y-16257476D01*
X10663286Y-16352714D01*
X10672810Y-16343190D01*
X10691857Y-16333667D01*
X10739476Y-16333667D01*
X10758524Y-16343190D01*
X10768048Y-16352714D01*
X10777571Y-16371762D01*
X10777571Y-16419381D01*
X10768048Y-16438428D01*
X10758524Y-16447952D01*
X10739476Y-16457476D01*
X10691857Y-16457476D01*
X10672810Y-16447952D01*
X10663286Y-16438428D01*
X10901381Y-16257476D02*
X10920429Y-16257476D01*
X10939476Y-16267000D01*
X10949000Y-16276524D01*
X10958524Y-16295571D01*
X10968048Y-16333667D01*
X10968048Y-16381286D01*
X10958524Y-16419381D01*
X10949000Y-16438428D01*
X10939476Y-16447952D01*
X10920429Y-16457476D01*
X10901381Y-16457476D01*
X10882333Y-16447952D01*
X10872810Y-16438428D01*
X10863286Y-16419381D01*
X10853762Y-16381286D01*
X10853762Y-16333667D01*
X10863286Y-16295571D01*
X10872810Y-16276524D01*
X10882333Y-16267000D01*
X10901381Y-16257476D01*
X11053762Y-16457476D02*
X11053762Y-16324143D01*
X11053762Y-16343190D02*
X11063286Y-16333667D01*
X11082333Y-16324143D01*
X11110905Y-16324143D01*
X11129952Y-16333667D01*
X11139476Y-16352714D01*
X11139476Y-16457476D01*
X11139476Y-16352714D02*
X11149000Y-16333667D01*
X11168048Y-16324143D01*
X11196619Y-16324143D01*
X11215667Y-16333667D01*
X11225190Y-16352714D01*
X11225190Y-16457476D01*
X11320428Y-16457476D02*
X11320428Y-16324143D01*
X11320428Y-16343190D02*
X11329952Y-16333667D01*
X11349000Y-16324143D01*
X11377571Y-16324143D01*
X11396619Y-16333667D01*
X11406143Y-16352714D01*
X11406143Y-16457476D01*
X11406143Y-16352714D02*
X11415667Y-16333667D01*
X11434714Y-16324143D01*
X11463286Y-16324143D01*
X11482333Y-16333667D01*
X11491857Y-16352714D01*
X11491857Y-16457476D01*
X11882333Y-16247952D02*
X11710905Y-16505095D01*
X12139476Y-16257476D02*
X12158524Y-16257476D01*
X12177571Y-16267000D01*
X12187095Y-16276524D01*
X12196619Y-16295571D01*
X12206143Y-16333667D01*
X12206143Y-16381286D01*
X12196619Y-16419381D01*
X12187095Y-16438428D01*
X12177571Y-16447952D01*
X12158524Y-16457476D01*
X12139476Y-16457476D01*
X12120428Y-16447952D01*
X12110905Y-16438428D01*
X12101381Y-16419381D01*
X12091857Y-16381286D01*
X12091857Y-16333667D01*
X12101381Y-16295571D01*
X12110905Y-16276524D01*
X12120428Y-16267000D01*
X12139476Y-16257476D01*
X12291857Y-16438428D02*
X12301381Y-16447952D01*
X12291857Y-16457476D01*
X12282333Y-16447952D01*
X12291857Y-16438428D01*
X12291857Y-16457476D01*
X12425190Y-16257476D02*
X12444238Y-16257476D01*
X12463286Y-16267000D01*
X12472809Y-16276524D01*
X12482333Y-16295571D01*
X12491857Y-16333667D01*
X12491857Y-16381286D01*
X12482333Y-16419381D01*
X12472809Y-16438428D01*
X12463286Y-16447952D01*
X12444238Y-16457476D01*
X12425190Y-16457476D01*
X12406143Y-16447952D01*
X12396619Y-16438428D01*
X12387095Y-16419381D01*
X12377571Y-16381286D01*
X12377571Y-16333667D01*
X12387095Y-16295571D01*
X12396619Y-16276524D01*
X12406143Y-16267000D01*
X12425190Y-16257476D01*
X12558524Y-16257476D02*
X12682333Y-16257476D01*
X12615667Y-16333667D01*
X12644238Y-16333667D01*
X12663286Y-16343190D01*
X12672809Y-16352714D01*
X12682333Y-16371762D01*
X12682333Y-16419381D01*
X12672809Y-16438428D01*
X12663286Y-16447952D01*
X12644238Y-16457476D01*
X12587095Y-16457476D01*
X12568048Y-16447952D01*
X12558524Y-16438428D01*
X12749000Y-16257476D02*
X12872809Y-16257476D01*
X12806143Y-16333667D01*
X12834714Y-16333667D01*
X12853762Y-16343190D01*
X12863286Y-16352714D01*
X12872809Y-16371762D01*
X12872809Y-16419381D01*
X12863286Y-16438428D01*
X12853762Y-16447952D01*
X12834714Y-16457476D01*
X12777571Y-16457476D01*
X12758524Y-16447952D01*
X12749000Y-16438428D01*
X13053762Y-16257476D02*
X12958524Y-16257476D01*
X12949000Y-16352714D01*
X12958524Y-16343190D01*
X12977571Y-16333667D01*
X13025190Y-16333667D01*
X13044238Y-16343190D01*
X13053762Y-16352714D01*
X13063286Y-16371762D01*
X13063286Y-16419381D01*
X13053762Y-16438428D01*
X13044238Y-16447952D01*
X13025190Y-16457476D01*
X12977571Y-16457476D01*
X12958524Y-16447952D01*
X12949000Y-16438428D01*
X13139476Y-16257476D02*
X13139476Y-16295571D01*
X13215667Y-16257476D02*
X13215667Y-16295571D01*
X13510905Y-16533667D02*
X13501381Y-16524143D01*
X13482333Y-16495571D01*
X13472809Y-16476524D01*
X13463286Y-16447952D01*
X13453762Y-16400333D01*
X13453762Y-16362238D01*
X13463286Y-16314619D01*
X13472809Y-16286048D01*
X13482333Y-16267000D01*
X13501381Y-16238428D01*
X13510905Y-16228905D01*
X13672809Y-16324143D02*
X13672809Y-16457476D01*
X13625190Y-16247952D02*
X13577571Y-16390809D01*
X13701381Y-16390809D01*
X13929952Y-16457476D02*
X13929952Y-16257476D01*
X14015667Y-16457476D02*
X14015667Y-16352714D01*
X14006143Y-16333667D01*
X13987095Y-16324143D01*
X13958524Y-16324143D01*
X13939476Y-16333667D01*
X13929952Y-16343190D01*
X14139476Y-16457476D02*
X14120428Y-16447952D01*
X14110905Y-16438428D01*
X14101381Y-16419381D01*
X14101381Y-16362238D01*
X14110905Y-16343190D01*
X14120428Y-16333667D01*
X14139476Y-16324143D01*
X14168048Y-16324143D01*
X14187095Y-16333667D01*
X14196619Y-16343190D01*
X14206143Y-16362238D01*
X14206143Y-16419381D01*
X14196619Y-16438428D01*
X14187095Y-16447952D01*
X14168048Y-16457476D01*
X14139476Y-16457476D01*
X14320428Y-16457476D02*
X14301381Y-16447952D01*
X14291857Y-16428905D01*
X14291857Y-16257476D01*
X14472809Y-16447952D02*
X14453762Y-16457476D01*
X14415667Y-16457476D01*
X14396619Y-16447952D01*
X14387095Y-16428905D01*
X14387095Y-16352714D01*
X14396619Y-16333667D01*
X14415667Y-16324143D01*
X14453762Y-16324143D01*
X14472809Y-16333667D01*
X14482333Y-16352714D01*
X14482333Y-16371762D01*
X14387095Y-16390809D01*
X14558524Y-16447952D02*
X14577571Y-16457476D01*
X14615667Y-16457476D01*
X14634714Y-16447952D01*
X14644238Y-16428905D01*
X14644238Y-16419381D01*
X14634714Y-16400333D01*
X14615667Y-16390809D01*
X14587095Y-16390809D01*
X14568048Y-16381286D01*
X14558524Y-16362238D01*
X14558524Y-16352714D01*
X14568048Y-16333667D01*
X14587095Y-16324143D01*
X14615667Y-16324143D01*
X14634714Y-16333667D01*
X14710905Y-16533667D02*
X14720428Y-16524143D01*
X14739476Y-16495571D01*
X14749000Y-16476524D01*
X14758524Y-16447952D01*
X14768048Y-16400333D01*
X14768048Y-16362238D01*
X14758524Y-16314619D01*
X14749000Y-16286048D01*
X14739476Y-16267000D01*
X14720428Y-16238428D01*
X14710905Y-16228905D01*
D17*
X9849000Y-16586000D02*
X9939000Y-16676000D01*
X9939000Y-16586000D02*
X9849000Y-16676000D01*
X9939000Y-16631000D02*
G75*
G03*
X9939000Y-16631000I-45000J0D01*
G01*
D11*
X10234714Y-16521476D02*
X10253762Y-16521476D01*
X10272810Y-16531000D01*
X10282333Y-16540524D01*
X10291857Y-16559571D01*
X10301381Y-16597667D01*
X10301381Y-16645286D01*
X10291857Y-16683381D01*
X10282333Y-16702428D01*
X10272810Y-16711952D01*
X10253762Y-16721476D01*
X10234714Y-16721476D01*
X10215667Y-16711952D01*
X10206143Y-16702428D01*
X10196619Y-16683381D01*
X10187095Y-16645286D01*
X10187095Y-16597667D01*
X10196619Y-16559571D01*
X10206143Y-16540524D01*
X10215667Y-16531000D01*
X10234714Y-16521476D01*
X10387095Y-16702428D02*
X10396619Y-16711952D01*
X10387095Y-16721476D01*
X10377571Y-16711952D01*
X10387095Y-16702428D01*
X10387095Y-16721476D01*
X10491857Y-16721476D02*
X10529952Y-16721476D01*
X10549000Y-16711952D01*
X10558524Y-16702428D01*
X10577571Y-16673857D01*
X10587095Y-16635762D01*
X10587095Y-16559571D01*
X10577571Y-16540524D01*
X10568048Y-16531000D01*
X10549000Y-16521476D01*
X10510905Y-16521476D01*
X10491857Y-16531000D01*
X10482333Y-16540524D01*
X10472810Y-16559571D01*
X10472810Y-16607190D01*
X10482333Y-16626238D01*
X10491857Y-16635762D01*
X10510905Y-16645286D01*
X10549000Y-16645286D01*
X10568048Y-16635762D01*
X10577571Y-16626238D01*
X10587095Y-16607190D01*
X10710905Y-16521476D02*
X10729952Y-16521476D01*
X10749000Y-16531000D01*
X10758524Y-16540524D01*
X10768048Y-16559571D01*
X10777571Y-16597667D01*
X10777571Y-16645286D01*
X10768048Y-16683381D01*
X10758524Y-16702428D01*
X10749000Y-16711952D01*
X10729952Y-16721476D01*
X10710905Y-16721476D01*
X10691857Y-16711952D01*
X10682333Y-16702428D01*
X10672810Y-16683381D01*
X10663286Y-16645286D01*
X10663286Y-16597667D01*
X10672810Y-16559571D01*
X10682333Y-16540524D01*
X10691857Y-16531000D01*
X10710905Y-16521476D01*
X10901381Y-16521476D02*
X10920429Y-16521476D01*
X10939476Y-16531000D01*
X10949000Y-16540524D01*
X10958524Y-16559571D01*
X10968048Y-16597667D01*
X10968048Y-16645286D01*
X10958524Y-16683381D01*
X10949000Y-16702428D01*
X10939476Y-16711952D01*
X10920429Y-16721476D01*
X10901381Y-16721476D01*
X10882333Y-16711952D01*
X10872810Y-16702428D01*
X10863286Y-16683381D01*
X10853762Y-16645286D01*
X10853762Y-16597667D01*
X10863286Y-16559571D01*
X10872810Y-16540524D01*
X10882333Y-16531000D01*
X10901381Y-16521476D01*
X11053762Y-16721476D02*
X11053762Y-16588143D01*
X11053762Y-16607190D02*
X11063286Y-16597667D01*
X11082333Y-16588143D01*
X11110905Y-16588143D01*
X11129952Y-16597667D01*
X11139476Y-16616714D01*
X11139476Y-16721476D01*
X11139476Y-16616714D02*
X11149000Y-16597667D01*
X11168048Y-16588143D01*
X11196619Y-16588143D01*
X11215667Y-16597667D01*
X11225190Y-16616714D01*
X11225190Y-16721476D01*
X11320428Y-16721476D02*
X11320428Y-16588143D01*
X11320428Y-16607190D02*
X11329952Y-16597667D01*
X11349000Y-16588143D01*
X11377571Y-16588143D01*
X11396619Y-16597667D01*
X11406143Y-16616714D01*
X11406143Y-16721476D01*
X11406143Y-16616714D02*
X11415667Y-16597667D01*
X11434714Y-16588143D01*
X11463286Y-16588143D01*
X11482333Y-16597667D01*
X11491857Y-16616714D01*
X11491857Y-16721476D01*
X11882333Y-16511952D02*
X11710905Y-16769095D01*
X12139476Y-16521476D02*
X12158524Y-16521476D01*
X12177571Y-16531000D01*
X12187095Y-16540524D01*
X12196619Y-16559571D01*
X12206143Y-16597667D01*
X12206143Y-16645286D01*
X12196619Y-16683381D01*
X12187095Y-16702428D01*
X12177571Y-16711952D01*
X12158524Y-16721476D01*
X12139476Y-16721476D01*
X12120428Y-16711952D01*
X12110905Y-16702428D01*
X12101381Y-16683381D01*
X12091857Y-16645286D01*
X12091857Y-16597667D01*
X12101381Y-16559571D01*
X12110905Y-16540524D01*
X12120428Y-16531000D01*
X12139476Y-16521476D01*
X12291857Y-16702428D02*
X12301381Y-16711952D01*
X12291857Y-16721476D01*
X12282333Y-16711952D01*
X12291857Y-16702428D01*
X12291857Y-16721476D01*
X12425190Y-16521476D02*
X12444238Y-16521476D01*
X12463286Y-16531000D01*
X12472809Y-16540524D01*
X12482333Y-16559571D01*
X12491857Y-16597667D01*
X12491857Y-16645286D01*
X12482333Y-16683381D01*
X12472809Y-16702428D01*
X12463286Y-16711952D01*
X12444238Y-16721476D01*
X12425190Y-16721476D01*
X12406143Y-16711952D01*
X12396619Y-16702428D01*
X12387095Y-16683381D01*
X12377571Y-16645286D01*
X12377571Y-16597667D01*
X12387095Y-16559571D01*
X12396619Y-16540524D01*
X12406143Y-16531000D01*
X12425190Y-16521476D01*
X12558524Y-16521476D02*
X12682333Y-16521476D01*
X12615667Y-16597667D01*
X12644238Y-16597667D01*
X12663286Y-16607190D01*
X12672809Y-16616714D01*
X12682333Y-16635762D01*
X12682333Y-16683381D01*
X12672809Y-16702428D01*
X12663286Y-16711952D01*
X12644238Y-16721476D01*
X12587095Y-16721476D01*
X12568048Y-16711952D01*
X12558524Y-16702428D01*
X12863286Y-16521476D02*
X12768048Y-16521476D01*
X12758524Y-16616714D01*
X12768048Y-16607190D01*
X12787095Y-16597667D01*
X12834714Y-16597667D01*
X12853762Y-16607190D01*
X12863286Y-16616714D01*
X12872809Y-16635762D01*
X12872809Y-16683381D01*
X12863286Y-16702428D01*
X12853762Y-16711952D01*
X12834714Y-16721476D01*
X12787095Y-16721476D01*
X12768048Y-16711952D01*
X12758524Y-16702428D01*
X13044238Y-16588143D02*
X13044238Y-16721476D01*
X12996619Y-16511952D02*
X12949000Y-16654809D01*
X13072809Y-16654809D01*
X13139476Y-16521476D02*
X13139476Y-16559571D01*
X13215667Y-16521476D02*
X13215667Y-16559571D01*
X13510905Y-16797667D02*
X13501381Y-16788143D01*
X13482333Y-16759571D01*
X13472809Y-16740524D01*
X13463286Y-16711952D01*
X13453762Y-16664333D01*
X13453762Y-16626238D01*
X13463286Y-16578619D01*
X13472809Y-16550048D01*
X13482333Y-16531000D01*
X13501381Y-16502428D01*
X13510905Y-16492905D01*
X13615667Y-16607190D02*
X13596619Y-16597667D01*
X13587095Y-16588143D01*
X13577571Y-16569095D01*
X13577571Y-16559571D01*
X13587095Y-16540524D01*
X13596619Y-16531000D01*
X13615667Y-16521476D01*
X13653762Y-16521476D01*
X13672809Y-16531000D01*
X13682333Y-16540524D01*
X13691857Y-16559571D01*
X13691857Y-16569095D01*
X13682333Y-16588143D01*
X13672809Y-16597667D01*
X13653762Y-16607190D01*
X13615667Y-16607190D01*
X13596619Y-16616714D01*
X13587095Y-16626238D01*
X13577571Y-16645286D01*
X13577571Y-16683381D01*
X13587095Y-16702428D01*
X13596619Y-16711952D01*
X13615667Y-16721476D01*
X13653762Y-16721476D01*
X13672809Y-16711952D01*
X13682333Y-16702428D01*
X13691857Y-16683381D01*
X13691857Y-16645286D01*
X13682333Y-16626238D01*
X13672809Y-16616714D01*
X13653762Y-16607190D01*
X13929952Y-16721476D02*
X13929952Y-16521476D01*
X14015667Y-16721476D02*
X14015667Y-16616714D01*
X14006143Y-16597667D01*
X13987095Y-16588143D01*
X13958524Y-16588143D01*
X13939476Y-16597667D01*
X13929952Y-16607190D01*
X14139476Y-16721476D02*
X14120428Y-16711952D01*
X14110905Y-16702428D01*
X14101381Y-16683381D01*
X14101381Y-16626238D01*
X14110905Y-16607190D01*
X14120428Y-16597667D01*
X14139476Y-16588143D01*
X14168048Y-16588143D01*
X14187095Y-16597667D01*
X14196619Y-16607190D01*
X14206143Y-16626238D01*
X14206143Y-16683381D01*
X14196619Y-16702428D01*
X14187095Y-16711952D01*
X14168048Y-16721476D01*
X14139476Y-16721476D01*
X14320428Y-16721476D02*
X14301381Y-16711952D01*
X14291857Y-16692905D01*
X14291857Y-16521476D01*
X14472809Y-16711952D02*
X14453762Y-16721476D01*
X14415667Y-16721476D01*
X14396619Y-16711952D01*
X14387095Y-16692905D01*
X14387095Y-16616714D01*
X14396619Y-16597667D01*
X14415667Y-16588143D01*
X14453762Y-16588143D01*
X14472809Y-16597667D01*
X14482333Y-16616714D01*
X14482333Y-16635762D01*
X14387095Y-16654809D01*
X14558524Y-16711952D02*
X14577571Y-16721476D01*
X14615667Y-16721476D01*
X14634714Y-16711952D01*
X14644238Y-16692905D01*
X14644238Y-16683381D01*
X14634714Y-16664333D01*
X14615667Y-16654809D01*
X14587095Y-16654809D01*
X14568048Y-16645286D01*
X14558524Y-16626238D01*
X14558524Y-16616714D01*
X14568048Y-16597667D01*
X14587095Y-16588143D01*
X14615667Y-16588143D01*
X14634714Y-16597667D01*
X14710905Y-16797667D02*
X14720428Y-16788143D01*
X14739476Y-16759571D01*
X14749000Y-16740524D01*
X14758524Y-16711952D01*
X14768048Y-16664333D01*
X14768048Y-16626238D01*
X14758524Y-16578619D01*
X14749000Y-16550048D01*
X14739476Y-16531000D01*
X14720428Y-16502428D01*
X14710905Y-16492905D01*
D18*
X9847000Y-16849000D02*
X9939000Y-16941000D01*
X9939000Y-16849000D02*
X9847000Y-16941000D01*
X9893000Y-16849000D02*
X9893000Y-16941000D01*
X9847000Y-16895000D02*
X9939000Y-16895000D01*
D11*
X10234714Y-16785476D02*
X10253762Y-16785476D01*
X10272810Y-16795000D01*
X10282333Y-16804524D01*
X10291857Y-16823571D01*
X10301381Y-16861667D01*
X10301381Y-16909286D01*
X10291857Y-16947381D01*
X10282333Y-16966429D01*
X10272810Y-16975952D01*
X10253762Y-16985476D01*
X10234714Y-16985476D01*
X10215667Y-16975952D01*
X10206143Y-16966429D01*
X10196619Y-16947381D01*
X10187095Y-16909286D01*
X10187095Y-16861667D01*
X10196619Y-16823571D01*
X10206143Y-16804524D01*
X10215667Y-16795000D01*
X10234714Y-16785476D01*
X10387095Y-16966429D02*
X10396619Y-16975952D01*
X10387095Y-16985476D01*
X10377571Y-16975952D01*
X10387095Y-16966429D01*
X10387095Y-16985476D01*
X10491857Y-16985476D02*
X10529952Y-16985476D01*
X10549000Y-16975952D01*
X10558524Y-16966429D01*
X10577571Y-16937857D01*
X10587095Y-16899762D01*
X10587095Y-16823571D01*
X10577571Y-16804524D01*
X10568048Y-16795000D01*
X10549000Y-16785476D01*
X10510905Y-16785476D01*
X10491857Y-16795000D01*
X10482333Y-16804524D01*
X10472810Y-16823571D01*
X10472810Y-16871190D01*
X10482333Y-16890238D01*
X10491857Y-16899762D01*
X10510905Y-16909286D01*
X10549000Y-16909286D01*
X10568048Y-16899762D01*
X10577571Y-16890238D01*
X10587095Y-16871190D01*
X10663286Y-16804524D02*
X10672810Y-16795000D01*
X10691857Y-16785476D01*
X10739476Y-16785476D01*
X10758524Y-16795000D01*
X10768048Y-16804524D01*
X10777571Y-16823571D01*
X10777571Y-16842619D01*
X10768048Y-16871190D01*
X10653762Y-16985476D01*
X10777571Y-16985476D01*
X10901381Y-16785476D02*
X10920429Y-16785476D01*
X10939476Y-16795000D01*
X10949000Y-16804524D01*
X10958524Y-16823571D01*
X10968048Y-16861667D01*
X10968048Y-16909286D01*
X10958524Y-16947381D01*
X10949000Y-16966429D01*
X10939476Y-16975952D01*
X10920429Y-16985476D01*
X10901381Y-16985476D01*
X10882333Y-16975952D01*
X10872810Y-16966429D01*
X10863286Y-16947381D01*
X10853762Y-16909286D01*
X10853762Y-16861667D01*
X10863286Y-16823571D01*
X10872810Y-16804524D01*
X10882333Y-16795000D01*
X10901381Y-16785476D01*
X11053762Y-16985476D02*
X11053762Y-16852143D01*
X11053762Y-16871190D02*
X11063286Y-16861667D01*
X11082333Y-16852143D01*
X11110905Y-16852143D01*
X11129952Y-16861667D01*
X11139476Y-16880714D01*
X11139476Y-16985476D01*
X11139476Y-16880714D02*
X11149000Y-16861667D01*
X11168048Y-16852143D01*
X11196619Y-16852143D01*
X11215667Y-16861667D01*
X11225190Y-16880714D01*
X11225190Y-16985476D01*
X11320428Y-16985476D02*
X11320428Y-16852143D01*
X11320428Y-16871190D02*
X11329952Y-16861667D01*
X11349000Y-16852143D01*
X11377571Y-16852143D01*
X11396619Y-16861667D01*
X11406143Y-16880714D01*
X11406143Y-16985476D01*
X11406143Y-16880714D02*
X11415667Y-16861667D01*
X11434714Y-16852143D01*
X11463286Y-16852143D01*
X11482333Y-16861667D01*
X11491857Y-16880714D01*
X11491857Y-16985476D01*
X11882333Y-16775952D02*
X11710905Y-17033095D01*
X12139476Y-16785476D02*
X12158524Y-16785476D01*
X12177571Y-16795000D01*
X12187095Y-16804524D01*
X12196619Y-16823571D01*
X12206143Y-16861667D01*
X12206143Y-16909286D01*
X12196619Y-16947381D01*
X12187095Y-16966429D01*
X12177571Y-16975952D01*
X12158524Y-16985476D01*
X12139476Y-16985476D01*
X12120428Y-16975952D01*
X12110905Y-16966429D01*
X12101381Y-16947381D01*
X12091857Y-16909286D01*
X12091857Y-16861667D01*
X12101381Y-16823571D01*
X12110905Y-16804524D01*
X12120428Y-16795000D01*
X12139476Y-16785476D01*
X12291857Y-16966429D02*
X12301381Y-16975952D01*
X12291857Y-16985476D01*
X12282333Y-16975952D01*
X12291857Y-16966429D01*
X12291857Y-16985476D01*
X12425190Y-16785476D02*
X12444238Y-16785476D01*
X12463286Y-16795000D01*
X12472809Y-16804524D01*
X12482333Y-16823571D01*
X12491857Y-16861667D01*
X12491857Y-16909286D01*
X12482333Y-16947381D01*
X12472809Y-16966429D01*
X12463286Y-16975952D01*
X12444238Y-16985476D01*
X12425190Y-16985476D01*
X12406143Y-16975952D01*
X12396619Y-16966429D01*
X12387095Y-16947381D01*
X12377571Y-16909286D01*
X12377571Y-16861667D01*
X12387095Y-16823571D01*
X12396619Y-16804524D01*
X12406143Y-16795000D01*
X12425190Y-16785476D01*
X12558524Y-16785476D02*
X12682333Y-16785476D01*
X12615667Y-16861667D01*
X12644238Y-16861667D01*
X12663286Y-16871190D01*
X12672809Y-16880714D01*
X12682333Y-16899762D01*
X12682333Y-16947381D01*
X12672809Y-16966429D01*
X12663286Y-16975952D01*
X12644238Y-16985476D01*
X12587095Y-16985476D01*
X12568048Y-16975952D01*
X12558524Y-16966429D01*
X12853762Y-16785476D02*
X12815667Y-16785476D01*
X12796619Y-16795000D01*
X12787095Y-16804524D01*
X12768048Y-16833095D01*
X12758524Y-16871190D01*
X12758524Y-16947381D01*
X12768048Y-16966429D01*
X12777571Y-16975952D01*
X12796619Y-16985476D01*
X12834714Y-16985476D01*
X12853762Y-16975952D01*
X12863286Y-16966429D01*
X12872809Y-16947381D01*
X12872809Y-16899762D01*
X12863286Y-16880714D01*
X12853762Y-16871190D01*
X12834714Y-16861667D01*
X12796619Y-16861667D01*
X12777571Y-16871190D01*
X12768048Y-16880714D01*
X12758524Y-16899762D01*
X12949000Y-16804524D02*
X12958524Y-16795000D01*
X12977571Y-16785476D01*
X13025190Y-16785476D01*
X13044238Y-16795000D01*
X13053762Y-16804524D01*
X13063286Y-16823571D01*
X13063286Y-16842619D01*
X13053762Y-16871190D01*
X12939476Y-16985476D01*
X13063286Y-16985476D01*
X13139476Y-16785476D02*
X13139476Y-16823571D01*
X13215667Y-16785476D02*
X13215667Y-16823571D01*
X13510905Y-17061667D02*
X13501381Y-17052143D01*
X13482333Y-17023571D01*
X13472809Y-17004524D01*
X13463286Y-16975952D01*
X13453762Y-16928333D01*
X13453762Y-16890238D01*
X13463286Y-16842619D01*
X13472809Y-16814048D01*
X13482333Y-16795000D01*
X13501381Y-16766428D01*
X13510905Y-16756905D01*
X13672809Y-16852143D02*
X13672809Y-16985476D01*
X13625190Y-16775952D02*
X13577571Y-16918810D01*
X13701381Y-16918810D01*
X13929952Y-16985476D02*
X13929952Y-16785476D01*
X14015667Y-16985476D02*
X14015667Y-16880714D01*
X14006143Y-16861667D01*
X13987095Y-16852143D01*
X13958524Y-16852143D01*
X13939476Y-16861667D01*
X13929952Y-16871190D01*
X14139476Y-16985476D02*
X14120428Y-16975952D01*
X14110905Y-16966429D01*
X14101381Y-16947381D01*
X14101381Y-16890238D01*
X14110905Y-16871190D01*
X14120428Y-16861667D01*
X14139476Y-16852143D01*
X14168048Y-16852143D01*
X14187095Y-16861667D01*
X14196619Y-16871190D01*
X14206143Y-16890238D01*
X14206143Y-16947381D01*
X14196619Y-16966429D01*
X14187095Y-16975952D01*
X14168048Y-16985476D01*
X14139476Y-16985476D01*
X14320428Y-16985476D02*
X14301381Y-16975952D01*
X14291857Y-16956905D01*
X14291857Y-16785476D01*
X14472809Y-16975952D02*
X14453762Y-16985476D01*
X14415667Y-16985476D01*
X14396619Y-16975952D01*
X14387095Y-16956905D01*
X14387095Y-16880714D01*
X14396619Y-16861667D01*
X14415667Y-16852143D01*
X14453762Y-16852143D01*
X14472809Y-16861667D01*
X14482333Y-16880714D01*
X14482333Y-16899762D01*
X14387095Y-16918810D01*
X14558524Y-16975952D02*
X14577571Y-16985476D01*
X14615667Y-16985476D01*
X14634714Y-16975952D01*
X14644238Y-16956905D01*
X14644238Y-16947381D01*
X14634714Y-16928333D01*
X14615667Y-16918810D01*
X14587095Y-16918810D01*
X14568048Y-16909286D01*
X14558524Y-16890238D01*
X14558524Y-16880714D01*
X14568048Y-16861667D01*
X14587095Y-16852143D01*
X14615667Y-16852143D01*
X14634714Y-16861667D01*
X14710905Y-17061667D02*
X14720428Y-17052143D01*
X14739476Y-17023571D01*
X14749000Y-17004524D01*
X14758524Y-16975952D01*
X14768048Y-16928333D01*
X14768048Y-16890238D01*
X14758524Y-16842619D01*
X14749000Y-16814048D01*
X14739476Y-16795000D01*
X14720428Y-16766428D01*
X14710905Y-16756905D01*
D10*
X9839000Y-17109000D02*
X9939000Y-17209000D01*
X9939000Y-17109000D02*
X9839000Y-17209000D01*
X9924356Y-17194356D02*
X9924356Y-17123644D01*
X9853644Y-17123644D01*
X9853644Y-17194356D01*
X9924356Y-17194356D01*
D11*
X10301381Y-17249476D02*
X10187095Y-17249476D01*
X10244238Y-17249476D02*
X10244238Y-17049476D01*
X10225190Y-17078048D01*
X10206143Y-17097095D01*
X10187095Y-17106619D01*
X10387095Y-17230429D02*
X10396619Y-17239952D01*
X10387095Y-17249476D01*
X10377571Y-17239952D01*
X10387095Y-17230429D01*
X10387095Y-17249476D01*
X10520429Y-17049476D02*
X10539476Y-17049476D01*
X10558524Y-17059000D01*
X10568048Y-17068524D01*
X10577571Y-17087571D01*
X10587095Y-17125667D01*
X10587095Y-17173286D01*
X10577571Y-17211381D01*
X10568048Y-17230429D01*
X10558524Y-17239952D01*
X10539476Y-17249476D01*
X10520429Y-17249476D01*
X10501381Y-17239952D01*
X10491857Y-17230429D01*
X10482333Y-17211381D01*
X10472810Y-17173286D01*
X10472810Y-17125667D01*
X10482333Y-17087571D01*
X10491857Y-17068524D01*
X10501381Y-17059000D01*
X10520429Y-17049476D01*
X10710905Y-17049476D02*
X10729952Y-17049476D01*
X10749000Y-17059000D01*
X10758524Y-17068524D01*
X10768048Y-17087571D01*
X10777571Y-17125667D01*
X10777571Y-17173286D01*
X10768048Y-17211381D01*
X10758524Y-17230429D01*
X10749000Y-17239952D01*
X10729952Y-17249476D01*
X10710905Y-17249476D01*
X10691857Y-17239952D01*
X10682333Y-17230429D01*
X10672810Y-17211381D01*
X10663286Y-17173286D01*
X10663286Y-17125667D01*
X10672810Y-17087571D01*
X10682333Y-17068524D01*
X10691857Y-17059000D01*
X10710905Y-17049476D01*
X10901381Y-17049476D02*
X10920429Y-17049476D01*
X10939476Y-17059000D01*
X10949000Y-17068524D01*
X10958524Y-17087571D01*
X10968048Y-17125667D01*
X10968048Y-17173286D01*
X10958524Y-17211381D01*
X10949000Y-17230429D01*
X10939476Y-17239952D01*
X10920429Y-17249476D01*
X10901381Y-17249476D01*
X10882333Y-17239952D01*
X10872810Y-17230429D01*
X10863286Y-17211381D01*
X10853762Y-17173286D01*
X10853762Y-17125667D01*
X10863286Y-17087571D01*
X10872810Y-17068524D01*
X10882333Y-17059000D01*
X10901381Y-17049476D01*
X11053762Y-17249476D02*
X11053762Y-17116143D01*
X11053762Y-17135190D02*
X11063286Y-17125667D01*
X11082333Y-17116143D01*
X11110905Y-17116143D01*
X11129952Y-17125667D01*
X11139476Y-17144714D01*
X11139476Y-17249476D01*
X11139476Y-17144714D02*
X11149000Y-17125667D01*
X11168048Y-17116143D01*
X11196619Y-17116143D01*
X11215667Y-17125667D01*
X11225190Y-17144714D01*
X11225190Y-17249476D01*
X11320428Y-17249476D02*
X11320428Y-17116143D01*
X11320428Y-17135190D02*
X11329952Y-17125667D01*
X11349000Y-17116143D01*
X11377571Y-17116143D01*
X11396619Y-17125667D01*
X11406143Y-17144714D01*
X11406143Y-17249476D01*
X11406143Y-17144714D02*
X11415667Y-17125667D01*
X11434714Y-17116143D01*
X11463286Y-17116143D01*
X11482333Y-17125667D01*
X11491857Y-17144714D01*
X11491857Y-17249476D01*
X11882333Y-17039952D02*
X11710905Y-17297095D01*
X12139476Y-17049476D02*
X12158524Y-17049476D01*
X12177571Y-17059000D01*
X12187095Y-17068524D01*
X12196619Y-17087571D01*
X12206143Y-17125667D01*
X12206143Y-17173286D01*
X12196619Y-17211381D01*
X12187095Y-17230429D01*
X12177571Y-17239952D01*
X12158524Y-17249476D01*
X12139476Y-17249476D01*
X12120428Y-17239952D01*
X12110905Y-17230429D01*
X12101381Y-17211381D01*
X12091857Y-17173286D01*
X12091857Y-17125667D01*
X12101381Y-17087571D01*
X12110905Y-17068524D01*
X12120428Y-17059000D01*
X12139476Y-17049476D01*
X12291857Y-17230429D02*
X12301381Y-17239952D01*
X12291857Y-17249476D01*
X12282333Y-17239952D01*
X12291857Y-17230429D01*
X12291857Y-17249476D01*
X12425190Y-17049476D02*
X12444238Y-17049476D01*
X12463286Y-17059000D01*
X12472809Y-17068524D01*
X12482333Y-17087571D01*
X12491857Y-17125667D01*
X12491857Y-17173286D01*
X12482333Y-17211381D01*
X12472809Y-17230429D01*
X12463286Y-17239952D01*
X12444238Y-17249476D01*
X12425190Y-17249476D01*
X12406143Y-17239952D01*
X12396619Y-17230429D01*
X12387095Y-17211381D01*
X12377571Y-17173286D01*
X12377571Y-17125667D01*
X12387095Y-17087571D01*
X12396619Y-17068524D01*
X12406143Y-17059000D01*
X12425190Y-17049476D01*
X12558524Y-17049476D02*
X12682333Y-17049476D01*
X12615667Y-17125667D01*
X12644238Y-17125667D01*
X12663286Y-17135190D01*
X12672809Y-17144714D01*
X12682333Y-17163762D01*
X12682333Y-17211381D01*
X12672809Y-17230429D01*
X12663286Y-17239952D01*
X12644238Y-17249476D01*
X12587095Y-17249476D01*
X12568048Y-17239952D01*
X12558524Y-17230429D01*
X12777571Y-17249476D02*
X12815667Y-17249476D01*
X12834714Y-17239952D01*
X12844238Y-17230429D01*
X12863286Y-17201857D01*
X12872809Y-17163762D01*
X12872809Y-17087571D01*
X12863286Y-17068524D01*
X12853762Y-17059000D01*
X12834714Y-17049476D01*
X12796619Y-17049476D01*
X12777571Y-17059000D01*
X12768048Y-17068524D01*
X12758524Y-17087571D01*
X12758524Y-17135190D01*
X12768048Y-17154238D01*
X12777571Y-17163762D01*
X12796619Y-17173286D01*
X12834714Y-17173286D01*
X12853762Y-17163762D01*
X12863286Y-17154238D01*
X12872809Y-17135190D01*
X13044238Y-17116143D02*
X13044238Y-17249476D01*
X12996619Y-17039952D02*
X12949000Y-17182810D01*
X13072809Y-17182810D01*
X13139476Y-17049476D02*
X13139476Y-17087571D01*
X13215667Y-17049476D02*
X13215667Y-17087571D01*
X13510905Y-17325667D02*
X13501381Y-17316143D01*
X13482333Y-17287571D01*
X13472809Y-17268524D01*
X13463286Y-17239952D01*
X13453762Y-17192333D01*
X13453762Y-17154238D01*
X13463286Y-17106619D01*
X13472809Y-17078048D01*
X13482333Y-17059000D01*
X13501381Y-17030429D01*
X13510905Y-17020905D01*
X13672809Y-17116143D02*
X13672809Y-17249476D01*
X13625190Y-17039952D02*
X13577571Y-17182810D01*
X13701381Y-17182810D01*
X13768048Y-17068524D02*
X13777571Y-17059000D01*
X13796619Y-17049476D01*
X13844238Y-17049476D01*
X13863286Y-17059000D01*
X13872809Y-17068524D01*
X13882333Y-17087571D01*
X13882333Y-17106619D01*
X13872809Y-17135190D01*
X13758524Y-17249476D01*
X13882333Y-17249476D01*
X14120428Y-17249476D02*
X14120428Y-17049476D01*
X14206143Y-17249476D02*
X14206143Y-17144714D01*
X14196619Y-17125667D01*
X14177571Y-17116143D01*
X14149000Y-17116143D01*
X14129952Y-17125667D01*
X14120428Y-17135190D01*
X14329952Y-17249476D02*
X14310905Y-17239952D01*
X14301381Y-17230429D01*
X14291857Y-17211381D01*
X14291857Y-17154238D01*
X14301381Y-17135190D01*
X14310905Y-17125667D01*
X14329952Y-17116143D01*
X14358524Y-17116143D01*
X14377571Y-17125667D01*
X14387095Y-17135190D01*
X14396619Y-17154238D01*
X14396619Y-17211381D01*
X14387095Y-17230429D01*
X14377571Y-17239952D01*
X14358524Y-17249476D01*
X14329952Y-17249476D01*
X14510905Y-17249476D02*
X14491857Y-17239952D01*
X14482333Y-17220905D01*
X14482333Y-17049476D01*
X14663286Y-17239952D02*
X14644238Y-17249476D01*
X14606143Y-17249476D01*
X14587095Y-17239952D01*
X14577571Y-17220905D01*
X14577571Y-17144714D01*
X14587095Y-17125667D01*
X14606143Y-17116143D01*
X14644238Y-17116143D01*
X14663286Y-17125667D01*
X14672809Y-17144714D01*
X14672809Y-17163762D01*
X14577571Y-17182810D01*
X14749000Y-17239952D02*
X14768048Y-17249476D01*
X14806143Y-17249476D01*
X14825190Y-17239952D01*
X14834714Y-17220905D01*
X14834714Y-17211381D01*
X14825190Y-17192333D01*
X14806143Y-17182810D01*
X14777571Y-17182810D01*
X14758524Y-17173286D01*
X14749000Y-17154238D01*
X14749000Y-17144714D01*
X14758524Y-17125667D01*
X14777571Y-17116143D01*
X14806143Y-17116143D01*
X14825190Y-17125667D01*
X14901381Y-17325667D02*
X14910905Y-17316143D01*
X14929952Y-17287571D01*
X14939476Y-17268524D01*
X14949000Y-17239952D01*
X14958524Y-17192333D01*
X14958524Y-17154238D01*
X14949000Y-17106619D01*
X14939476Y-17078048D01*
X14929952Y-17059000D01*
X14910905Y-17030429D01*
X14901381Y-17020905D01*
D19*
X9837000Y-17372000D02*
X9939000Y-17474000D01*
X9939000Y-17372000D02*
X9837000Y-17474000D01*
X9888000Y-17474000D02*
X9939000Y-17423000D01*
X9888000Y-17372000D01*
X9837000Y-17423000D01*
X9888000Y-17474000D01*
D11*
X10301381Y-17513476D02*
X10187095Y-17513476D01*
X10244238Y-17513476D02*
X10244238Y-17313476D01*
X10225190Y-17342048D01*
X10206143Y-17361095D01*
X10187095Y-17370619D01*
X10387095Y-17494429D02*
X10396619Y-17503952D01*
X10387095Y-17513476D01*
X10377571Y-17503952D01*
X10387095Y-17494429D01*
X10387095Y-17513476D01*
X10520429Y-17313476D02*
X10539476Y-17313476D01*
X10558524Y-17323000D01*
X10568048Y-17332524D01*
X10577571Y-17351571D01*
X10587095Y-17389667D01*
X10587095Y-17437286D01*
X10577571Y-17475381D01*
X10568048Y-17494429D01*
X10558524Y-17503952D01*
X10539476Y-17513476D01*
X10520429Y-17513476D01*
X10501381Y-17503952D01*
X10491857Y-17494429D01*
X10482333Y-17475381D01*
X10472810Y-17437286D01*
X10472810Y-17389667D01*
X10482333Y-17351571D01*
X10491857Y-17332524D01*
X10501381Y-17323000D01*
X10520429Y-17313476D01*
X10663286Y-17332524D02*
X10672810Y-17323000D01*
X10691857Y-17313476D01*
X10739476Y-17313476D01*
X10758524Y-17323000D01*
X10768048Y-17332524D01*
X10777571Y-17351571D01*
X10777571Y-17370619D01*
X10768048Y-17399190D01*
X10653762Y-17513476D01*
X10777571Y-17513476D01*
X10901381Y-17313476D02*
X10920429Y-17313476D01*
X10939476Y-17323000D01*
X10949000Y-17332524D01*
X10958524Y-17351571D01*
X10968048Y-17389667D01*
X10968048Y-17437286D01*
X10958524Y-17475381D01*
X10949000Y-17494429D01*
X10939476Y-17503952D01*
X10920429Y-17513476D01*
X10901381Y-17513476D01*
X10882333Y-17503952D01*
X10872810Y-17494429D01*
X10863286Y-17475381D01*
X10853762Y-17437286D01*
X10853762Y-17389667D01*
X10863286Y-17351571D01*
X10872810Y-17332524D01*
X10882333Y-17323000D01*
X10901381Y-17313476D01*
X11053762Y-17513476D02*
X11053762Y-17380143D01*
X11053762Y-17399190D02*
X11063286Y-17389667D01*
X11082333Y-17380143D01*
X11110905Y-17380143D01*
X11129952Y-17389667D01*
X11139476Y-17408714D01*
X11139476Y-17513476D01*
X11139476Y-17408714D02*
X11149000Y-17389667D01*
X11168048Y-17380143D01*
X11196619Y-17380143D01*
X11215667Y-17389667D01*
X11225190Y-17408714D01*
X11225190Y-17513476D01*
X11320428Y-17513476D02*
X11320428Y-17380143D01*
X11320428Y-17399190D02*
X11329952Y-17389667D01*
X11349000Y-17380143D01*
X11377571Y-17380143D01*
X11396619Y-17389667D01*
X11406143Y-17408714D01*
X11406143Y-17513476D01*
X11406143Y-17408714D02*
X11415667Y-17389667D01*
X11434714Y-17380143D01*
X11463286Y-17380143D01*
X11482333Y-17389667D01*
X11491857Y-17408714D01*
X11491857Y-17513476D01*
X11882333Y-17303952D02*
X11710905Y-17561095D01*
X12139476Y-17313476D02*
X12158524Y-17313476D01*
X12177571Y-17323000D01*
X12187095Y-17332524D01*
X12196619Y-17351571D01*
X12206143Y-17389667D01*
X12206143Y-17437286D01*
X12196619Y-17475381D01*
X12187095Y-17494429D01*
X12177571Y-17503952D01*
X12158524Y-17513476D01*
X12139476Y-17513476D01*
X12120428Y-17503952D01*
X12110905Y-17494429D01*
X12101381Y-17475381D01*
X12091857Y-17437286D01*
X12091857Y-17389667D01*
X12101381Y-17351571D01*
X12110905Y-17332524D01*
X12120428Y-17323000D01*
X12139476Y-17313476D01*
X12291857Y-17494429D02*
X12301381Y-17503952D01*
X12291857Y-17513476D01*
X12282333Y-17503952D01*
X12291857Y-17494429D01*
X12291857Y-17513476D01*
X12425190Y-17313476D02*
X12444238Y-17313476D01*
X12463286Y-17323000D01*
X12472809Y-17332524D01*
X12482333Y-17351571D01*
X12491857Y-17389667D01*
X12491857Y-17437286D01*
X12482333Y-17475381D01*
X12472809Y-17494429D01*
X12463286Y-17503952D01*
X12444238Y-17513476D01*
X12425190Y-17513476D01*
X12406143Y-17503952D01*
X12396619Y-17494429D01*
X12387095Y-17475381D01*
X12377571Y-17437286D01*
X12377571Y-17389667D01*
X12387095Y-17351571D01*
X12396619Y-17332524D01*
X12406143Y-17323000D01*
X12425190Y-17313476D01*
X12663286Y-17380143D02*
X12663286Y-17513476D01*
X12615667Y-17303952D02*
X12568048Y-17446810D01*
X12691857Y-17446810D01*
X12806143Y-17313476D02*
X12825190Y-17313476D01*
X12844238Y-17323000D01*
X12853762Y-17332524D01*
X12863286Y-17351571D01*
X12872809Y-17389667D01*
X12872809Y-17437286D01*
X12863286Y-17475381D01*
X12853762Y-17494429D01*
X12844238Y-17503952D01*
X12825190Y-17513476D01*
X12806143Y-17513476D01*
X12787095Y-17503952D01*
X12777571Y-17494429D01*
X12768048Y-17475381D01*
X12758524Y-17437286D01*
X12758524Y-17389667D01*
X12768048Y-17351571D01*
X12777571Y-17332524D01*
X12787095Y-17323000D01*
X12806143Y-17313476D01*
X12949000Y-17332524D02*
X12958524Y-17323000D01*
X12977571Y-17313476D01*
X13025190Y-17313476D01*
X13044238Y-17323000D01*
X13053762Y-17332524D01*
X13063286Y-17351571D01*
X13063286Y-17370619D01*
X13053762Y-17399190D01*
X12939476Y-17513476D01*
X13063286Y-17513476D01*
X13139476Y-17313476D02*
X13139476Y-17351571D01*
X13215667Y-17313476D02*
X13215667Y-17351571D01*
X13510905Y-17589667D02*
X13501381Y-17580143D01*
X13482333Y-17551571D01*
X13472809Y-17532524D01*
X13463286Y-17503952D01*
X13453762Y-17456333D01*
X13453762Y-17418238D01*
X13463286Y-17370619D01*
X13472809Y-17342048D01*
X13482333Y-17323000D01*
X13501381Y-17294429D01*
X13510905Y-17284905D01*
X13672809Y-17380143D02*
X13672809Y-17513476D01*
X13625190Y-17303952D02*
X13577571Y-17446810D01*
X13701381Y-17446810D01*
X13929952Y-17513476D02*
X13929952Y-17313476D01*
X14015667Y-17513476D02*
X14015667Y-17408714D01*
X14006143Y-17389667D01*
X13987095Y-17380143D01*
X13958524Y-17380143D01*
X13939476Y-17389667D01*
X13929952Y-17399190D01*
X14139476Y-17513476D02*
X14120428Y-17503952D01*
X14110905Y-17494429D01*
X14101381Y-17475381D01*
X14101381Y-17418238D01*
X14110905Y-17399190D01*
X14120428Y-17389667D01*
X14139476Y-17380143D01*
X14168048Y-17380143D01*
X14187095Y-17389667D01*
X14196619Y-17399190D01*
X14206143Y-17418238D01*
X14206143Y-17475381D01*
X14196619Y-17494429D01*
X14187095Y-17503952D01*
X14168048Y-17513476D01*
X14139476Y-17513476D01*
X14320428Y-17513476D02*
X14301381Y-17503952D01*
X14291857Y-17484905D01*
X14291857Y-17313476D01*
X14472809Y-17503952D02*
X14453762Y-17513476D01*
X14415667Y-17513476D01*
X14396619Y-17503952D01*
X14387095Y-17484905D01*
X14387095Y-17408714D01*
X14396619Y-17389667D01*
X14415667Y-17380143D01*
X14453762Y-17380143D01*
X14472809Y-17389667D01*
X14482333Y-17408714D01*
X14482333Y-17427762D01*
X14387095Y-17446810D01*
X14558524Y-17503952D02*
X14577571Y-17513476D01*
X14615667Y-17513476D01*
X14634714Y-17503952D01*
X14644238Y-17484905D01*
X14644238Y-17475381D01*
X14634714Y-17456333D01*
X14615667Y-17446810D01*
X14587095Y-17446810D01*
X14568048Y-17437286D01*
X14558524Y-17418238D01*
X14558524Y-17408714D01*
X14568048Y-17389667D01*
X14587095Y-17380143D01*
X14615667Y-17380143D01*
X14634714Y-17389667D01*
X14710905Y-17589667D02*
X14720428Y-17580143D01*
X14739476Y-17551571D01*
X14749000Y-17532524D01*
X14758524Y-17503952D01*
X14768048Y-17456333D01*
X14768048Y-17418238D01*
X14758524Y-17370619D01*
X14749000Y-17342048D01*
X14739476Y-17323000D01*
X14720428Y-17294429D01*
X14710905Y-17284905D01*
D20*
X9864000Y-17612000D02*
X9864000Y-17762000D01*
X9789000Y-17687000D02*
X9939000Y-17687000D01*
X9939000Y-17687000D02*
G75*
G03*
X9939000Y-17687000I-75000J0D01*
G01*
D11*
X10301381Y-17777476D02*
X10187095Y-17777476D01*
X10244238Y-17777476D02*
X10244238Y-17577476D01*
X10225190Y-17606048D01*
X10206143Y-17625095D01*
X10187095Y-17634619D01*
X10387095Y-17758429D02*
X10396619Y-17767952D01*
X10387095Y-17777476D01*
X10377571Y-17767952D01*
X10387095Y-17758429D01*
X10387095Y-17777476D01*
X10577571Y-17577476D02*
X10482333Y-17577476D01*
X10472810Y-17672714D01*
X10482333Y-17663190D01*
X10501381Y-17653667D01*
X10549000Y-17653667D01*
X10568048Y-17663190D01*
X10577571Y-17672714D01*
X10587095Y-17691762D01*
X10587095Y-17739381D01*
X10577571Y-17758429D01*
X10568048Y-17767952D01*
X10549000Y-17777476D01*
X10501381Y-17777476D01*
X10482333Y-17767952D01*
X10472810Y-17758429D01*
X10710905Y-17577476D02*
X10729952Y-17577476D01*
X10749000Y-17587000D01*
X10758524Y-17596524D01*
X10768048Y-17615571D01*
X10777571Y-17653667D01*
X10777571Y-17701286D01*
X10768048Y-17739381D01*
X10758524Y-17758429D01*
X10749000Y-17767952D01*
X10729952Y-17777476D01*
X10710905Y-17777476D01*
X10691857Y-17767952D01*
X10682333Y-17758429D01*
X10672810Y-17739381D01*
X10663286Y-17701286D01*
X10663286Y-17653667D01*
X10672810Y-17615571D01*
X10682333Y-17596524D01*
X10691857Y-17587000D01*
X10710905Y-17577476D01*
X10901381Y-17577476D02*
X10920429Y-17577476D01*
X10939476Y-17587000D01*
X10949000Y-17596524D01*
X10958524Y-17615571D01*
X10968048Y-17653667D01*
X10968048Y-17701286D01*
X10958524Y-17739381D01*
X10949000Y-17758429D01*
X10939476Y-17767952D01*
X10920429Y-17777476D01*
X10901381Y-17777476D01*
X10882333Y-17767952D01*
X10872810Y-17758429D01*
X10863286Y-17739381D01*
X10853762Y-17701286D01*
X10853762Y-17653667D01*
X10863286Y-17615571D01*
X10872810Y-17596524D01*
X10882333Y-17587000D01*
X10901381Y-17577476D01*
X11053762Y-17777476D02*
X11053762Y-17644143D01*
X11053762Y-17663190D02*
X11063286Y-17653667D01*
X11082333Y-17644143D01*
X11110905Y-17644143D01*
X11129952Y-17653667D01*
X11139476Y-17672714D01*
X11139476Y-17777476D01*
X11139476Y-17672714D02*
X11149000Y-17653667D01*
X11168048Y-17644143D01*
X11196619Y-17644143D01*
X11215667Y-17653667D01*
X11225190Y-17672714D01*
X11225190Y-17777476D01*
X11320428Y-17777476D02*
X11320428Y-17644143D01*
X11320428Y-17663190D02*
X11329952Y-17653667D01*
X11349000Y-17644143D01*
X11377571Y-17644143D01*
X11396619Y-17653667D01*
X11406143Y-17672714D01*
X11406143Y-17777476D01*
X11406143Y-17672714D02*
X11415667Y-17653667D01*
X11434714Y-17644143D01*
X11463286Y-17644143D01*
X11482333Y-17653667D01*
X11491857Y-17672714D01*
X11491857Y-17777476D01*
X11882333Y-17567952D02*
X11710905Y-17825095D01*
X12139476Y-17577476D02*
X12158524Y-17577476D01*
X12177571Y-17587000D01*
X12187095Y-17596524D01*
X12196619Y-17615571D01*
X12206143Y-17653667D01*
X12206143Y-17701286D01*
X12196619Y-17739381D01*
X12187095Y-17758429D01*
X12177571Y-17767952D01*
X12158524Y-17777476D01*
X12139476Y-17777476D01*
X12120428Y-17767952D01*
X12110905Y-17758429D01*
X12101381Y-17739381D01*
X12091857Y-17701286D01*
X12091857Y-17653667D01*
X12101381Y-17615571D01*
X12110905Y-17596524D01*
X12120428Y-17587000D01*
X12139476Y-17577476D01*
X12291857Y-17758429D02*
X12301381Y-17767952D01*
X12291857Y-17777476D01*
X12282333Y-17767952D01*
X12291857Y-17758429D01*
X12291857Y-17777476D01*
X12425190Y-17577476D02*
X12444238Y-17577476D01*
X12463286Y-17587000D01*
X12472809Y-17596524D01*
X12482333Y-17615571D01*
X12491857Y-17653667D01*
X12491857Y-17701286D01*
X12482333Y-17739381D01*
X12472809Y-17758429D01*
X12463286Y-17767952D01*
X12444238Y-17777476D01*
X12425190Y-17777476D01*
X12406143Y-17767952D01*
X12396619Y-17758429D01*
X12387095Y-17739381D01*
X12377571Y-17701286D01*
X12377571Y-17653667D01*
X12387095Y-17615571D01*
X12396619Y-17596524D01*
X12406143Y-17587000D01*
X12425190Y-17577476D01*
X12672809Y-17577476D02*
X12577571Y-17577476D01*
X12568048Y-17672714D01*
X12577571Y-17663190D01*
X12596619Y-17653667D01*
X12644238Y-17653667D01*
X12663286Y-17663190D01*
X12672809Y-17672714D01*
X12682333Y-17691762D01*
X12682333Y-17739381D01*
X12672809Y-17758429D01*
X12663286Y-17767952D01*
X12644238Y-17777476D01*
X12596619Y-17777476D01*
X12577571Y-17767952D01*
X12568048Y-17758429D01*
X12777571Y-17777476D02*
X12815667Y-17777476D01*
X12834714Y-17767952D01*
X12844238Y-17758429D01*
X12863286Y-17729857D01*
X12872809Y-17691762D01*
X12872809Y-17615571D01*
X12863286Y-17596524D01*
X12853762Y-17587000D01*
X12834714Y-17577476D01*
X12796619Y-17577476D01*
X12777571Y-17587000D01*
X12768048Y-17596524D01*
X12758524Y-17615571D01*
X12758524Y-17663190D01*
X12768048Y-17682238D01*
X12777571Y-17691762D01*
X12796619Y-17701286D01*
X12834714Y-17701286D01*
X12853762Y-17691762D01*
X12863286Y-17682238D01*
X12872809Y-17663190D01*
X13063286Y-17777476D02*
X12949000Y-17777476D01*
X13006143Y-17777476D02*
X13006143Y-17577476D01*
X12987095Y-17606048D01*
X12968048Y-17625095D01*
X12949000Y-17634619D01*
X13139476Y-17577476D02*
X13139476Y-17615571D01*
X13215667Y-17577476D02*
X13215667Y-17615571D01*
X13510905Y-17853667D02*
X13501381Y-17844143D01*
X13482333Y-17815571D01*
X13472809Y-17796524D01*
X13463286Y-17767952D01*
X13453762Y-17720333D01*
X13453762Y-17682238D01*
X13463286Y-17634619D01*
X13472809Y-17606048D01*
X13482333Y-17587000D01*
X13501381Y-17558429D01*
X13510905Y-17548905D01*
X13672809Y-17644143D02*
X13672809Y-17777476D01*
X13625190Y-17567952D02*
X13577571Y-17710810D01*
X13701381Y-17710810D01*
X13929952Y-17777476D02*
X13929952Y-17577476D01*
X14015667Y-17777476D02*
X14015667Y-17672714D01*
X14006143Y-17653667D01*
X13987095Y-17644143D01*
X13958524Y-17644143D01*
X13939476Y-17653667D01*
X13929952Y-17663190D01*
X14139476Y-17777476D02*
X14120428Y-17767952D01*
X14110905Y-17758429D01*
X14101381Y-17739381D01*
X14101381Y-17682238D01*
X14110905Y-17663190D01*
X14120428Y-17653667D01*
X14139476Y-17644143D01*
X14168048Y-17644143D01*
X14187095Y-17653667D01*
X14196619Y-17663190D01*
X14206143Y-17682238D01*
X14206143Y-17739381D01*
X14196619Y-17758429D01*
X14187095Y-17767952D01*
X14168048Y-17777476D01*
X14139476Y-17777476D01*
X14320428Y-17777476D02*
X14301381Y-17767952D01*
X14291857Y-17748905D01*
X14291857Y-17577476D01*
X14472809Y-17767952D02*
X14453762Y-17777476D01*
X14415667Y-17777476D01*
X14396619Y-17767952D01*
X14387095Y-17748905D01*
X14387095Y-17672714D01*
X14396619Y-17653667D01*
X14415667Y-17644143D01*
X14453762Y-17644143D01*
X14472809Y-17653667D01*
X14482333Y-17672714D01*
X14482333Y-17691762D01*
X14387095Y-17710810D01*
X14558524Y-17767952D02*
X14577571Y-17777476D01*
X14615667Y-17777476D01*
X14634714Y-17767952D01*
X14644238Y-17748905D01*
X14644238Y-17739381D01*
X14634714Y-17720333D01*
X14615667Y-17710810D01*
X14587095Y-17710810D01*
X14568048Y-17701286D01*
X14558524Y-17682238D01*
X14558524Y-17672714D01*
X14568048Y-17653667D01*
X14587095Y-17644143D01*
X14615667Y-17644143D01*
X14634714Y-17653667D01*
X14710905Y-17853667D02*
X14720428Y-17844143D01*
X14739476Y-17815571D01*
X14749000Y-17796524D01*
X14758524Y-17767952D01*
X14768048Y-17720333D01*
X14768048Y-17682238D01*
X14758524Y-17634619D01*
X14749000Y-17606048D01*
X14739476Y-17587000D01*
X14720428Y-17558429D01*
X14710905Y-17548905D01*
D21*
X9916741Y-18010741D02*
X9916741Y-17903259D01*
X9809259Y-17903259D01*
X9809259Y-18010741D01*
X9916741Y-18010741D01*
X9939000Y-17957000D02*
G75*
G03*
X9939000Y-17957000I-76000J0D01*
G01*
D11*
X10301381Y-18047476D02*
X10187095Y-18047476D01*
X10244238Y-18047476D02*
X10244238Y-17847476D01*
X10225190Y-17876048D01*
X10206143Y-17895095D01*
X10187095Y-17904619D01*
X10387095Y-18028429D02*
X10396619Y-18037952D01*
X10387095Y-18047476D01*
X10377571Y-18037952D01*
X10387095Y-18028429D01*
X10387095Y-18047476D01*
X10577571Y-17847476D02*
X10482333Y-17847476D01*
X10472810Y-17942714D01*
X10482333Y-17933190D01*
X10501381Y-17923667D01*
X10549000Y-17923667D01*
X10568048Y-17933190D01*
X10577571Y-17942714D01*
X10587095Y-17961762D01*
X10587095Y-18009381D01*
X10577571Y-18028429D01*
X10568048Y-18037952D01*
X10549000Y-18047476D01*
X10501381Y-18047476D01*
X10482333Y-18037952D01*
X10472810Y-18028429D01*
X10663286Y-17866524D02*
X10672810Y-17857000D01*
X10691857Y-17847476D01*
X10739476Y-17847476D01*
X10758524Y-17857000D01*
X10768048Y-17866524D01*
X10777571Y-17885571D01*
X10777571Y-17904619D01*
X10768048Y-17933190D01*
X10653762Y-18047476D01*
X10777571Y-18047476D01*
X10901381Y-17847476D02*
X10920429Y-17847476D01*
X10939476Y-17857000D01*
X10949000Y-17866524D01*
X10958524Y-17885571D01*
X10968048Y-17923667D01*
X10968048Y-17971286D01*
X10958524Y-18009381D01*
X10949000Y-18028429D01*
X10939476Y-18037952D01*
X10920429Y-18047476D01*
X10901381Y-18047476D01*
X10882333Y-18037952D01*
X10872810Y-18028429D01*
X10863286Y-18009381D01*
X10853762Y-17971286D01*
X10853762Y-17923667D01*
X10863286Y-17885571D01*
X10872810Y-17866524D01*
X10882333Y-17857000D01*
X10901381Y-17847476D01*
X11053762Y-18047476D02*
X11053762Y-17914143D01*
X11053762Y-17933190D02*
X11063286Y-17923667D01*
X11082333Y-17914143D01*
X11110905Y-17914143D01*
X11129952Y-17923667D01*
X11139476Y-17942714D01*
X11139476Y-18047476D01*
X11139476Y-17942714D02*
X11149000Y-17923667D01*
X11168048Y-17914143D01*
X11196619Y-17914143D01*
X11215667Y-17923667D01*
X11225190Y-17942714D01*
X11225190Y-18047476D01*
X11320428Y-18047476D02*
X11320428Y-17914143D01*
X11320428Y-17933190D02*
X11329952Y-17923667D01*
X11349000Y-17914143D01*
X11377571Y-17914143D01*
X11396619Y-17923667D01*
X11406143Y-17942714D01*
X11406143Y-18047476D01*
X11406143Y-17942714D02*
X11415667Y-17923667D01*
X11434714Y-17914143D01*
X11463286Y-17914143D01*
X11482333Y-17923667D01*
X11491857Y-17942714D01*
X11491857Y-18047476D01*
X11882333Y-17837952D02*
X11710905Y-18095095D01*
X12139476Y-17847476D02*
X12158524Y-17847476D01*
X12177571Y-17857000D01*
X12187095Y-17866524D01*
X12196619Y-17885571D01*
X12206143Y-17923667D01*
X12206143Y-17971286D01*
X12196619Y-18009381D01*
X12187095Y-18028429D01*
X12177571Y-18037952D01*
X12158524Y-18047476D01*
X12139476Y-18047476D01*
X12120428Y-18037952D01*
X12110905Y-18028429D01*
X12101381Y-18009381D01*
X12091857Y-17971286D01*
X12091857Y-17923667D01*
X12101381Y-17885571D01*
X12110905Y-17866524D01*
X12120428Y-17857000D01*
X12139476Y-17847476D01*
X12291857Y-18028429D02*
X12301381Y-18037952D01*
X12291857Y-18047476D01*
X12282333Y-18037952D01*
X12291857Y-18028429D01*
X12291857Y-18047476D01*
X12425190Y-17847476D02*
X12444238Y-17847476D01*
X12463286Y-17857000D01*
X12472809Y-17866524D01*
X12482333Y-17885571D01*
X12491857Y-17923667D01*
X12491857Y-17971286D01*
X12482333Y-18009381D01*
X12472809Y-18028429D01*
X12463286Y-18037952D01*
X12444238Y-18047476D01*
X12425190Y-18047476D01*
X12406143Y-18037952D01*
X12396619Y-18028429D01*
X12387095Y-18009381D01*
X12377571Y-17971286D01*
X12377571Y-17923667D01*
X12387095Y-17885571D01*
X12396619Y-17866524D01*
X12406143Y-17857000D01*
X12425190Y-17847476D01*
X12672809Y-17847476D02*
X12577571Y-17847476D01*
X12568048Y-17942714D01*
X12577571Y-17933190D01*
X12596619Y-17923667D01*
X12644238Y-17923667D01*
X12663286Y-17933190D01*
X12672809Y-17942714D01*
X12682333Y-17961762D01*
X12682333Y-18009381D01*
X12672809Y-18028429D01*
X12663286Y-18037952D01*
X12644238Y-18047476D01*
X12596619Y-18047476D01*
X12577571Y-18037952D01*
X12568048Y-18028429D01*
X12777571Y-18047476D02*
X12815667Y-18047476D01*
X12834714Y-18037952D01*
X12844238Y-18028429D01*
X12863286Y-17999857D01*
X12872809Y-17961762D01*
X12872809Y-17885571D01*
X12863286Y-17866524D01*
X12853762Y-17857000D01*
X12834714Y-17847476D01*
X12796619Y-17847476D01*
X12777571Y-17857000D01*
X12768048Y-17866524D01*
X12758524Y-17885571D01*
X12758524Y-17933190D01*
X12768048Y-17952238D01*
X12777571Y-17961762D01*
X12796619Y-17971286D01*
X12834714Y-17971286D01*
X12853762Y-17961762D01*
X12863286Y-17952238D01*
X12872809Y-17933190D01*
X12987095Y-17933190D02*
X12968048Y-17923667D01*
X12958524Y-17914143D01*
X12949000Y-17895095D01*
X12949000Y-17885571D01*
X12958524Y-17866524D01*
X12968048Y-17857000D01*
X12987095Y-17847476D01*
X13025190Y-17847476D01*
X13044238Y-17857000D01*
X13053762Y-17866524D01*
X13063286Y-17885571D01*
X13063286Y-17895095D01*
X13053762Y-17914143D01*
X13044238Y-17923667D01*
X13025190Y-17933190D01*
X12987095Y-17933190D01*
X12968048Y-17942714D01*
X12958524Y-17952238D01*
X12949000Y-17971286D01*
X12949000Y-18009381D01*
X12958524Y-18028429D01*
X12968048Y-18037952D01*
X12987095Y-18047476D01*
X13025190Y-18047476D01*
X13044238Y-18037952D01*
X13053762Y-18028429D01*
X13063286Y-18009381D01*
X13063286Y-17971286D01*
X13053762Y-17952238D01*
X13044238Y-17942714D01*
X13025190Y-17933190D01*
X13139476Y-17847476D02*
X13139476Y-17885571D01*
X13215667Y-17847476D02*
X13215667Y-17885571D01*
X13510905Y-18123667D02*
X13501381Y-18114143D01*
X13482333Y-18085571D01*
X13472809Y-18066524D01*
X13463286Y-18037952D01*
X13453762Y-17990333D01*
X13453762Y-17952238D01*
X13463286Y-17904619D01*
X13472809Y-17876048D01*
X13482333Y-17857000D01*
X13501381Y-17828429D01*
X13510905Y-17818905D01*
X13577571Y-17866524D02*
X13587095Y-17857000D01*
X13606143Y-17847476D01*
X13653762Y-17847476D01*
X13672809Y-17857000D01*
X13682333Y-17866524D01*
X13691857Y-17885571D01*
X13691857Y-17904619D01*
X13682333Y-17933190D01*
X13568048Y-18047476D01*
X13691857Y-18047476D01*
X13929952Y-18047476D02*
X13929952Y-17847476D01*
X14015667Y-18047476D02*
X14015667Y-17942714D01*
X14006143Y-17923667D01*
X13987095Y-17914143D01*
X13958524Y-17914143D01*
X13939476Y-17923667D01*
X13929952Y-17933190D01*
X14139476Y-18047476D02*
X14120428Y-18037952D01*
X14110905Y-18028429D01*
X14101381Y-18009381D01*
X14101381Y-17952238D01*
X14110905Y-17933190D01*
X14120428Y-17923667D01*
X14139476Y-17914143D01*
X14168048Y-17914143D01*
X14187095Y-17923667D01*
X14196619Y-17933190D01*
X14206143Y-17952238D01*
X14206143Y-18009381D01*
X14196619Y-18028429D01*
X14187095Y-18037952D01*
X14168048Y-18047476D01*
X14139476Y-18047476D01*
X14320428Y-18047476D02*
X14301381Y-18037952D01*
X14291857Y-18018905D01*
X14291857Y-17847476D01*
X14472809Y-18037952D02*
X14453762Y-18047476D01*
X14415667Y-18047476D01*
X14396619Y-18037952D01*
X14387095Y-18018905D01*
X14387095Y-17942714D01*
X14396619Y-17923667D01*
X14415667Y-17914143D01*
X14453762Y-17914143D01*
X14472809Y-17923667D01*
X14482333Y-17942714D01*
X14482333Y-17961762D01*
X14387095Y-17980810D01*
X14558524Y-18037952D02*
X14577571Y-18047476D01*
X14615667Y-18047476D01*
X14634714Y-18037952D01*
X14644238Y-18018905D01*
X14644238Y-18009381D01*
X14634714Y-17990333D01*
X14615667Y-17980810D01*
X14587095Y-17980810D01*
X14568048Y-17971286D01*
X14558524Y-17952238D01*
X14558524Y-17942714D01*
X14568048Y-17923667D01*
X14587095Y-17914143D01*
X14615667Y-17914143D01*
X14634714Y-17923667D01*
X14710905Y-18123667D02*
X14720428Y-18114143D01*
X14739476Y-18085571D01*
X14749000Y-18066524D01*
X14758524Y-18037952D01*
X14768048Y-17990333D01*
X14768048Y-17952238D01*
X14758524Y-17904619D01*
X14749000Y-17876048D01*
X14739476Y-17857000D01*
X14720428Y-17828429D01*
X14710905Y-17818905D01*
D22*
X9857500Y-18310500D02*
X9939000Y-18229000D01*
X9857500Y-18147500D01*
X9776000Y-18229000D01*
X9857500Y-18310500D01*
X9939000Y-18229000D02*
G75*
G03*
X9939000Y-18229000I-81500J0D01*
G01*
D11*
X10301381Y-18319476D02*
X10187095Y-18319476D01*
X10244238Y-18319476D02*
X10244238Y-18119476D01*
X10225190Y-18148048D01*
X10206143Y-18167095D01*
X10187095Y-18176619D01*
X10387095Y-18300429D02*
X10396619Y-18309952D01*
X10387095Y-18319476D01*
X10377571Y-18309952D01*
X10387095Y-18300429D01*
X10387095Y-18319476D01*
X10568048Y-18119476D02*
X10529952Y-18119476D01*
X10510905Y-18129000D01*
X10501381Y-18138524D01*
X10482333Y-18167095D01*
X10472810Y-18205190D01*
X10472810Y-18281381D01*
X10482333Y-18300429D01*
X10491857Y-18309952D01*
X10510905Y-18319476D01*
X10549000Y-18319476D01*
X10568048Y-18309952D01*
X10577571Y-18300429D01*
X10587095Y-18281381D01*
X10587095Y-18233762D01*
X10577571Y-18214714D01*
X10568048Y-18205190D01*
X10549000Y-18195667D01*
X10510905Y-18195667D01*
X10491857Y-18205190D01*
X10482333Y-18214714D01*
X10472810Y-18233762D01*
X10653762Y-18119476D02*
X10777571Y-18119476D01*
X10710905Y-18195667D01*
X10739476Y-18195667D01*
X10758524Y-18205190D01*
X10768048Y-18214714D01*
X10777571Y-18233762D01*
X10777571Y-18281381D01*
X10768048Y-18300429D01*
X10758524Y-18309952D01*
X10739476Y-18319476D01*
X10682333Y-18319476D01*
X10663286Y-18309952D01*
X10653762Y-18300429D01*
X10901381Y-18119476D02*
X10920429Y-18119476D01*
X10939476Y-18129000D01*
X10949000Y-18138524D01*
X10958524Y-18157571D01*
X10968048Y-18195667D01*
X10968048Y-18243286D01*
X10958524Y-18281381D01*
X10949000Y-18300429D01*
X10939476Y-18309952D01*
X10920429Y-18319476D01*
X10901381Y-18319476D01*
X10882333Y-18309952D01*
X10872810Y-18300429D01*
X10863286Y-18281381D01*
X10853762Y-18243286D01*
X10853762Y-18195667D01*
X10863286Y-18157571D01*
X10872810Y-18138524D01*
X10882333Y-18129000D01*
X10901381Y-18119476D01*
X11053762Y-18319476D02*
X11053762Y-18186143D01*
X11053762Y-18205190D02*
X11063286Y-18195667D01*
X11082333Y-18186143D01*
X11110905Y-18186143D01*
X11129952Y-18195667D01*
X11139476Y-18214714D01*
X11139476Y-18319476D01*
X11139476Y-18214714D02*
X11149000Y-18195667D01*
X11168048Y-18186143D01*
X11196619Y-18186143D01*
X11215667Y-18195667D01*
X11225190Y-18214714D01*
X11225190Y-18319476D01*
X11320428Y-18319476D02*
X11320428Y-18186143D01*
X11320428Y-18205190D02*
X11329952Y-18195667D01*
X11349000Y-18186143D01*
X11377571Y-18186143D01*
X11396619Y-18195667D01*
X11406143Y-18214714D01*
X11406143Y-18319476D01*
X11406143Y-18214714D02*
X11415667Y-18195667D01*
X11434714Y-18186143D01*
X11463286Y-18186143D01*
X11482333Y-18195667D01*
X11491857Y-18214714D01*
X11491857Y-18319476D01*
X11882333Y-18109952D02*
X11710905Y-18367095D01*
X12139476Y-18119476D02*
X12158524Y-18119476D01*
X12177571Y-18129000D01*
X12187095Y-18138524D01*
X12196619Y-18157571D01*
X12206143Y-18195667D01*
X12206143Y-18243286D01*
X12196619Y-18281381D01*
X12187095Y-18300429D01*
X12177571Y-18309952D01*
X12158524Y-18319476D01*
X12139476Y-18319476D01*
X12120428Y-18309952D01*
X12110905Y-18300429D01*
X12101381Y-18281381D01*
X12091857Y-18243286D01*
X12091857Y-18195667D01*
X12101381Y-18157571D01*
X12110905Y-18138524D01*
X12120428Y-18129000D01*
X12139476Y-18119476D01*
X12291857Y-18300429D02*
X12301381Y-18309952D01*
X12291857Y-18319476D01*
X12282333Y-18309952D01*
X12291857Y-18300429D01*
X12291857Y-18319476D01*
X12425190Y-18119476D02*
X12444238Y-18119476D01*
X12463286Y-18129000D01*
X12472809Y-18138524D01*
X12482333Y-18157571D01*
X12491857Y-18195667D01*
X12491857Y-18243286D01*
X12482333Y-18281381D01*
X12472809Y-18300429D01*
X12463286Y-18309952D01*
X12444238Y-18319476D01*
X12425190Y-18319476D01*
X12406143Y-18309952D01*
X12396619Y-18300429D01*
X12387095Y-18281381D01*
X12377571Y-18243286D01*
X12377571Y-18195667D01*
X12387095Y-18157571D01*
X12396619Y-18138524D01*
X12406143Y-18129000D01*
X12425190Y-18119476D01*
X12663286Y-18119476D02*
X12625190Y-18119476D01*
X12606143Y-18129000D01*
X12596619Y-18138524D01*
X12577571Y-18167095D01*
X12568048Y-18205190D01*
X12568048Y-18281381D01*
X12577571Y-18300429D01*
X12587095Y-18309952D01*
X12606143Y-18319476D01*
X12644238Y-18319476D01*
X12663286Y-18309952D01*
X12672809Y-18300429D01*
X12682333Y-18281381D01*
X12682333Y-18233762D01*
X12672809Y-18214714D01*
X12663286Y-18205190D01*
X12644238Y-18195667D01*
X12606143Y-18195667D01*
X12587095Y-18205190D01*
X12577571Y-18214714D01*
X12568048Y-18233762D01*
X12853762Y-18186143D02*
X12853762Y-18319476D01*
X12806143Y-18109952D02*
X12758524Y-18252810D01*
X12882333Y-18252810D01*
X12949000Y-18138524D02*
X12958524Y-18129000D01*
X12977571Y-18119476D01*
X13025190Y-18119476D01*
X13044238Y-18129000D01*
X13053762Y-18138524D01*
X13063286Y-18157571D01*
X13063286Y-18176619D01*
X13053762Y-18205190D01*
X12939476Y-18319476D01*
X13063286Y-18319476D01*
X13139476Y-18119476D02*
X13139476Y-18157571D01*
X13215667Y-18119476D02*
X13215667Y-18157571D01*
X13510905Y-18395667D02*
X13501381Y-18386143D01*
X13482333Y-18357571D01*
X13472809Y-18338524D01*
X13463286Y-18309952D01*
X13453762Y-18262333D01*
X13453762Y-18224238D01*
X13463286Y-18176619D01*
X13472809Y-18148048D01*
X13482333Y-18129000D01*
X13501381Y-18100429D01*
X13510905Y-18090905D01*
X13577571Y-18138524D02*
X13587095Y-18129000D01*
X13606143Y-18119476D01*
X13653762Y-18119476D01*
X13672809Y-18129000D01*
X13682333Y-18138524D01*
X13691857Y-18157571D01*
X13691857Y-18176619D01*
X13682333Y-18205190D01*
X13568048Y-18319476D01*
X13691857Y-18319476D01*
X13929952Y-18319476D02*
X13929952Y-18119476D01*
X14015667Y-18319476D02*
X14015667Y-18214714D01*
X14006143Y-18195667D01*
X13987095Y-18186143D01*
X13958524Y-18186143D01*
X13939476Y-18195667D01*
X13929952Y-18205190D01*
X14139476Y-18319476D02*
X14120428Y-18309952D01*
X14110905Y-18300429D01*
X14101381Y-18281381D01*
X14101381Y-18224238D01*
X14110905Y-18205190D01*
X14120428Y-18195667D01*
X14139476Y-18186143D01*
X14168048Y-18186143D01*
X14187095Y-18195667D01*
X14196619Y-18205190D01*
X14206143Y-18224238D01*
X14206143Y-18281381D01*
X14196619Y-18300429D01*
X14187095Y-18309952D01*
X14168048Y-18319476D01*
X14139476Y-18319476D01*
X14320428Y-18319476D02*
X14301381Y-18309952D01*
X14291857Y-18290905D01*
X14291857Y-18119476D01*
X14472809Y-18309952D02*
X14453762Y-18319476D01*
X14415667Y-18319476D01*
X14396619Y-18309952D01*
X14387095Y-18290905D01*
X14387095Y-18214714D01*
X14396619Y-18195667D01*
X14415667Y-18186143D01*
X14453762Y-18186143D01*
X14472809Y-18195667D01*
X14482333Y-18214714D01*
X14482333Y-18233762D01*
X14387095Y-18252810D01*
X14558524Y-18309952D02*
X14577571Y-18319476D01*
X14615667Y-18319476D01*
X14634714Y-18309952D01*
X14644238Y-18290905D01*
X14644238Y-18281381D01*
X14634714Y-18262333D01*
X14615667Y-18252810D01*
X14587095Y-18252810D01*
X14568048Y-18243286D01*
X14558524Y-18224238D01*
X14558524Y-18214714D01*
X14568048Y-18195667D01*
X14587095Y-18186143D01*
X14615667Y-18186143D01*
X14634714Y-18195667D01*
X14710905Y-18395667D02*
X14720428Y-18386143D01*
X14739476Y-18357571D01*
X14749000Y-18338524D01*
X14758524Y-18309952D01*
X14768048Y-18262333D01*
X14768048Y-18224238D01*
X14758524Y-18176619D01*
X14749000Y-18148048D01*
X14739476Y-18129000D01*
X14720428Y-18100429D01*
X14710905Y-18090905D01*
M02*
